{
.appVersion = "1230";
DisplayStrings = (
"6/endash 0123456789",
"/Iogonek",
"AA/ogonekcomb/Aogonek E/Eogonek I/Iogonek U/ogonekcomb/Uogonek",
"/ogonekcomb a/aogonek e/eogonek/idotless/idotless/iogonek u/uogonek/aogonek.sc/eogonek.sc/iogonek.sc/uogonek.sc",
"/c_t  /f_b  /f_f  /f_f_i  /f_f_l  /f_h  /f_j  /f_t  /fi  /fl  /s_t \012ct fb ff ffi ffl fh fj ft fi fl st",
"1H¹H²H³H/foursuperior H\012nn¹n²n³n/foursuperior nn\012oo¹o²o³o/foursuperior oo",
Q,
w,
"/icircumflex.sc",
"/greaterequal/lessequal",
"/greaterequal",
">"
);
classes = (
{
code = "at bracketleft bracketright parenleft parenright braceleft braceright guillemetleft guillemetright guilsinglleft guilsinglright endash emdash";
name = case1;
},
{
code = "A Aacute Abreve Acircumflex Adieresis Agrave Amacron Aogonek Aring Atilde AE B C Cacute Ccaron Ccedilla Cdotaccent D Eth Dcaron Dcroat E Eacute Ecaron Ecircumflex Edieresis Edotaccent Egrave Emacron Eogonek F G Gbreve Gcommaaccent Gdotaccent H Hbar I Iacute Icircumflex Idieresis Idotaccent Igrave Imacron Iogonek J K Kcommaaccent L Lacute Lcaron Lcommaaccent Lslash M N Nacute Ncaron Ncommaaccent Eng Ntilde O Oacute Ocircumflex Odieresis Ograve Ohungarumlaut Omacron Oslash Otilde OE P Thorn Q R Racute Rcaron Rcommaaccent S Sacute Scaron Scedilla Scommaaccent T Tbar Tcaron Tcedilla Tcommaaccent U Uacute Ucircumflex Udieresis Ugrave Uhungarumlaut Umacron Uogonek Uring V W Wacute Wcircumflex Wdieresis Wgrave X Y Yacute Ycircumflex Ydieresis Ygrave Z Zacute Zcaron Zdotaccent";
name = uppercase;
},
{

glyphs = (
{
glyphname = A;
lastChange = "2019-09-13 00:44:28 +0000";
layers = (
{
anchors = (
{
name = ogonek;
position = "{581, -51}";
},
{
name = topcase;
position = "{374, 690}";
}
);
background = {
paths = (
{
closed = 1;
nodes = (
"526 99 LINE SMOOTH",
"533 80 OFFCURVE",
"539 66 OFFCURVE",
"539 55 CURVE SMOOTH",
"539 39 OFFCURVE",
"526 31 OFFCURVE",
"483 24 CURVE SMOOTH",
"429 15 LINE",
"429 0 LINE",
"758 0 LINE",
"758 15 LINE",
"718 23 LINE SMOOTH",
"677 31 OFFCURVE",
"654 45 OFFCURVE",
"630 104 CURVE SMOOTH",
"386 698 LINE",
"377 698 LINE",
"377 677 OFFCURVE",
"356 637 OFFCURVE",
"314 635 CURVE",
"335 580 LINE",
"132 81 LINE SMOOTH",
"119 48 OFFCURVE",
"97 31 OFFCURVE",
"52 23 CURVE SMOOTH",
"5 15 LINE",
"5 0 LINE",
"262 0 LINE",
"262 15 LINE",
"197 27 LINE SMOOTH",
"173 31 OFFCURVE",
"160 38 OFFCURVE",
"160 54 CURVE SMOOTH",
"160 61 OFFCURVE",
"163 69 OFFCURVE",
"167 79 CURVE SMOOTH",
"366 564 LINE",
"343 564 LINE"
);
},
{
closed = 1;
nodes = (
"513 261 LINE",
"220 261 LINE",
"227 229 LINE",
"513 229 LINE"
);
}
);
};
layerId = "BD647A82-329A-4004-812E-9CBC2DAE5B44";
paths = (
{
closed = 1;
nodes = (
"262 0 LINE",
"262 18 LINE",
"197 30 LINE SMOOTH",
"173 34 OFFCURVE",
"160 41 OFFCURVE",
"160 57 CURVE SMOOTH",
"160 64 OFFCURVE",
"163 72 OFFCURVE",
"167 82 CURVE SMOOTH",
"366 564 LINE",
"343 564 LINE",
"526 102 LINE SMOOTH",
"533 83 OFFCURVE",
"539 69 OFFCURVE",
"539 58 CURVE SMOOTH",
"539 42 OFFCURVE",
"526 34 OFFCURVE",
"483 27 CURVE SMOOTH",
"429 18 LINE",
"429 0 LINE",
"758 0 LINE",
"758 18 LINE",
"718 26 LINE SMOOTH",
"677 34 OFFCURVE",
"654 48 OFFCURVE",
"630 107 CURVE SMOOTH",
"386 698 LINE",
"377 698 LINE",
"377 677 OFFCURVE",
"356 637 OFFCURVE",
"314 635 CURVE",
"335 580 LINE",
"132 84 LINE SMOOTH",
"119 51 OFFCURVE",
"97 34 OFFCURVE",
"52 26 CURVE SMOOTH",
"5 18 LINE",
"5 0 LINE"
);
},
{
closed = 1;
nodes = (
"513 229 LINE",
"513 261 LINE",
"220 261 LINE",
"227 229 LINE"
);
}
);
width = 763;
},
{
anchors = (
{
name = ogonek;
position = "{603, -52}";
},
{
name = topcase;
position = "{376, 690}";
}
);
background = {
paths = (
{
closed = 1;
nodes = (
"517 102 LINE SMOOTH",
"524 83 OFFCURVE",
"530 69 OFFCURVE",
"530 58 CURVE SMOOTH",
"530 42 OFFCURVE",
"517 34 OFFCURVE",
"474 27 CURVE SMOOTH",
"420 18 LINE",
"420 0 LINE",
"749 0 LINE",
"749 18 LINE",
"709 26 LINE SMOOTH",
"668 34 OFFCURVE",
"645 48 OFFCURVE",
"621 107 CURVE SMOOTH",
"377 698 LINE",
"368 698 LINE",
"368 677 OFFCURVE",
"347 637 OFFCURVE",
"305 635 CURVE",
"326 580 LINE",
"123 84 LINE SMOOTH",
"110 51 OFFCURVE",
"88 34 OFFCURVE",
"43 26 CURVE SMOOTH",
"-4 18 LINE",
"-4 0 LINE",
"253 0 LINE",
"253 18 LINE",
"188 30 LINE SMOOTH",
"164 34 OFFCURVE",
"151 41 OFFCURVE",
"151 57 CURVE SMOOTH",
"151 64 OFFCURVE",
"154 72 OFFCURVE",
"158 82 CURVE SMOOTH",
"357 564 LINE",
"334 564 LINE"
);
},
{
closed = 1;
nodes = (
"504 261 LINE",
"211 261 LINE",
"218 229 LINE",
"504 229 LINE"
);
},
{
closed = 1;
nodes = (
"325 533 LINE",
"503 87 LINE SMOOTH",
"515 56 OFFCURVE",
"504 41 OFFCURVE",
"465 33 CURVE SMOOTH",
"414 22 LINE",
"414 0 LINE",
"764 0 LINE",
"764 22 LINE",
"713 33 LINE SMOOTH",
"681 40 OFFCURVE",
"669 46 OFFCURVE",
"662 62 CURVE SMOOTH",
"400 698 LINE",
"386 698 LINE",
"386 677 OFFCURVE",
"352 637 OFFCURVE",
"288 635 CURVE",
"319 558 LINE",
"111 66 LINE SMOOTH",
"104 49 OFFCURVE",
"89 41 OFFCURVE",
"63 35 CURVE SMOOTH",
"5 22 LINE",
"5 0 LINE",
"271 0 LINE",
"271 22 LINE",
"181 37 LINE SMOOTH",
"151 42 OFFCURVE",
"145 54 OFFCURVE",
"151 69 CURVE SMOOTH",
"347 533 LINE"
);
},
{
closed = 1;
nodes = (
"216 259 LINE",
"216 226 LINE",
"501 226 LINE",
"501 259 LINE"
);
}
);
};
layerId = "3BF888B6-F1E5-4C4E-A417-A1F2F5FF24CA";
paths = (
{
closed = 1;
nodes = (
"267 0 LINE",
"267 22 LINE",
"181 37 LINE SMOOTH",
"159 41 OFFCURVE",
"151 51 OFFCURVE",
"151 63 CURVE SMOOTH",
"151 66 OFFCURVE",
"152 70 OFFCURVE",
"153 74 CURVE SMOOTH",
"347 533 LINE",
"325 533 LINE",
"503 87 LINE SMOOTH",
"506 79 OFFCURVE",
"508 72 OFFCURVE",
"508 66 CURVE SMOOTH",
"508 49 OFFCURVE",
"494 39 OFFCURVE",
"465 33 CURVE SMOOTH",
"414 22 LINE",
"414 0 LINE",
"764 0 LINE",
"764 22 LINE",
"713 33 LINE SMOOTH",
"681 40 OFFCURVE",
"669 46 OFFCURVE",
"662 62 CURVE SMOOTH",
"400 698 LINE",
"386 698 LINE",
"386 677 OFFCURVE",
"352 637 OFFCURVE",
"288 635 CURVE",
"319 558 LINE",
"115 75 LINE SMOOTH",
"106 54 OFFCURVE",
"92 42 OFFCURVE",
"63 35 CURVE SMOOTH",
"5 22 LINE",
"5 0 LINE"
);
},
{
closed = 1;
nodes = (
"501 226 LINE",
"501 259 LINE",
"216 259 LINE",
"216 226 LINE"
);
}
);
width = 769;
}
);
leftKerningGroup = A;
rightKerningGroup = A;
unicode = 0041;
},
{
glyphname = Aogonek;
lastChange = "2019-09-13 01:17:23 +0000";
layers = (
{
background = {
anchors = (
{
name = _ogonek;
position = "{562, -39}";
},
{
name = topcase;
position = "{374, 690}";
}
);
paths = (
{
closed = 1;
nodes = (
"581 -214 OFFCURVE",
"630 -187 OFFCURVE",
"669 -147 CURVE",
"657 -133 LINE",
"628 -152 OFFCURVE",
"599 -170 OFFCURVE",
"569 -170 CURVE SMOOTH",
"533 -170 OFFCURVE",
"505 -149 OFFCURVE",
"505 -93 CURVE SMOOTH",
"505 -38 OFFCURVE",
"571 1 OFFCURVE",
"615 16 CURVE",
"575 23 LINE",
"520 4 OFFCURVE",
"436 -40 OFFCURVE",
"436 -91 CURVE SMOOTH",
"436 -155 OFFCURVE",
"485 -214 OFFCURVE",
"543 -214 CURVE SMOOTH"
);
},
{
closed = 1;
nodes = (
"262 0 LINE",
"262 18 LINE",
"197 30 LINE SMOOTH",
"173 34 OFFCURVE",
"160 41 OFFCURVE",
"160 57 CURVE SMOOTH",
"160 64 OFFCURVE",
"163 72 OFFCURVE",
"167 82 CURVE SMOOTH",
"366 564 LINE",
"343 564 LINE",
"526 102 LINE SMOOTH",
"533 83 OFFCURVE",
"539 69 OFFCURVE",
"539 58 CURVE SMOOTH",
"539 42 OFFCURVE",
"526 34 OFFCURVE",
"483 27 CURVE SMOOTH",
"429 18 LINE",
"429 0 LINE",
"758 0 LINE",
"758 18 LINE",
"718 26 LINE SMOOTH",
"677 34 OFFCURVE",
"654 48 OFFCURVE",
"630 107 CURVE SMOOTH",
"386 698 LINE",
"377 698 LINE",
"377 677 OFFCURVE",
"356 637 OFFCURVE",
"314 635 CURVE",
"335 580 LINE",
"132 84 LINE SMOOTH",
"119 51 OFFCURVE",
"97 34 OFFCURVE",
"52 26 CURVE SMOOTH",
"5 18 LINE",
"5 0 LINE"
);
},
{
closed = 1;
nodes = (
"513 229 LINE",
"513 261 LINE",
"220 261 LINE",
"227 229 LINE"
);
}
);
};
components = (
{
name = A;
},
{
name = ogonekcomb;
transform = "{1, 0, 0, 1, 307, 0}";
}
);
layerId = "BD647A82-329A-4004-812E-9CBC2DAE5B44";
width = 763;
},
{
background = {
anchors = (
{
name = _ogonek;
position = "{604, -50}";
},
{
name = topcase;
position = "{376, 690}";
}
);
paths = (
{
closed = 1;
nodes = (
"267 0 LINE",
"267 22 LINE",
"181 37 LINE SMOOTH",
"159 41 OFFCURVE",
"151 51 OFFCURVE",
"151 63 CURVE SMOOTH",
"151 66 OFFCURVE",
"152 70 OFFCURVE",
"153 74 CURVE SMOOTH",
"347 533 LINE",
"325 533 LINE",
"503 87 LINE SMOOTH",
"506 79 OFFCURVE",
"508 72 OFFCURVE",
"508 66 CURVE SMOOTH",
"508 49 OFFCURVE",
"494 39 OFFCURVE",
"465 33 CURVE SMOOTH",
"414 22 LINE",
"414 0 LINE",
"764 0 LINE",
"764 22 LINE",
"713 33 LINE SMOOTH",
"681 40 OFFCURVE",
"669 46 OFFCURVE",
"662 62 CURVE SMOOTH",
"400 698 LINE",
"386 698 LINE",
"386 677 OFFCURVE",
"352 637 OFFCURVE",
"288 635 CURVE",
"319 558 LINE",
"115 75 LINE SMOOTH",
"106 54 OFFCURVE",
"92 42 OFFCURVE",
"63 35 CURVE SMOOTH",
"5 22 LINE",
"5 0 LINE"
);
},
{
closed = 1;
nodes = (
"501 226 LINE",
"501 259 LINE",
"216 259 LINE",
"216 226 LINE"
);
},
{
closed = 1;
nodes = (
"669 -225 OFFCURVE",
"717 -197 OFFCURVE",
"755 -156 CURVE",
"736 -134 LINE",
"713 -151 OFFCURVE",
"690 -163 OFFCURVE",
"666 -163 CURVE SMOOTH",
"638 -163 OFFCURVE",
"616 -144 OFFCURVE",
"616 -94 CURVE SMOOTH",
"616 -44 OFFCURVE",
"662 -9 OFFCURVE",
"697 4 CURVE",
"657 11 LINE",
"595 -8 OFFCURVE",
"505 -52 OFFCURVE",
"505 -103 CURVE SMOOTH",
"505 -166 OFFCURVE",
"565 -225 OFFCURVE",
"631 -225 CURVE SMOOTH"
);
}
);
};
components = (
{
name = A;
},
{
name = ogonekcomb;
transform = "{1, 0, 0, 1, 345, -2}";
}
);
layerId = "3BF888B6-F1E5-4C4E-A417-A1F2F5FF24CA";
width = 769;
}
);
leftKerningGroup = A;
rightKerningGroup = A;
unicode = 0104;
},
{
color = 4;
glyphname = AE;
lastChange = "2015-08-27 09:42:15 +0000";
layers = (
{
background = {
paths = (
{
closed = 1;
nodes = (
"298 260 LINE",
"500 545 LINE",
"500 260 LINE"
);
},
{
closed = 1;
nodes = (
"262 0 LINE",
"262 18 LINE",
"199 30 LINE SMOOTH",
"175 35 OFFCURVE",
"162 41 OFFCURVE",
"162 57 CURVE SMOOTH",
"162 64 OFFCURVE",
"166 73 OFFCURVE",
"173 82 CURVE SMOOTH",
"519 570 LINE",
"514 615 LINE",
"137 86 LINE SMOOTH",
"115 55 OFFCURVE",
"85 32 OFFCURVE",
"40 24 CURVE SMOOTH",
"5 18 LINE",
"5 0 LINE"
);
},
{
closed = 1;
nodes = (
"524 229 LINE",
"524 260 LINE",
"270 260 LINE",
"270 229 LINE"
);
}
);
};
components = (
{
alignment = -1;
name = E;
transform = "{1, 0, 0, 1, 334, 0}";
}
);
layerId = "BD647A82-329A-4004-812E-9CBC2DAE5B44";
paths = (
{
closed = 1;
nodes = (
"262 0 LINE",
"262 18 LINE",
"199 30 LINE SMOOTH",
"157 39 OFFCURVE",
"153 56 OFFCURVE",
"173 82 CURVE SMOOTH",
"519 570 LINE",
"514 615 LINE",
"137 86 LINE SMOOTH",
"115 55 OFFCURVE",
"85 32 OFFCURVE",
"40 24 CURVE SMOOTH",
"5 18 LINE",
"5 0 LINE"
);
},
{
closed = 1;
nodes = (
"524 229 LINE",
"524 260 LINE",
"270 260 LINE",
"270 229 LINE"
);
}
);
width = 1019;
},
{
background = {
paths = (
{
closed = 1;
nodes = (
"590 340 LINE",
"737 340 LINE SMOOTH",
"791 340 OFFCURVE",
"815 311 OFFCURVE",
"822 264 CURVE SMOOTH",
"830 217 LINE",
"847 217 LINE",
"847 494 LINE",
"830 494 LINE",
"822 448 LINE SMOOTH",
"815 400 OFFCURVE",
"791 372 OFFCURVE",
"734 372 CURVE SMOOTH",
"590 372 LINE",
"590 640 LINE",
"726 640 LINE SMOOTH",
"802 640 OFFCURVE",
"874 606 OFFCURVE",
"907 496 CURVE",
"927 496 LINE",
"920 539 OFFCURVE",
"911 577 OFFCURVE",
"911 618 CURVE SMOOTH",
"911 636 OFFCURVE",
"913 654 OFFCURVE",
"917 673 CURVE",
"348 673 LINE",
"348 658 LINE",
"381 652 LINE SMOOTH",
"446 640 OFFCURVE",
"454 630 OFFCURVE",
"454 572 CURVE SMOOTH",
"454 535 LINE",
"139 97 LINE SMOOTH",
"106 51 OFFCURVE",
"95 36 OFFCURVE",
"9 22 CURVE SMOOTH",
"-43 14 LINE",
"-44 0 LINE",
"243 0 LINE",
"244 15 LINE",
"198 23 LINE SMOOTH",
"168 29 OFFCURVE",
"151 38 OFFCURVE",
"151 52 CURVE SMOOTH",
"151 64 OFFCURVE",
"164 81 OFFCURVE",
"176 97 CURVE SMOOTH",
"273 229 LINE",
"454 229 LINE",
"454 92 LINE SMOOTH",
"454 61 OFFCURVE",
"452 41 OFFCURVE",
"412 30 CURVE",
"351 16 LINE",
"348 15 LINE",
"348 0 LINE",
"930 0 LINE",
"930 61 OFFCURVE",
"942 121 OFFCURVE",
"956 180 CURVE",
"935 180 LINE",
"896 104 OFFCURVE",
"833 33 OFFCURVE",
"735 33 CURVE SMOOTH",
"645 33 LINE SMOOTH",
"614 33 OFFCURVE",
"601 47 OFFCURVE",
"595 56 CURVE",
"593 60 OFFCURVE",
"591 65 OFFCURVE",
"591 71 CURVE"
);
},
{
closed = 1;
nodes = (
"295 262 LINE",
"454 489 LINE",
"454 262 LINE"
);
}
);
};
components = (
{
alignment = -1;
name = E;
transform = "{1, 0, 0, 1, 320, 0}";
}
);
layerId = "3BF888B6-F1E5-4C4E-A417-A1F2F5FF24CA";
paths = (
{
closed = 1;
nodes = (
"267 0 LINE",
"267 22 LINE",
"184 37 LINE SMOOTH",
"159 42 OFFCURVE",
"150 56 OFFCURVE",
"164 76 CURVE SMOOTH",
"467 507 LINE",
"468 563 LINE",
"114 67 LINE SMOOTH",
"101 49 OFFCURVE",
"90 42 OFFCURVE",
"61 35 CURVE SMOOTH",
"5 22 LINE",
"5 0 LINE"
);
},
{
closed = 1;
nodes = (
"494 229 LINE",
"494 262 LINE",
"285 262 LINE",
"263 229 LINE"
);
}
);
width = 990;
}
);
leftKerningGroup = A;
leftMetricsKey = A;
rightKerningGroup = E;
rightMetricsKey = E;
unicode = 00C6;
},
{
glyphname = B;
lastChange = "2015-08-06 18:33:36 +0000";
layers = (
{
background = {
paths = (
{
closed = 1;
nodes = (
"348 0 LINE SMOOTH",
"504 0 OFFCURVE",
"630 63 OFFCURVE",
"630 198 CURVE SMOOTH",
"630 310 OFFCURVE",
"523 360 OFFCURVE",
"429 373 CURVE",
"429 375 LINE",
"523 392 OFFCURVE",
"593 433 OFFCURVE",
"593 517 CURVE SMOOTH",
"593 611 OFFCURVE",
"505 673 OFFCURVE",
"368 673 CURVE SMOOTH",
"40 673 LINE",
"40 658 LINE",
"101 647 LINE SMOOTH",
"156 637 OFFCURVE",
"165 630 OFFCURVE",
"165 588 CURVE SMOOTH",
"165 85 LINE SMOOTH",
"165 43 OFFCURVE",
"156 36 OFFCURVE",
"101 26 CURVE SMOOTH",
"40 15 LINE",
"40 0 LINE"
);
},
{
closed = 1;
nodes = (
"259 25 OFFCURVE",
"254 43 OFFCURVE",
"254 105 CURVE SMOOTH",
"254 357 LINE",
"352 357 LINE SMOOTH",
"462 357 OFFCURVE",
"527 283 OFFCURVE",
"527 190 CURVE SMOOTH",
"527 85 OFFCURVE",
"443 24 OFFCURVE",
"352 24 CURVE SMOOTH",
"346 24 LINE SMOOTH"
);
},
{
closed = 1;
nodes = (
"254 649 LINE",
"350 649 LINE SMOOTH",
"447 649 OFFCURVE",
"500 601 OFFCURVE",
"500 514 CURVE SMOOTH",
"500 443 OFFCURVE",
"446 383 OFFCURVE",
"358 383 CURVE SMOOTH",
"254 383 LINE"
);
}
);
};
layerId = "BD647A82-329A-4004-812E-9CBC2DAE5B44";
paths = (
{
closed = 1;
nodes = (
"348 0 LINE SMOOTH",
"504 0 OFFCURVE",
"630 63 OFFCURVE",
"630 198 CURVE SMOOTH",
"630 310 OFFCURVE",
"523 360 OFFCURVE",
"429 373 CURVE",
"429 375 LINE",
"523 392 OFFCURVE",
"593 433 OFFCURVE",
"593 517 CURVE SMOOTH",
"593 611 OFFCURVE",
"505 673 OFFCURVE",
"368 673 CURVE SMOOTH",
"40 673 LINE",
"40 655 LINE",
"101 644 LINE SMOOTH",
"156 634 OFFCURVE",
"165 627 OFFCURVE",
"165 585 CURVE SMOOTH",
"165 88 LINE SMOOTH",
"165 46 OFFCURVE",
"156 39 OFFCURVE",
"101 29 CURVE SMOOTH",
"40 18 LINE",
"40 0 LINE"
);
},
{
closed = 1;
nodes = (
"269 25 OFFCURVE",
"254 46 OFFCURVE",
"254 90 CURVE SMOOTH",
"254 357 LINE",
"352 357 LINE SMOOTH",
"462 357 OFFCURVE",
"527 283 OFFCURVE",
"527 190 CURVE SMOOTH",
"527 85 OFFCURVE",
"443 24 OFFCURVE",
"352 24 CURVE SMOOTH",
"328 24 LINE SMOOTH"
);
},
{
closed = 1;
nodes = (
"254 649 LINE",
"350 649 LINE SMOOTH",
"447 649 OFFCURVE",
"500 601 OFFCURVE",
"500 514 CURVE SMOOTH",
"500 443 OFFCURVE",
"446 383 OFFCURVE",
"358 383 CURVE SMOOTH",
"254 383 LINE"
);
}
);
width = 695;
},
{
background = {
paths = (
{
closed = 1;
nodes = (
"338 0 LINE SMOOTH",
"494 0 OFFCURVE",
"620 63 OFFCURVE",
"620 198 CURVE SMOOTH",
"620 310 OFFCURVE",
"513 360 OFFCURVE",
"419 373 CURVE",
"419 375 LINE",
"513 392 OFFCURVE",
"583 433 OFFCURVE",
"583 517 CURVE SMOOTH",
"583 611 OFFCURVE",
"495 673 OFFCURVE",
"358 673 CURVE SMOOTH",
"30 673 LINE",
"30 655 LINE",
"91 644 LINE SMOOTH",
"146 634 OFFCURVE",
"155 627 OFFCURVE",
"155 585 CURVE SMOOTH",
"155 88 LINE SMOOTH",
"155 46 OFFCURVE",
"146 39 OFFCURVE",
"91 29 CURVE SMOOTH",
"30 18 LINE",
"30 0 LINE"
);
},
{
closed = 1;
nodes = (
"259 25 OFFCURVE",
"244 46 OFFCURVE",
"244 90 CURVE SMOOTH",
"244 357 LINE",
"342 357 LINE SMOOTH",
"452 357 OFFCURVE",
"517 283 OFFCURVE",
"517 190 CURVE SMOOTH",
"517 85 OFFCURVE",
"433 24 OFFCURVE",
"342 24 CURVE SMOOTH",
"318 24 LINE SMOOTH"
);
},
{
closed = 1;
nodes = (
"244 649 LINE",
"340 649 LINE SMOOTH",
"437 649 OFFCURVE",
"490 601 OFFCURVE",
"490 514 CURVE SMOOTH",
"490 443 OFFCURVE",
"436 383 OFFCURVE",
"348 383 CURVE SMOOTH",
"244 383 LINE"
);
},
{
closed = 1;
nodes = (
"355 0 LINE SMOOTH",
"511 0 OFFCURVE",
"640 53 OFFCURVE",
"640 203 CURVE SMOOTH",
"640 305 OFFCURVE",
"551 364 OFFCURVE",
"460 374 CURVE",
"460 376 LINE",
"550 390 OFFCURVE",
"603 433 OFFCURVE",
"603 517 CURVE SMOOTH",
"603 611 OFFCURVE",
"512 673 OFFCURVE",
"375 673 CURVE SMOOTH",
"30 673 LINE",
"30 651 LINE",
"81 640 LINE SMOOTH",
"127 630 OFFCURVE",
"135 623 OFFCURVE",
"135 581 CURVE SMOOTH",
"135 92 LINE SMOOTH",
"135 50 OFFCURVE",
"127 43 OFFCURVE",
"81 33 CURVE SMOOTH",
"30 22 LINE",
"30 0 LINE"
);
},
{
closed = 1;
nodes = (
"289 33 OFFCURVE",
"275 44 OFFCURVE",
"275 88 CURVE SMOOTH",
"275 353 LINE",
"332 353 LINE SMOOTH",
"438 353 OFFCURVE",
"480 298 OFFCURVE",
"480 203 CURVE SMOOTH",
"480 102 OFFCURVE",
"426 33 OFFCURVE",
"336 33 CURVE SMOOTH",
"334 33 LINE SMOOTH"
);
},
{
closed = 1;
nodes = (
"275 640 LINE",
"327 640 LINE SMOOTH",
"401 640 OFFCURVE",
"451 591 OFFCURVE",
"451 516 CURVE SMOOTH",
"451 446 OFFCURVE",
"409 386 OFFCURVE",
"339 386 CURVE SMOOTH",
"275 386 LINE"
);
}
);
};
layerId = "3BF888B6-F1E5-4C4E-A417-A1F2F5FF24CA";
paths = (
{
closed = 1;
nodes = (
"380 0 LINE SMOOTH",
"536 0 OFFCURVE",
"665 53 OFFCURVE",
"665 203 CURVE SMOOTH",
"665 305 OFFCURVE",
"571 368 OFFCURVE",
"473 374 CURVE",
"473 376 LINE",
"566 389 OFFCURVE",
"628 433 OFFCURVE",
"628 517 CURVE SMOOTH",
"628 611 OFFCURVE",
"537 673 OFFCURVE",
"400 673 CURVE SMOOTH",
"30 673 LINE",
"30 651 LINE",
"81 640 LINE SMOOTH",
"127 630 OFFCURVE",
"135 623 OFFCURVE",
"135 581 CURVE SMOOTH",
"135 92 LINE SMOOTH",
"135 50 OFFCURVE",
"127 43 OFFCURVE",
"81 33 CURVE SMOOTH",
"30 22 LINE",
"30 0 LINE"
);
},
{
closed = 1;
nodes = (
"289 33 OFFCURVE",
"275 44 OFFCURVE",
"275 88 CURVE SMOOTH",
"275 353 LINE",
"357 353 LINE SMOOTH",
"463 353 OFFCURVE",
"505 298 OFFCURVE",
"505 203 CURVE SMOOTH",
"505 102 OFFCURVE",
"451 33 OFFCURVE",
"361 33 CURVE SMOOTH",
"334 33 LINE SMOOTH"
);
},
{
closed = 1;
nodes = (
"275 640 LINE",
"342 640 LINE SMOOTH",
"426 640 OFFCURVE",
"476 591 OFFCURVE",
"476 516 CURVE SMOOTH",
"476 446 OFFCURVE",
"434 386 OFFCURVE",
"364 386 CURVE SMOOTH",
"275 386 LINE"
);
}
);
width = 715;
}
);
leftKerningGroup = H;
leftMetricsKey = H;
unicode = 0042;
},
{
glyphname = C;
lastChange = "2015-08-27 18:02:15 +0000";
layers = (
{
anchors = (
{
name = bottom;
position = "{410, -50}";
},
{
name = topcase;
position = "{412, 690}";
}
);
background = {
paths = (
{
closed = 1;
nodes = (
"438 -13 OFFCURVE",
"489 -3 OFFCURVE",
"535 7 CURVE SMOOTH",
"579 16 OFFCURVE",
"618 25 OFFCURVE",
"637 25 CURVE SMOOTH",
"647 25 OFFCURVE",
"654 24 OFFCURVE",
"654 24 CURVE",
"654 77 OFFCURVE",
"667 140 OFFCURVE",
"680 204 CURVE",
"660 204 LINE",
"598 32 OFFCURVE",
"458 11 OFFCURVE",
"401 11 CURVE SMOOTH",
"252 11 OFFCURVE",
"143 151 OFFCURVE",
"143 339 CURVE SMOOTH",
"143 525 OFFCURVE",
"262 656 OFFCURVE",
"400 656 CURVE SMOOTH",
"532 656 OFFCURVE",
"624 552 OFFCURVE",
"657 468 CURVE",
"677 468 LINE",
"677 468 OFFCURVE",
"660 532 OFFCURVE",
"660 594 CURVE SMOOTH",
"660 610 OFFCURVE",
"662 626 OFFCURVE",
"664 640 CURVE",
"662 642 LINE",
"649 640 OFFCURVE",
"639 637 OFFCURVE",
"625 637 CURVE SMOOTH",
"600 637 OFFCURVE",
"578 645 OFFCURVE",
"550 655 CURVE SMOOTH",
"514 667 OFFCURVE",
"469 681 OFFCURVE",
"396 681 CURVE SMOOTH",
"213 681 OFFCURVE",
"45 543 OFFCURVE",
"45 337 CURVE SMOOTH",
"45 140 OFFCURVE",
"189 -13 OFFCURVE",
"400 -13 CURVE SMOOTH"
);
}
);
};
layerId = "BD647A82-329A-4004-812E-9CBC2DAE5B44";
paths = (
{
closed = 1;
nodes = (
"438 -13 OFFCURVE",
"489 -3 OFFCURVE",
"535 7 CURVE SMOOTH",
"579 16 OFFCURVE",
"616 24 OFFCURVE",
"644 24 CURVE SMOOTH",
"654 24 LINE",
"654 77 OFFCURVE",
"667 140 OFFCURVE",
"680 204 CURVE",
"660 204 LINE",
"598 32 OFFCURVE",
"458 11 OFFCURVE",
"401 11 CURVE SMOOTH",
"252 11 OFFCURVE",
"143 151 OFFCURVE",
"143 339 CURVE SMOOTH",
"143 525 OFFCURVE",
"262 656 OFFCURVE",
"400 656 CURVE SMOOTH",
"532 656 OFFCURVE",
"624 552 OFFCURVE",
"657 468 CURVE",
"677 468 LINE",
"655 556 OFFCURVE",
"659 608 OFFCURVE",
"664 640 CURVE",
"662 642 LINE",
"649 640 OFFCURVE",
"639 637 OFFCURVE",
"625 637 CURVE SMOOTH",
"600 637 OFFCURVE",
"578 645 OFFCURVE",
"550 655 CURVE SMOOTH",
"514 667 OFFCURVE",
"469 681 OFFCURVE",
"396 681 CURVE SMOOTH",
"213 681 OFFCURVE",
"45 543 OFFCURVE",
"45 337 CURVE SMOOTH",
"45 140 OFFCURVE",
"189 -13 OFFCURVE",
"400 -13 CURVE SMOOTH"
);
}
);
width = 735;
},
{
anchors = (
{
name = bottom;
position = "{450, -50}";
},
{
name = topcase;
position = "{432, 690}";
}
);
layerId = "3BF888B6-F1E5-4C4E-A417-A1F2F5FF24CA";
paths = (
{
closed = 1;
nodes = (
"500 -8 OFFCURVE",
"540 2 OFFCURVE",
"577 12 CURVE SMOOTH",
"607 20 OFFCURVE",
"640 29 OFFCURVE",
"676 29 CURVE SMOOTH",
"683 29 LINE",
"684 92 OFFCURVE",
"695 160 OFFCURVE",
"714 224 CURVE",
"683 224 LINE",
"639 114 OFFCURVE",
"555 26 OFFCURVE",
"431 26 CURVE SMOOTH",
"286 26 OFFCURVE",
"193 149 OFFCURVE",
"193 329 CURVE SMOOTH",
"193 524 OFFCURVE",
"297 648 OFFCURVE",
"427 648 CURVE SMOOTH",
"550 648 OFFCURVE",
"626 567 OFFCURVE",
"675 451 CURVE",
"702 451 LINE",
"688 516 OFFCURVE",
"675 580 OFFCURVE",
"690 637 CURVE",
"686 640 LINE",
"673 637 OFFCURVE",
"663 635 OFFCURVE",
"648 635 CURVE SMOOTH",
"618 635 OFFCURVE",
"599 645 OFFCURVE",
"575 656 CURVE SMOOTH",
"545 669 OFFCURVE",
"507 683 OFFCURVE",
"431 683 CURVE SMOOTH",
"206 683 OFFCURVE",
"40 532 OFFCURVE",
"40 329 CURVE SMOOTH",
"40 141 OFFCURVE",
"203 -8 OFFCURVE",
"435 -8 CURVE SMOOTH"
);
}
);
width = 739;
}
);
leftKerningGroup = O;
leftMetricsKey = O;
rightKerningGroup = C;
unicode = 0043;
},
{
glyphname = D;
lastChange = "2015-08-06 21:38:47 +0000";
layers = (
{
anchors = (
{
name = topcase;
position = "{399, 690}";
}
);
background = {
paths = (
{
closed = 1;
nodes = (
"356 0 LINE SMOOTH",
"587 0 OFFCURVE",
"760 123 OFFCURVE",
"760 335 CURVE SMOOTH",
"760 512 OFFCURVE",
"612 673 OFFCURVE",
"361 673 CURVE SMOOTH",
"40 673 LINE",
"40 658 LINE",
"101 647 LINE SMOOTH",
"156 637 OFFCURVE",
"165 630 OFFCURVE",
"165 588 CURVE SMOOTH",
"165 85 LINE SMOOTH",
"165 43 OFFCURVE",
"156 36 OFFCURVE",
"101 26 CURVE SMOOTH",
"40 15 LINE",
"40 0 LINE"
);
},
{
closed = 1;
nodes = (
"275 25 OFFCURVE",
"255 42 OFFCURVE",
"255 78 CURVE SMOOTH",
"255 649 LINE",
"337 649 LINE SMOOTH",
"531 649 OFFCURVE",
"661 543 OFFCURVE",
"661 335 CURVE SMOOTH",
"661 133 OFFCURVE",
"526 24 OFFCURVE",
"356 24 CURVE SMOOTH"
);
}
);
};
layerId = "BD647A82-329A-4004-812E-9CBC2DAE5B44";
paths = (
{
closed = 1;
nodes = (
"356 0 LINE SMOOTH",
"587 0 OFFCURVE",
"760 123 OFFCURVE",
"760 335 CURVE SMOOTH",
"760 512 OFFCURVE",
"612 673 OFFCURVE",
"361 673 CURVE SMOOTH",
"40 673 LINE",
"40 655 LINE",
"101 644 LINE SMOOTH",
"156 634 OFFCURVE",
"165 627 OFFCURVE",
"165 585 CURVE SMOOTH",
"165 88 LINE SMOOTH",
"165 46 OFFCURVE",
"156 39 OFFCURVE",
"101 29 CURVE SMOOTH",
"40 18 LINE",
"40 0 LINE"
);
},
{
closed = 1;
nodes = (
"275 25 OFFCURVE",
"255 42 OFFCURVE",
"255 78 CURVE SMOOTH",
"255 649 LINE",
"337 649 LINE SMOOTH",
"541 649 OFFCURVE",
"661 540 OFFCURVE",
"661 335 CURVE SMOOTH",
"661 133 OFFCURVE",
"526 24 OFFCURVE",
"356 24 CURVE SMOOTH"
);
}
);
width = 805;
},
{
anchors = (
{
name = topcase;
position = "{403, 690}";
}
);
background = {
paths = (
{
closed = 1;
nodes = (
"386 0 LINE SMOOTH",
"595 0 OFFCURVE",
"745 147 OFFCURVE",
"745 341 CURVE SMOOTH",
"745 524 OFFCURVE",
"588 673 OFFCURVE",
"379 673 CURVE SMOOTH",
"30 673 LINE",
"30 651 LINE",
"81 640 LINE SMOOTH",
"127 630 OFFCURVE",
"135 623 OFFCURVE",
"135 581 CURVE SMOOTH",
"135 92 LINE SMOOTH",
"135 50 OFFCURVE",
"127 43 OFFCURVE",
"81 33 CURVE SMOOTH",
"30 22 LINE",
"30 0 LINE"
);
},
{
closed = 1;
nodes = (
"282 33 OFFCURVE",
"275 50 OFFCURVE",
"275 92 CURVE SMOOTH",
"275 642 LINE",
"365 642 LINE SMOOTH",
"502 642 OFFCURVE",
"591 520 OFFCURVE",
"591 342 CURVE SMOOTH",
"591 154 OFFCURVE",
"502 33 OFFCURVE",
"365 33 CURVE SMOOTH",
"329 33 LINE SMOOTH"
);
}
);
};
layerId = "3BF888B6-F1E5-4C4E-A417-A1F2F5FF24CA";
paths = (
{
closed = 1;
nodes = (
"386 0 LINE SMOOTH",
"595 0 OFFCURVE",
"745 147 OFFCURVE",
"745 341 CURVE SMOOTH",
"745 524 OFFCURVE",
"588 673 OFFCURVE",
"379 673 CURVE SMOOTH",
"30 673 LINE",
"30 651 LINE",
"81 640 LINE SMOOTH",
"127 630 OFFCURVE",
"135 623 OFFCURVE",
"135 581 CURVE SMOOTH",
"135 92 LINE SMOOTH",
"135 50 OFFCURVE",
"127 43 OFFCURVE",
"81 33 CURVE SMOOTH",
"30 22 LINE",
"30 0 LINE"
);
},
{
closed = 1;
nodes = (
"306 33 OFFCURVE",
"275 53 OFFCURVE",
"275 92 CURVE SMOOTH",
"275 642 LINE",
"365 642 LINE SMOOTH",
"502 642 OFFCURVE",
"591 520 OFFCURVE",
"591 342 CURVE SMOOTH",
"591 154 OFFCURVE",
"502 33 OFFCURVE",
"365 33 CURVE SMOOTH"
);
}
);
width = 785;
}
);
leftKerningGroup = H;
leftMetricsKey = H;
rightKerningGroup = O;
rightMetricsKey = O;
unicode = 0044;
},
{
glyphname = Eth;
lastChange = "2015-08-27 09:48:31 +0000";
layers = (
{
components = (
{
name = D;
}
);
guideLines = (
{
angle = 90;
position = "{40, 549}";
}
);
layerId = "BD647A82-329A-4004-812E-9CBC2DAE5B44";
paths = (
{
closed = 1;
nodes = (
"383 321 LINE",
"383 356 LINE",
"40 356 LINE",
"40 321 LINE"
);
}
);
width = 805;
},
{
background = {
paths = (
{
closed = 1;
nodes = (
"39 341 LINE",
"149 341 LINE",
"149 105 LINE SMOOTH",
"149 46 OFFCURVE",
"148 38 OFFCURVE",
"67 20 CURVE SMOOTH",
"44 15 LINE",
"44 0 LINE",
"336 0 LINE SMOOTH",
"340 0 OFFCURVE",
"365 -3 OFFCURVE",
"369 -3 CURVE SMOOTH",
"561 -3 OFFCURVE",
"759 105 OFFCURVE",
"759 332 CURVE SMOOTH",
"759 554 OFFCURVE",
"599 673 OFFCURVE",
"359 673 CURVE SMOOTH",
"44 673 LINE",
"44 658 LINE",
"67 653 LINE SMOOTH",
"149 637 OFFCURVE",
"149 627 OFFCURVE",
"149 568 CURVE SMOOTH",
"149 374 LINE",
"39 374 LINE"
);
},
{
closed = 1;
nodes = (
"349 32 LINE",
"293 34 OFFCURVE",
"285 57 OFFCURVE",
"285 109 CURVE SMOOTH",
"285 341 LINE",
"388 341 LINE",
"388 374 LINE",
"285 374 LINE",
"285 641 LINE",
"364 641 LINE",
"536 628 OFFCURVE",
"621 502 OFFCURVE",
"621 332 CURVE SMOOTH",
"621 159 OFFCURVE",
"545 42 OFFCURVE",
"369 32 CURVE"
);
},
{
closed = 1;
nodes = (
"40 356 LINE",
"40 321 LINE",
"383 321 LINE",
"383 356 LINE"
);
}
);
};
components = (
{
name = D;
}
);
guideLines = (
{
angle = 90;
position = "{30, 549}";
}
);
layerId = "3BF888B6-F1E5-4C4E-A417-A1F2F5FF24CA";
paths = (
{
closed = 1;
nodes = (
"388 323 LINE",
"388 378 LINE",
"30 378 LINE",
"30 323 LINE"
);
}
);
width = 785;
}
);
leftKerningGroup = H;
rightKerningGroup = O;
unicode = 00D0;
},
{
glyphname = E;
lastChange = "2019-09-13 00:45:13 +0000";
layers = (
{
anchors = (
{
name = ogonek;
position = "{538, -51}";
},
{
name = topcase;
position = "{368, 690}";
}
);
background = {
paths = (
{
closed = 1;
nodes = (
"40 658 LINE",
"101 647 LINE SMOOTH",
"156 637 OFFCURVE",
"165 630 OFFCURVE",
"165 588 CURVE SMOOTH",
"165 85 LINE SMOOTH",
"165 43 OFFCURVE",
"156 36 OFFCURVE",
"101 26 CURVE SMOOTH",
"40 15 LINE",
"40 0 LINE",
"619 0 LINE",
"620 52 OFFCURVE",
"628 118 OFFCURVE",
"645 180 CURVE",
"626 180 LINE",
"606 141 LINE SMOOTH",
"584 99 OFFCURVE",
"519 25 OFFCURVE",
"426 25 CURVE SMOOTH",
"351 25 LINE SMOOTH",
"259 25 OFFCURVE",
"256 38 OFFCURVE",
"256 97 CURVE SMOOTH",
"256 341 LINE",
"390 341 LINE SMOOTH",
"457 341 OFFCURVE",
"498 341 OFFCURVE",
"513 261 CURVE SMOOTH",
"521 217 LINE",
"536 217 LINE",
"536 494 LINE",
"521 494 LINE",
"513 447 LINE SMOOTH",
"502 384 OFFCURVE",
"484 369 OFFCURVE",
"403 369 CURVE SMOOTH",
"256 369 LINE",
"256 649 LINE",
"430 649 LINE SMOOTH",
"521 649 OFFCURVE",
"562 602 OFFCURVE",
"599 496 CURVE",
"619 496 LINE",
"615 524 OFFCURVE",
"603 568 OFFCURVE",
"603 617 CURVE SMOOTH",
"603 635 OFFCURVE",
"605 654 OFFCURVE",
"609 673 CURVE",
"40 673 LINE"
);
}
);
};
layerId = "BD647A82-329A-4004-812E-9CBC2DAE5B44";
paths = (
{
closed = 1;
nodes = (
"619 0 LINE",
"620 52 OFFCURVE",
"628 118 OFFCURVE",
"645 180 CURVE",
"626 180 LINE",
"600 129 LINE SMOOTH",
"576 82 OFFCURVE",
"508 25 OFFCURVE",
"426 25 CURVE SMOOTH",
"334 25 LINE SMOOTH",
"270 25 OFFCURVE",
"256 41 OFFCURVE",
"256 90 CURVE SMOOTH",
"256 341 LINE",
"415 341 LINE SMOOTH",
"484 341 OFFCURVE",
"499 319 OFFCURVE",
"510 263 CURVE SMOOTH",
"519 216 LINE",
"537 216 LINE",
"537 494 LINE",
"519 494 LINE",
"510 447 LINE SMOOTH",
"499 391 OFFCURVE",
"484 369 OFFCURVE",
"415 369 CURVE SMOOTH",
"256 369 LINE",
"256 649 LINE",
"430 649 LINE SMOOTH",
"532 649 OFFCURVE",
"569 583 OFFCURVE",
"599 496 CURVE",
"619 496 LINE",
"615 524 OFFCURVE",
"603 568 OFFCURVE",
"603 617 CURVE SMOOTH",
"603 635 OFFCURVE",
"605 654 OFFCURVE",
"609 673 CURVE",
"40 673 LINE",
"40 655 LINE",
"101 644 LINE SMOOTH",
"156 634 OFFCURVE",
"165 627 OFFCURVE",
"165 585 CURVE SMOOTH",
"165 88 LINE SMOOTH",
"165 46 OFFCURVE",
"156 39 OFFCURVE",
"101 29 CURVE SMOOTH",
"40 18 LINE",
"40 0 LINE"
);
}
);
width = 685;
},
{
anchors = (
{
name = ogonek;
position = "{489, -52}";
},
{
name = topcase;
position = "{344, 690}";
}
);
background = {
paths = (
{
closed = 1;
nodes = (
"615 0 LINE",
"615 61 OFFCURVE",
"626 121 OFFCURVE",
"640 180 CURVE",
"618 180 LINE",
"579 104 OFFCURVE",
"516 33 OFFCURVE",
"418 33 CURVE SMOOTH",
"344 33 LINE SMOOTH",
"275 33 OFFCURVE",
"275 60 OFFCURVE",
"275 119 CURVE SMOOTH",
"275 339 LINE",
"405 339 LINE SMOOTH",
"469 339 OFFCURVE",
"493 312 OFFCURVE",
"501 265 CURVE SMOOTH",
"510 217 LINE",
"532 217 LINE",
"532 494 LINE",
"510 494 LINE",
"502 448 LINE SMOOTH",
"494 400 OFFCURVE",
"470 372 OFFCURVE",
"403 372 CURVE SMOOTH",
"275 372 LINE",
"275 640 LINE",
"425 640 LINE SMOOTH",
"508 640 OFFCURVE",
"571 568 OFFCURVE",
"591 496 CURVE",
"613 496 LINE",
"606 539 OFFCURVE",
"597 577 OFFCURVE",
"597 618 CURVE SMOOTH",
"597 636 OFFCURVE",
"599 654 OFFCURVE",
"603 673 CURVE",
"30 673 LINE",
"30 651 LINE",
"81 640 LINE SMOOTH",
"127 630 OFFCURVE",
"135 623 OFFCURVE",
"135 581 CURVE SMOOTH",
"135 92 LINE SMOOTH",
"135 50 OFFCURVE",
"127 43 OFFCURVE",
"81 33 CURVE SMOOTH",
"30 22 LINE",
"30 0 LINE"
);
}
);
};
layerId = "3BF888B6-F1E5-4C4E-A417-A1F2F5FF24CA";
paths = (
{
closed = 1;
nodes = (
"615 0 LINE",
"615 61 OFFCURVE",
"626 121 OFFCURVE",
"640 180 CURVE",
"618 180 LINE",
"575 120 LINE SMOOTH",
"536 65 OFFCURVE",
"490 33 OFFCURVE",
"418 33 CURVE SMOOTH",
"344 33 LINE SMOOTH",
"275 33 OFFCURVE",
"275 60 OFFCURVE",
"275 119 CURVE SMOOTH",
"275 339 LINE",
"405 339 LINE SMOOTH",
"469 339 OFFCURVE",
"493 312 OFFCURVE",
"501 265 CURVE SMOOTH",
"510 217 LINE",
"532 217 LINE",
"532 494 LINE",
"510 494 LINE",
"502 448 LINE SMOOTH",
"494 400 OFFCURVE",
"470 372 OFFCURVE",
"403 372 CURVE SMOOTH",
"275 372 LINE",
"275 640 LINE",
"408 640 LINE SMOOTH",
"497 640 OFFCURVE",
"558 575 OFFCURVE",
"591 496 CURVE",
"613 496 LINE",
"606 539 OFFCURVE",
"598 577 OFFCURVE",
"598 618 CURVE SMOOTH",
"598 636 OFFCURVE",
"599 654 OFFCURVE",
"603 673 CURVE",
"30 673 LINE",
"30 651 LINE",
"81 640 LINE SMOOTH",
"127 630 OFFCURVE",
"135 623 OFFCURVE",
"135 581 CURVE SMOOTH",
"135 92 LINE SMOOTH",
"135 50 OFFCURVE",
"127 43 OFFCURVE",
"81 33 CURVE SMOOTH",
"30 22 LINE",
"30 0 LINE"
);
}
);
width = 670;
}
);
leftKerningGroup = H;
leftMetricsKey = H;
rightKerningGroup = E;
unicode = 0045;
},
{
glyphname = Eogonek;
lastChange = "2019-09-13 01:17:23 +0000";
layers = (
{
background = {
anchors = (
{
name = _ogonek;
position = "{537, -50}";
},
{
name = topcase;
position = "{368, 690}";
}
);
paths = (
{
closed = 1;
nodes = (
"619 0 LINE",
"620 52 OFFCURVE",
"628 118 OFFCURVE",
"645 180 CURVE",
"626 180 LINE",
"600 129 LINE SMOOTH",
"576 82 OFFCURVE",
"508 25 OFFCURVE",
"426 25 CURVE SMOOTH",
"334 25 LINE SMOOTH",
"270 25 OFFCURVE",
"256 41 OFFCURVE",
"256 90 CURVE SMOOTH",
"256 341 LINE",
"415 341 LINE SMOOTH",
"484 341 OFFCURVE",
"499 319 OFFCURVE",
"510 263 CURVE SMOOTH",
"519 216 LINE",
"537 216 LINE",
"537 494 LINE",
"519 494 LINE",
"510 447 LINE SMOOTH",
"499 391 OFFCURVE",
"484 369 OFFCURVE",
"415 369 CURVE SMOOTH",
"256 369 LINE",
"256 649 LINE",
"430 649 LINE SMOOTH",
"532 649 OFFCURVE",
"569 583 OFFCURVE",
"599 496 CURVE",
"619 496 LINE",
"615 524 OFFCURVE",
"603 568 OFFCURVE",
"603 617 CURVE SMOOTH",
"603 635 OFFCURVE",
"605 654 OFFCURVE",
"609 673 CURVE",
"40 673 LINE",
"40 655 LINE",
"101 644 LINE SMOOTH",
"156 634 OFFCURVE",
"165 627 OFFCURVE",
"165 585 CURVE SMOOTH",
"165 88 LINE SMOOTH",
"165 46 OFFCURVE",
"156 39 OFFCURVE",
"101 29 CURVE SMOOTH",
"40 18 LINE",
"40 0 LINE"
);
},
{
closed = 1;
nodes = (
"556 -225 OFFCURVE",
"605 -198 OFFCURVE",
"644 -158 CURVE",
"632 -144 LINE",
"603 -163 OFFCURVE",
"574 -181 OFFCURVE",
"544 -181 CURVE SMOOTH",
"508 -181 OFFCURVE",
"480 -160 OFFCURVE",
"480 -104 CURVE SMOOTH",
"480 -49 OFFCURVE",
"546 -10 OFFCURVE",
"590 5 CURVE",
"550 12 LINE",
"495 -7 OFFCURVE",
"411 -51 OFFCURVE",
"411 -102 CURVE SMOOTH",
"411 -166 OFFCURVE",
"460 -225 OFFCURVE",
"518 -225 CURVE SMOOTH"
);
}
);
};
components = (
{
name = E;
},
{
name = ogonek;
transform = "{1, 0, 0, 1, 264, 0}";
}
);
layerId = "BD647A82-329A-4004-812E-9CBC2DAE5B44";
width = 685;
},
{
background = {
anchors = (
{
name = _ogonek;
position = "{491, -50}";
},
{
name = topcase;
position = "{344, 690}";
}
);
paths = (
{
closed = 1;
nodes = (
"615 0 LINE",
"615 61 OFFCURVE",
"626 121 OFFCURVE",
"640 180 CURVE",
"618 180 LINE",
"575 120 LINE SMOOTH",
"536 65 OFFCURVE",
"490 33 OFFCURVE",
"418 33 CURVE SMOOTH",
"344 33 LINE SMOOTH",
"275 33 OFFCURVE",
"275 60 OFFCURVE",
"275 119 CURVE SMOOTH",
"275 339 LINE",
"405 339 LINE SMOOTH",
"469 339 OFFCURVE",
"493 312 OFFCURVE",
"501 265 CURVE SMOOTH",
"510 217 LINE",
"532 217 LINE",
"532 494 LINE",
"510 494 LINE",
"502 448 LINE SMOOTH",
"494 400 OFFCURVE",
"470 372 OFFCURVE",
"403 372 CURVE SMOOTH",
"275 372 LINE",
"275 640 LINE",
"408 640 LINE SMOOTH",
"497 640 OFFCURVE",
"558 575 OFFCURVE",
"591 496 CURVE",
"613 496 LINE",
"606 539 OFFCURVE",
"598 577 OFFCURVE",
"598 618 CURVE SMOOTH",
"598 636 OFFCURVE",
"599 654 OFFCURVE",
"603 673 CURVE",
"30 673 LINE",
"30 651 LINE",
"81 640 LINE SMOOTH",
"127 630 OFFCURVE",
"135 623 OFFCURVE",
"135 581 CURVE SMOOTH",
"135 92 LINE SMOOTH",
"135 50 OFFCURVE",
"127 43 OFFCURVE",
"81 33 CURVE SMOOTH",
"30 22 LINE",
"30 0 LINE"
);
},
{
closed = 1;
nodes = (
"556 -225 OFFCURVE",
"604 -197 OFFCURVE",
"642 -156 CURVE",
"623 -134 LINE",
"600 -151 OFFCURVE",
"577 -163 OFFCURVE",
"553 -163 CURVE SMOOTH",
"525 -163 OFFCURVE",
"503 -144 OFFCURVE",
"503 -94 CURVE SMOOTH",
"503 -44 OFFCURVE",
"549 -9 OFFCURVE",
"584 4 CURVE",
"544 11 LINE",
"482 -8 OFFCURVE",
"392 -52 OFFCURVE",
"392 -103 CURVE SMOOTH",
"392 -166 OFFCURVE",
"452 -225 OFFCURVE",
"518 -225 CURVE SMOOTH"
);
}
);
};
components = (
{
name = E;
},
{
name = ogonek;
transform = "{1, 0, 0, 1, 231, -2}";
}
);
guideLines = (
{
angle = 90;
position = "{640, 180}";
}
);
layerId = "3BF888B6-F1E5-4C4E-A417-A1F2F5FF24CA";
width = 670;
}
);
leftKerningGroup = H;
rightKerningGroup = E;
unicode = 0118;
},
{
glyphname = F;
lastChange = "2015-08-06 11:03:12 +0000";
layers = (
{
background = {
paths = (
{
closed = 1;
nodes = (
"165 99 LINE SMOOTH",
"165 40 OFFCURVE",
"165 38 OFFCURVE",
"83 23 CURVE SMOOTH",
"40 15 LINE",
"40 0 LINE",
"380 0 LINE",
"380 15 LINE",
"337 23 LINE SMOOTH",
"255 38 OFFCURVE",
"255 39 OFFCURVE",
"255 98 CURVE SMOOTH",
"255 341 LINE",
"392 341 LINE SMOOTH",
"450 341 OFFCURVE",
"498 341 OFFCURVE",
"513 261 CURVE SMOOTH",
"521 217 LINE",
"536 218 LINE",
"536 494 LINE",
"521 494 LINE",
"513 447 LINE SMOOTH",
"500 369 OFFCURVE",
"454 369 OFFCURVE",
"393 369 CURVE SMOOTH",
"256 369 LINE",
"256 649 LINE",
"443 649 LINE SMOOTH",
"534 649 OFFCURVE",
"583 554 OFFCURVE",
"599 496 CURVE",
"619 496 LINE",
"615 524 OFFCURVE",
"603 568 OFFCURVE",
"603 617 CURVE SMOOTH",
"603 635 OFFCURVE",
"605 654 OFFCURVE",
"609 673 CURVE",
"40 673 LINE",
"40 658 LINE",
"83 650 LINE SMOOTH",
"165 635 OFFCURVE",
"165 633 OFFCURVE",
"165 574 CURVE SMOOTH"
);
}
);
};
guideLines = (
{
position = "{239, 369}";
}
);
layerId = "BD647A82-329A-4004-812E-9CBC2DAE5B44";
paths = (
{
closed = 1;
nodes = (
"385 0 LINE",
"385 18 LINE",
"319 29 LINE SMOOTH",
"264 38 OFFCURVE",
"255 46 OFFCURVE",
"255 88 CURVE SMOOTH",
"255 321 LINE",
"389 321 LINE SMOOTH",
"447 321 OFFCURVE",
"495 321 OFFCURVE",
"510 241 CURVE SMOOTH",
"518 197 LINE",
"536 198 LINE",
"536 474 LINE",
"518 474 LINE",
"510 427 LINE SMOOTH",
"497 349 OFFCURVE",
"451 349 OFFCURVE",
"390 349 CURVE SMOOTH",
"256 349 LINE",
"256 649 LINE",
"443 649 LINE SMOOTH",
"534 649 OFFCURVE",
"583 554 OFFCURVE",
"599 496 CURVE",
"619 496 LINE",
"615 524 OFFCURVE",
"603 568 OFFCURVE",
"603 617 CURVE SMOOTH",
"603 635 OFFCURVE",
"605 654 OFFCURVE",
"609 673 CURVE",
"40 673 LINE",
"40 655 LINE",
"101 644 LINE SMOOTH",
"156 634 OFFCURVE",
"165 627 OFFCURVE",
"165 585 CURVE SMOOTH",
"165 88 LINE SMOOTH",
"165 46 OFFCURVE",
"156 39 OFFCURVE",
"101 29 CURVE SMOOTH",
"40 18 LINE",
"40 0 LINE"
);
}
);
width = 644;
},
{
layerId = "3BF888B6-F1E5-4C4E-A417-A1F2F5FF24CA";
paths = (
{
closed = 1;
nodes = (
"387 0 LINE",
"387 22 LINE",
"329 33 LINE SMOOTH",
"283 42 OFFCURVE",
"275 50 OFFCURVE",
"275 92 CURVE SMOOTH",
"275 319 LINE",
"405 319 LINE SMOOTH",
"469 319 OFFCURVE",
"493 292 OFFCURVE",
"501 245 CURVE SMOOTH",
"510 197 LINE",
"532 197 LINE",
"532 474 LINE",
"510 474 LINE",
"502 428 LINE SMOOTH",
"494 380 OFFCURVE",
"470 352 OFFCURVE",
"403 352 CURVE SMOOTH",
"275 352 LINE",
"275 640 LINE",
"407 640 LINE SMOOTH",
"496 640 OFFCURVE",
"557 575 OFFCURVE",
"590 496 CURVE",
"612 496 LINE",
"605 539 OFFCURVE",
"597 577 OFFCURVE",
"597 618 CURVE SMOOTH",
"597 636 OFFCURVE",
"598 654 OFFCURVE",
"602 673 CURVE",
"30 673 LINE",
"30 651 LINE",
"81 640 LINE SMOOTH",
"127 630 OFFCURVE",
"135 623 OFFCURVE",
"135 581 CURVE SMOOTH",
"135 92 LINE SMOOTH",
"135 50 OFFCURVE",
"127 43 OFFCURVE",
"81 33 CURVE SMOOTH",
"30 22 LINE",
"30 0 LINE"
);
}
);
width = 647;
}
);
leftKerningGroup = H;
leftMetricsKey = H;
unicode = 0046;
},
{
glyphname = G;
lastChange = "2015-08-06 18:33:05 +0000";
layers = (
{
anchors = (
{
name = topcase;
position = "{410, 690}";
}
);
background = {
paths = (
{
closed = 1;
nodes = (
"671 29 LINE",
"671 202 LINE SMOOTH",
"671 261 OFFCURVE",
"671 263 OFFCURVE",
"753 278 CURVE",
"787 286 LINE",
"787 301 LINE",
"450 301 LINE",
"450 286 LINE",
"494 278 LINE SMOOTH",
"576 263 OFFCURVE",
"576 261 OFFCURVE",
"576 202 CURVE SMOOTH",
"576 82 LINE",
"509 25 OFFCURVE",
"438 15 OFFCURVE",
"400 15 CURVE SMOOTH",
"224 15 OFFCURVE",
"142 208 OFFCURVE",
"142 339 CURVE SMOOTH",
"142 488 OFFCURVE",
"253 656 OFFCURVE",
"396 656 CURVE SMOOTH",
"531 656 OFFCURVE",
"628 554 OFFCURVE",
"657 468 CURVE",
"677 468 LINE",
"670 482 OFFCURVE",
"660 547 OFFCURVE",
"660 594 CURVE SMOOTH",
"660 608 OFFCURVE",
"661 630 OFFCURVE",
"664 639 CURVE",
"662 641 LINE",
"657 639 OFFCURVE",
"645 636 OFFCURVE",
"629 636 CURVE SMOOTH",
"559 636 OFFCURVE",
"525 681 OFFCURVE",
"396 681 CURVE SMOOTH",
"213 681 OFFCURVE",
"45 528 OFFCURVE",
"45 337 CURVE SMOOTH",
"45 149 OFFCURVE",
"204 -8 OFFCURVE",
"400 -8 CURVE SMOOTH",
"489 -8 OFFCURVE",
"580 30 OFFCURVE",
"625 30 CURVE SMOOTH",
"640 30 OFFCURVE",
"656 29 OFFCURVE",
"666 26 CURVE"
);
}
);
};
layerId = "BD647A82-329A-4004-812E-9CBC2DAE5B44";
paths = (
{
closed = 1;
nodes = (
"447 -13 OFFCURVE",
"493 -3 OFFCURVE",
"534 7 CURVE SMOOTH",
"571 16 OFFCURVE",
"604 25 OFFCURVE",
"625 25 CURVE SMOOTH",
"640 25 OFFCURVE",
"656 24 OFFCURVE",
"666 21 CURVE",
"671 24 LINE",
"671 215 LINE SMOOTH",
"671 257 OFFCURVE",
"680 264 OFFCURVE",
"735 274 CURVE SMOOTH",
"787 283 LINE",
"787 301 LINE",
"451 301 LINE",
"451 283 LINE",
"512 272 LINE SMOOTH",
"567 262 OFFCURVE",
"576 255 OFFCURVE",
"576 213 CURVE SMOOTH",
"576 77 LINE",
"535 37 OFFCURVE",
"461 11 OFFCURVE",
"400 11 CURVE SMOOTH",
"221 11 OFFCURVE",
"143 194 OFFCURVE",
"143 339 CURVE SMOOTH",
"143 504 OFFCURVE",
"257 656 OFFCURVE",
"403 656 CURVE SMOOTH",
"538 656 OFFCURVE",
"640 553 OFFCURVE",
"672 468 CURVE",
"692 468 LINE",
"685 482 OFFCURVE",
"675 547 OFFCURVE",
"675 594 CURVE SMOOTH",
"675 608 OFFCURVE",
"677 632 OFFCURVE",
"680 641 CURVE",
"678 643 LINE",
"673 641 OFFCURVE",
"656 637 OFFCURVE",
"640 637 CURVE SMOOTH",
"581 637 OFFCURVE",
"532 681 OFFCURVE",
"403 681 CURVE SMOOTH",
"220 681 OFFCURVE",
"45 540 OFFCURVE",
"45 337 CURVE SMOOTH",
"45 138 OFFCURVE",
"192 -13 OFFCURVE",
"400 -13 CURVE SMOOTH"
);
}
);
width = 807;
},
{
anchors = (
{
name = topcase;
position = "{414, 690}";
}
);
background = {
paths = (
{
closed = 1;
nodes = (
"484 -14 OFFCURVE",
"533 -1 OFFCURVE",
"572 11 CURVE SMOOTH",
"604 21 OFFCURVE",
"631 30 OFFCURVE",
"655 30 CURVE SMOOTH",
"678 30 OFFCURVE",
"683 28 OFFCURVE",
"700 24 CURVE",
"703 26 LINE",
"703 217 LINE SMOOTH",
"703 259 OFFCURVE",
"711 268 OFFCURVE",
"757 278 CURVE SMOOTH",
"798 287 LINE",
"798 309 LINE",
"458 309 LINE",
"458 287 LINE",
"509 276 LINE SMOOTH",
"555 266 OFFCURVE",
"563 259 OFFCURVE",
"563 217 CURVE SMOOTH",
"563 63 LINE",
"517 24 OFFCURVE",
"465 21 OFFCURVE",
"434 21 CURVE SMOOTH",
"257 21 OFFCURVE",
"193 160 OFFCURVE",
"193 335 CURVE SMOOTH",
"193 507 OFFCURVE",
"277 646 OFFCURVE",
"421 646 CURVE SMOOTH",
"534 646 OFFCURVE",
"616 581 OFFCURVE",
"658 465 CURVE",
"693 465 LINE",
"693 465 OFFCURVE",
"675 529 OFFCURVE",
"675 591 CURVE SMOOTH",
"675 606 OFFCURVE",
"679 620 OFFCURVE",
"682 634 CURVE",
"678 637 LINE",
"666 634 OFFCURVE",
"657 632 OFFCURVE",
"643 632 CURVE SMOOTH",
"582 632 OFFCURVE",
"556 680 OFFCURVE",
"415 680 CURVE SMOOTH",
"206 680 OFFCURVE",
"40 535 OFFCURVE",
"40 335 CURVE SMOOTH",
"40 111 OFFCURVE",
"227 -14 OFFCURVE",
"419 -14 CURVE SMOOTH"
);
},
{
closed = 1;
nodes = (
"461 -8 OFFCURVE",
"497 1 OFFCURVE",
"529 11 CURVE SMOOTH",
"559 19 OFFCURVE",
"586 28 OFFCURVE",
"623 29 CURVE SMOOTH",
"634 29 LINE",
"635 92 OFFCURVE",
"645 160 OFFCURVE",
"663 224 CURVE",
"631 224 LINE",
"591 114 OFFCURVE",
"517 26 OFFCURVE",
"406 26 CURVE SMOOTH",
"277 26 OFFCURVE",
"193 149 OFFCURVE",
"193 329 CURVE SMOOTH",
"193 524 OFFCURVE",
"287 648 OFFCURVE",
"402 648 CURVE SMOOTH",
"512 648 OFFCURVE",
"579 567 OFFCURVE",
"623 451 CURVE",
"652 451 LINE",
"639 516 OFFCURVE",
"627 580 OFFCURVE",
"641 637 CURVE",
"637 640 LINE",
"625 637 OFFCURVE",
"616 635 OFFCURVE",
"602 635 CURVE SMOOTH",
"575 635 OFFCURVE",
"558 644 OFFCURVE",
"536 655 CURVE SMOOTH",
"508 668 OFFCURVE",
"473 683 OFFCURVE",
"401 683 CURVE SMOOTH",
"193 683 OFFCURVE",
"40 532 OFFCURVE",
"40 329 CURVE SMOOTH",
"40 141 OFFCURVE",
"191 -8 OFFCURVE",
"405 -8 CURVE SMOOTH"
);
}
);
};
layerId = "3BF888B6-F1E5-4C4E-A417-A1F2F5FF24CA";
paths = (
{
closed = 1;
nodes = (
"484 -11 OFFCURVE",
"533 2 OFFCURVE",
"572 14 CURVE SMOOTH",
"604 24 OFFCURVE",
"631 33 OFFCURVE",
"655 33 CURVE SMOOTH",
"678 33 OFFCURVE",
"683 31 OFFCURVE",
"700 27 CURVE",
"703 29 LINE",
"703 219 LINE SMOOTH",
"703 261 OFFCURVE",
"711 270 OFFCURVE",
"757 280 CURVE SMOOTH",
"791 287 LINE",
"791 309 LINE",
"458 309 LINE",
"458 287 LINE",
"509 276 LINE SMOOTH",
"555 266 OFFCURVE",
"563 259 OFFCURVE",
"563 217 CURVE SMOOTH",
"563 66 LINE",
"517 27 OFFCURVE",
"465 24 OFFCURVE",
"434 24 CURVE SMOOTH",
"257 24 OFFCURVE",
"193 163 OFFCURVE",
"193 335 CURVE SMOOTH",
"193 509 OFFCURVE",
"277 649 OFFCURVE",
"421 649 CURVE SMOOTH",
"534 649 OFFCURVE",
"616 584 OFFCURVE",
"658 468 CURVE",
"693 468 LINE",
"693 468 OFFCURVE",
"675 532 OFFCURVE",
"675 594 CURVE SMOOTH",
"675 609 OFFCURVE",
"679 623 OFFCURVE",
"682 637 CURVE",
"678 640 LINE",
"666 637 OFFCURVE",
"657 635 OFFCURVE",
"643 635 CURVE SMOOTH",
"582 635 OFFCURVE",
"556 683 OFFCURVE",
"415 683 CURVE SMOOTH",
"206 683 OFFCURVE",
"40 537 OFFCURVE",
"40 335 CURVE SMOOTH",
"40 114 OFFCURVE",
"227 -11 OFFCURVE",
"419 -11 CURVE SMOOTH"
);
}
);
width = 796;
}
);
leftKerningGroup = O;
leftMetricsKey = O;
rightKerningGroup = G;
unicode = 0047;
},
{
glyphname = H;
lastChange = "2015-08-06 21:14:44 +0000";
layers = (
{
background = {
paths = (
{
closed = 1;
nodes = (
"307 369 LINE",
"255 369 LINE",
"255 574 LINE SMOOTH",
"255 634 OFFCURVE",
"255 635 OFFCURVE",
"337 650 CURVE SMOOTH",
"380 658 LINE",
"380 673 LINE",
"40 673 LINE",
"40 658 LINE",
"83 650 LINE SMOOTH",
"165 635 OFFCURVE",
"165 633 OFFCURVE",
"165 574 CURVE SMOOTH",
"165 98 LINE SMOOTH",
"165 39 OFFCURVE",
"165 38 OFFCURVE",
"83 23 CURVE SMOOTH",
"40 15 LINE",
"40 0 LINE",
"380 0 LINE",
"380 15 LINE",
"337 23 LINE SMOOTH",
"255 38 OFFCURVE",
"255 38 OFFCURVE",
"255 98 CURVE SMOOTH",
"255 341 LINE",
"311 341 LINE"
);
},
{
closed = 1;
nodes = (
"504 369 LINE",
"307 369 LINE",
"311 341 LINE",
"507 341 LINE"
);
},
{
closed = 1;
nodes = (
"507 341 LINE",
"581 341 LINE",
"581 98 LINE SMOOTH",
"581 39 OFFCURVE",
"581 38 OFFCURVE",
"499 23 CURVE SMOOTH",
"456 15 LINE",
"456 0 LINE",
"796 0 LINE",
"796 15 LINE",
"753 23 LINE SMOOTH",
"671 38 OFFCURVE",
"671 38 OFFCURVE",
"671 98 CURVE SMOOTH",
"671 574 LINE SMOOTH",
"671 634 OFFCURVE",
"671 635 OFFCURVE",
"753 650 CURVE SMOOTH",
"796 658 LINE",
"796 673 LINE",
"456 673 LINE",
"456 658 LINE",
"499 650 LINE SMOOTH",
"581 635 OFFCURVE",
"581 633 OFFCURVE",
"581 574 CURVE SMOOTH",
"581 369 LINE",
"504 369 LINE"
);
}
);
};
layerId = "BD647A82-329A-4004-812E-9CBC2DAE5B44";
paths = (
{
closed = 1;
nodes = (
"796 0 LINE",
"796 18 LINE",
"735 29 LINE SMOOTH",
"680 39 OFFCURVE",
"671 46 OFFCURVE",
"671 88 CURVE SMOOTH",
"671 585 LINE SMOOTH",
"671 627 OFFCURVE",
"680 634 OFFCURVE",
"735 644 CURVE SMOOTH",
"796 655 LINE",
"796 673 LINE",
"456 673 LINE",
"456 655 LINE",
"517 644 LINE SMOOTH",
"572 634 OFFCURVE",
"581 627 OFFCURVE",
"581 585 CURVE SMOOTH",
"581 88 LINE SMOOTH",
"581 46 OFFCURVE",
"572 39 OFFCURVE",
"517 29 CURVE SMOOTH",
"456 18 LINE",
"456 0 LINE"
);
},
{
closed = 1;
nodes = (
"380 0 LINE",
"380 18 LINE",
"319 29 LINE SMOOTH",
"264 39 OFFCURVE",
"255 46 OFFCURVE",
"255 88 CURVE SMOOTH",
"255 585 LINE SMOOTH",
"255 627 OFFCURVE",
"264 634 OFFCURVE",
"319 644 CURVE SMOOTH",
"380 655 LINE",
"380 673 LINE",
"40 673 LINE",
"40 655 LINE",
"101 644 LINE SMOOTH",
"156 634 OFFCURVE",
"165 627 OFFCURVE",
"165 585 CURVE SMOOTH",
"165 88 LINE SMOOTH",
"165 46 OFFCURVE",
"156 39 OFFCURVE",
"101 29 CURVE SMOOTH",
"40 18 LINE",
"40 0 LINE"
);
},
{
closed = 1;
nodes = (
"614 341 LINE",
"611 369 LINE",
"226 369 LINE",
"230 341 LINE"
);
}
);
width = 836;
},
{
background = {
paths = (
{
closed = 1;
nodes = (
"740 591 LINE SMOOTH",
"740 624 OFFCURVE",
"745 639 OFFCURVE",
"808 651 CURVE SMOOTH",
"845 658 LINE",
"845 673 LINE",
"499 673 LINE",
"499 658 LINE",
"532 651 LINE SMOOTH",
"601 636 OFFCURVE",
"605 623 OFFCURVE",
"605 585 CURVE SMOOTH",
"605 374 LINE",
"270 374 LINE",
"270 582 LINE SMOOTH",
"270 620 OFFCURVE",
"271 638 OFFCURVE",
"338 651 CURVE SMOOTH",
"375 658 LINE",
"375 673 LINE",
"29 673 LINE",
"29 658 LINE",
"62 651 LINE SMOOTH",
"129 639 OFFCURVE",
"135 619 OFFCURVE",
"135 584 CURVE SMOOTH",
"135 86 LINE SMOOTH",
"135 52 OFFCURVE",
"128 35 OFFCURVE",
"62 22 CURVE SMOOTH",
"31 15 LINE",
"31 0 LINE",
"377 0 LINE",
"377 15 LINE",
"338 22 LINE SMOOTH",
"273 33 OFFCURVE",
"270 47 OFFCURVE",
"270 115 CURVE SMOOTH",
"270 341 LINE",
"605 341 LINE",
"605 85 LINE SMOOTH",
"605 51 OFFCURVE",
"598 37 OFFCURVE",
"532 22 CURVE SMOOTH",
"501 15 LINE",
"501 0 LINE",
"847 0 LINE",
"847 15 LINE",
"808 22 LINE SMOOTH",
"745 32 OFFCURVE",
"740 52 OFFCURVE",
"740 85 CURVE SMOOTH"
);
}
);
};
layerId = "3BF888B6-F1E5-4C4E-A417-A1F2F5FF24CA";
paths = (
{
closed = 1;
nodes = (
"846 0 LINE",
"846 22 LINE",
"795 33 LINE SMOOTH",
"749 43 OFFCURVE",
"741 50 OFFCURVE",
"741 92 CURVE SMOOTH",
"741 581 LINE SMOOTH",
"741 623 OFFCURVE",
"749 630 OFFCURVE",
"795 640 CURVE SMOOTH",
"846 651 LINE",
"846 673 LINE",
"496 673 LINE",
"496 651 LINE",
"547 640 LINE SMOOTH",
"593 630 OFFCURVE",
"601 623 OFFCURVE",
"601 581 CURVE SMOOTH",
"601 92 LINE SMOOTH",
"601 50 OFFCURVE",
"593 43 OFFCURVE",
"547 33 CURVE SMOOTH",
"496 22 LINE",
"496 0 LINE"
);
},
{
closed = 1;
nodes = (
"380 0 LINE",
"380 22 LINE",
"329 33 LINE SMOOTH",
"283 43 OFFCURVE",
"275 50 OFFCURVE",
"275 92 CURVE SMOOTH",
"275 581 LINE SMOOTH",
"275 623 OFFCURVE",
"283 630 OFFCURVE",
"329 640 CURVE SMOOTH",
"380 651 LINE",
"380 673 LINE",
"30 673 LINE",
"30 651 LINE",
"81 640 LINE SMOOTH",
"127 630 OFFCURVE",
"135 623 OFFCURVE",
"135 581 CURVE SMOOTH",
"135 92 LINE SMOOTH",
"135 50 OFFCURVE",
"127 43 OFFCURVE",
"81 33 CURVE SMOOTH",
"30 22 LINE",
"30 0 LINE"
);
},
{
closed = 1;
nodes = (
"641 341 LINE",
"641 374 LINE",
"257 374 LINE",
"257 341 LINE"
);
}
);
width = 876;
}
);
leftKerningGroup = H;
leftMetricsKey = I;
rightKerningGroup = H;
rightMetricsKey = I;
unicode = 0048;
},
{
glyphname = Hbar;
lastChange = "2015-08-27 09:51:02 +0000";
layers = (
{
components = (
{
name = H;
}
);
guideLines = (
{
angle = 90;
position = "{40, 526}";
},
{
angle = 90;
position = "{795, 591}";
}
);
layerId = "BD647A82-329A-4004-812E-9CBC2DAE5B44";
paths = (
{
closed = 1;
nodes = (
"760 490 LINE",
"760 528 LINE",
"75 528 LINE",
"75 490 LINE"
);
}
);
width = 836;
},
{
background = {
components = (
{
name = H;
}
);
paths = (
{
closed = 1;
nodes = (
"75 490 LINE",
"760 490 LINE",
"760 528 LINE",
"75 528 LINE"
);
}
);
};
components = (
{
name = H;
}
);
layerId = "3BF888B6-F1E5-4C4E-A417-A1F2F5FF24CA";
paths = (
{
closed = 1;
nodes = (
"811 478 LINE",
"811 533 LINE",
"65 533 LINE",
"65 478 LINE"
);
}
);
width = 876;
}
);
leftKerningGroup = H;
leftMetricsKey = H;
rightKerningGroup = H;
rightMetricsKey = H;
unicode = 0126;
},
{
glyphname = I;
lastChange = "2019-09-13 00:54:21 +0000";
layers = (
{
anchors = (
{
name = ogonek;
position = "{202, -51}";
},
{
name = topcase;
position = "{210, 690}";
}
);
background = {
paths = (
{
closed = 1;
nodes = (
"165 98 LINE SMOOTH",
"165 39 OFFCURVE",
"165 38 OFFCURVE",
"83 23 CURVE SMOOTH",
"40 15 LINE",
"40 0 LINE",
"380 0 LINE",
"380 15 LINE",
"337 23 LINE SMOOTH",
"255 38 OFFCURVE",
"255 39 OFFCURVE",
"255 98 CURVE SMOOTH",
"255 574 LINE SMOOTH",
"255 633 OFFCURVE",
"255 635 OFFCURVE",
"337 650 CURVE SMOOTH",
"380 658 LINE",
"380 673 LINE",
"40 673 LINE",
"40 658 LINE",
"83 650 LINE SMOOTH",
"165 635 OFFCURVE",
"165 633 OFFCURVE",
"165 574 CURVE SMOOTH"
);
}
);
};
layerId = "BD647A82-329A-4004-812E-9CBC2DAE5B44";
paths = (
{
closed = 1;
nodes = (
"380 0 LINE",
"380 18 LINE",
"319 29 LINE SMOOTH",
"264 39 OFFCURVE",
"255 46 OFFCURVE",
"255 88 CURVE SMOOTH",
"255 585 LINE SMOOTH",
"255 627 OFFCURVE",
"264 634 OFFCURVE",
"319 644 CURVE SMOOTH",
"380 655 LINE",
"380 673 LINE",
"40 673 LINE",
"40 655 LINE",
"101 644 LINE SMOOTH",
"156 634 OFFCURVE",
"165 627 OFFCURVE",
"165 585 CURVE SMOOTH",
"165 88 LINE SMOOTH",
"165 46 OFFCURVE",
"156 39 OFFCURVE",
"101 29 CURVE SMOOTH",
"40 18 LINE",
"40 0 LINE"
);
}
);
width = 420;
},
{
anchors = (
{
name = ogonek;
position = "{175, -52}";
},
{
name = topcase;
position = "{205, 690}";
}
);
layerId = "3BF888B6-F1E5-4C4E-A417-A1F2F5FF24CA";
paths = (
{
closed = 1;
nodes = (
"380 0 LINE",
"380 22 LINE",
"329 33 LINE SMOOTH",
"283 43 OFFCURVE",
"275 50 OFFCURVE",
"275 92 CURVE SMOOTH",
"275 581 LINE SMOOTH",
"275 623 OFFCURVE",
"283 630 OFFCURVE",
"329 640 CURVE SMOOTH",
"380 651 LINE",
"380 673 LINE",
"30 673 LINE",
"30 651 LINE",
"81 640 LINE SMOOTH",
"127 630 OFFCURVE",
"135 623 OFFCURVE",
"135 581 CURVE SMOOTH",
"135 92 LINE SMOOTH",
"135 50 OFFCURVE",
"127 43 OFFCURVE",
"81 33 CURVE SMOOTH",
"30 22 LINE",
"30 0 LINE"
);
}
);
width = 410;
}
);
leftKerningGroup = H;
rightKerningGroup = H;
unicode = 0049;
},
{
glyphname = Iogonek;
lastChange = "2019-09-13 01:17:23 +0000";
layers = (
{
background = {
anchors = (
{
name = _ogonek;
position = "{274, -50}";
},
{
name = topcase;
position = "{210, 690}";
}
);
paths = (
{
closed = 1;
nodes = (
"380 0 LINE",
"380 18 LINE",
"319 29 LINE SMOOTH",
"264 39 OFFCURVE",
"255 46 OFFCURVE",
"255 88 CURVE SMOOTH",
"255 585 LINE SMOOTH",
"255 627 OFFCURVE",
"264 634 OFFCURVE",
"319 644 CURVE SMOOTH",
"380 655 LINE",
"380 673 LINE",
"40 673 LINE",
"40 655 LINE",
"101 644 LINE SMOOTH",
"156 634 OFFCURVE",
"165 627 OFFCURVE",
"165 585 CURVE SMOOTH",
"165 88 LINE SMOOTH",
"165 46 OFFCURVE",
"156 39 OFFCURVE",
"101 29 CURVE SMOOTH",
"40 18 LINE",
"40 0 LINE"
);
},
{
closed = 1;
nodes = (
"293 -225 OFFCURVE",
"342 -198 OFFCURVE",
"381 -158 CURVE",
"369 -144 LINE",
"340 -163 OFFCURVE",
"311 -181 OFFCURVE",
"281 -181 CURVE SMOOTH",
"245 -181 OFFCURVE",
"217 -160 OFFCURVE",
"217 -104 CURVE SMOOTH",
"217 -49 OFFCURVE",
"283 -10 OFFCURVE",
"327 5 CURVE",
"287 12 LINE",
"232 -7 OFFCURVE",
"148 -51 OFFCURVE",
"148 -102 CURVE SMOOTH",
"148 -166 OFFCURVE",
"197 -225 OFFCURVE",
"255 -225 CURVE SMOOTH"
);
}
);
};
components = (
{
name = I;
},
{
name = ogonekcomb;
transform = "{1, 0, 0, 1, -72, 0}";
}
);
layerId = "BD647A82-329A-4004-812E-9CBC2DAE5B44";
width = 420;
},
{
background = {
anchors = (
{
name = _ogonek;
position = "{228, -50}";
},
{
name = topcase;
position = "{205, 690}";
}
);
paths = (
{
closed = 1;
nodes = (
"380 0 LINE",
"380 22 LINE",
"329 33 LINE SMOOTH",
"283 43 OFFCURVE",
"275 50 OFFCURVE",
"275 92 CURVE SMOOTH",
"275 581 LINE SMOOTH",
"275 623 OFFCURVE",
"283 630 OFFCURVE",
"329 640 CURVE SMOOTH",
"380 651 LINE",
"380 673 LINE",
"30 673 LINE",
"30 651 LINE",
"81 640 LINE SMOOTH",
"127 630 OFFCURVE",
"135 623 OFFCURVE",
"135 581 CURVE SMOOTH",
"135 92 LINE SMOOTH",
"135 50 OFFCURVE",
"127 43 OFFCURVE",
"81 33 CURVE SMOOTH",
"30 22 LINE",
"30 0 LINE"
);
},
{
closed = 1;
nodes = (
"293 -225 OFFCURVE",
"341 -197 OFFCURVE",
"379 -156 CURVE",
"360 -134 LINE",
"337 -151 OFFCURVE",
"314 -163 OFFCURVE",
"290 -163 CURVE SMOOTH",
"262 -163 OFFCURVE",
"240 -144 OFFCURVE",
"240 -94 CURVE SMOOTH",
"240 -44 OFFCURVE",
"286 -9 OFFCURVE",
"321 4 CURVE",
"281 11 LINE",
"219 -8 OFFCURVE",
"129 -52 OFFCURVE",
"129 -103 CURVE SMOOTH",
"129 -166 OFFCURVE",
"189 -225 OFFCURVE",
"255 -225 CURVE SMOOTH"
);
}
);
};
components = (
{
name = I;
},
{
name = ogonekcomb;
transform = "{1, 0, 0, 1, -83, -2}";
}
);
layerId = "3BF888B6-F1E5-4C4E-A417-A1F2F5FF24CA";
width = 410;
}
);
leftKerningGroup = H;
rightKerningGroup = H;
unicode = 012E;
},
{
glyphname = J;
lastChange = "2016-03-30 08:39:23 +0000";
layers = (
{
anchors = (
{
name = topcase;
position = "{220, 690}";
}
);
background = {
paths = (
{
closed = 1;
nodes = (
"158 -178 OFFCURVE",
"195 -127 OFFCURVE",
"218 -86 CURVE SMOOTH",
"234 -58 OFFCURVE",
"245 -35 OFFCURVE",
"261 -35 CURVE SMOOTH",
"265 -35 LINE",
"265 585 LINE SMOOTH",
"265 627 OFFCURVE",
"274 634 OFFCURVE",
"329 644 CURVE SMOOTH",
"390 655 LINE",
"390 673 LINE",
"50 673 LINE",
"50 655 LINE",
"111 644 LINE SMOOTH",
"166 634 OFFCURVE",
"175 627 OFFCURVE",
"175 585 CURVE SMOOTH",
"175 -21 LINE SMOOTH",
"175 -120 OFFCURVE",
"132 -154 OFFCURVE",
"77 -154 CURVE SMOOTH",
"47 -154 OFFCURVE",
"23 -140 OFFCURVE",
"23 -129 CURVE SMOOTH",
"23 -128 OFFCURVE",
"24 -127 OFFCURVE",
"29 -127 CURVE SMOOTH",
"56 -127 OFFCURVE",
"75 -101 OFFCURVE",
"75 -75 CURVE SMOOTH",
"75 -47 OFFCURVE",
"57 -19 OFFCURVE",
"21 -19 CURVE SMOOTH",
"-7 -19 OFFCURVE",
"-35 -38 OFFCURVE",
"-35 -77 CURVE SMOOTH",
"-35 -123 OFFCURVE",
"10 -178 OFFCURVE",
"72 -178 CURVE SMOOTH"
);
}
);
};
layerId = "BD647A82-329A-4004-812E-9CBC2DAE5B44";
paths = (
{
closed = 1;
nodes = (
"158 -178 OFFCURVE",
"195 -127 OFFCURVE",
"218 -86 CURVE SMOOTH",
"234 -58 OFFCURVE",
"245 -35 OFFCURVE",
"261 -35 CURVE SMOOTH",
"265 -35 LINE",
"265 585 LINE SMOOTH",
"265 627 OFFCURVE",
"274 634 OFFCURVE",
"329 644 CURVE SMOOTH",
"390 655 LINE",
"390 673 LINE",
"50 673 LINE",
"50 655 LINE",
"111 644 LINE SMOOTH",
"166 634 OFFCURVE",
"175 627 OFFCURVE",
"175 585 CURVE SMOOTH",
"175 -21 LINE SMOOTH",
"175 -120 OFFCURVE",
"132 -154 OFFCURVE",
"77 -154 CURVE SMOOTH",
"47 -154 OFFCURVE",
"23 -140 OFFCURVE",
"23 -129 CURVE SMOOTH",
"23 -128 OFFCURVE",
"24 -127 OFFCURVE",
"29 -127 CURVE SMOOTH",
"56 -127 OFFCURVE",
"75 -101 OFFCURVE",
"75 -75 CURVE SMOOTH",
"75 -47 OFFCURVE",
"57 -19 OFFCURVE",
"21 -19 CURVE SMOOTH",
"-7 -19 OFFCURVE",
"-35 -38 OFFCURVE",
"-35 -77 CURVE SMOOTH",
"-35 -123 OFFCURVE",
"10 -178 OFFCURVE",
"72 -178 CURVE SMOOTH"
);
}
);
width = 415;
},
{
anchors = (
{
name = topcase;
position = "{246, 690}";
}
);
background = {
paths = (
{
closed = 1;
nodes = (
"187 -203 OFFCURVE",
"229 -165 OFFCURVE",
"261 -113 CURVE SMOOTH",
"278 -88 OFFCURVE",
"288 -67 OFFCURVE",
"310 -67 CURVE SMOOTH",
"319 -67 LINE",
"319 581 LINE SMOOTH",
"319 623 OFFCURVE",
"327 630 OFFCURVE",
"373 640 CURVE SMOOTH",
"424 651 LINE",
"424 673 LINE",
"74 673 LINE",
"74 651 LINE",
"125 640 LINE SMOOTH",
"171 630 OFFCURVE",
"179 623 OFFCURVE",
"179 581 CURVE SMOOTH",
"179 -52 LINE SMOOTH",
"179 -137 OFFCURVE",
"140 -166 OFFCURVE",
"90 -166 CURVE SMOOTH",
"66 -166 OFFCURVE",
"47 -156 OFFCURVE",
"47 -149 CURVE SMOOTH",
"47 -146 OFFCURVE",
"50 -144 OFFCURVE",
"54 -144 CURVE SMOOTH",
"89 -144 OFFCURVE",
"115 -112 OFFCURVE",
"115 -80 CURVE SMOOTH",
"115 -45 OFFCURVE",
"95 -11 OFFCURVE",
"44 -11 CURVE SMOOTH",
"4 -11 OFFCURVE",
"-35 -39 OFFCURVE",
"-35 -95 CURVE SMOOTH",
"-35 -143 OFFCURVE",
"21 -203 OFFCURVE",
"94 -203 CURVE SMOOTH"
);
}
);
};
layerId = "3BF888B6-F1E5-4C4E-A417-A1F2F5FF24CA";
paths = (
{
closed = 1;
nodes = (
"187 -203 OFFCURVE",
"229 -165 OFFCURVE",
"261 -113 CURVE SMOOTH",
"278 -88 OFFCURVE",
"288 -67 OFFCURVE",
"310 -67 CURVE SMOOTH",
"319 -67 LINE",
"319 581 LINE SMOOTH",
"319 623 OFFCURVE",
"327 630 OFFCURVE",
"373 640 CURVE SMOOTH",
"424 651 LINE",
"424 673 LINE",
"74 673 LINE",
"74 651 LINE",
"125 640 LINE SMOOTH",
"171 630 OFFCURVE",
"179 623 OFFCURVE",
"179 581 CURVE SMOOTH",
"179 -52 LINE SMOOTH",
"179 -137 OFFCURVE",
"140 -166 OFFCURVE",
"90 -166 CURVE SMOOTH",
"66 -166 OFFCURVE",
"47 -156 OFFCURVE",
"47 -149 CURVE SMOOTH",
"47 -146 OFFCURVE",
"50 -144 OFFCURVE",
"54 -144 CURVE SMOOTH",
"87 -144 OFFCURVE",
"115 -112 OFFCURVE",
"115 -80 CURVE SMOOTH",
"115 -44 OFFCURVE",
"94 -11 OFFCURVE",
"41 -11 CURVE SMOOTH",
"4 -11 OFFCURVE",
"-35 -39 OFFCURVE",
"-35 -95 CURVE SMOOTH",
"-35 -143 OFFCURVE",
"21 -203 OFFCURVE",
"94 -203 CURVE SMOOTH"
);
}
);
width = 444;
}
);
leftKerningGroup = J;
rightKerningGroup = U;
unicode = 004A;
},
{
glyphname = K;
lastChange = "2015-08-06 11:03:42 +0000";
layers = (
{
background = {
paths = (
{
closed = 0;
nodes = (
"569 88 LINE",
"569 46 OFFCURVE",
"560 39 OFFCURVE",
"505 29 CURVE SMOOTH",
"444 18 LINE",
"444 0 LINE",
"784 0 LINE",
"784 18 LINE",
"723 29 LINE SMOOTH",
"668 39 OFFCURVE",
"659 46 OFFCURVE",
"659 88 CURVE SMOOTH"
);
},
{
closed = 1;
nodes = (
"784 0 LINE",
"784 18 LINE",
"751 24 OFFCURVE",
"733 30 OFFCURVE",
"710 55 CURVE SMOOTH",
"399 404 LINE",
"584 564 LINE SMOOTH",
"644 616 OFFCURVE",
"671 634 OFFCURVE",
"722 645 CURVE SMOOTH",
"768 655 LINE",
"768 673 LINE",
"507 673 LINE",
"507 655 LINE",
"548 647 LINE SMOOTH",
"602 636 OFFCURVE",
"608 623 OFFCURVE",
"567 588 CURVE SMOOTH",
"248 305 LINE",
"248 266 LINE",
"322 333 LINE",
"582 51 LINE SMOOTH",
"617 13 OFFCURVE",
"650 0 OFFCURVE",
"706 0 CURVE SMOOTH"
);
},
{
closed = 1;
nodes = (
"380 0 LINE",
"380 18 LINE",
"319 29 LINE SMOOTH",
"264 39 OFFCURVE",
"255 46 OFFCURVE",
"255 88 CURVE SMOOTH",
"255 585 LINE SMOOTH",
"255 627 OFFCURVE",
"264 634 OFFCURVE",
"319 644 CURVE SMOOTH",
"380 655 LINE",
"380 673 LINE",
"40 673 LINE",
"40 655 LINE",
"101 644 LINE SMOOTH",
"156 634 OFFCURVE",
"165 627 OFFCURVE",
"165 585 CURVE SMOOTH",
"165 88 LINE SMOOTH",
"165 46 OFFCURVE",
"156 39 OFFCURVE",
"101 29 CURVE SMOOTH",
"40 18 LINE",
"40 0 LINE"
);
}
);
};
layerId = "BD647A82-329A-4004-812E-9CBC2DAE5B44";
paths = (
{
closed = 1;
nodes = (
"380 0 LINE",
"380 18 LINE",
"319 29 LINE SMOOTH",
"264 39 OFFCURVE",
"255 46 OFFCURVE",
"255 88 CURVE SMOOTH",
"255 272 LINE",
"322 333 LINE",
"582 51 LINE SMOOTH",
"617 13 OFFCURVE",
"650 0 OFFCURVE",
"706 0 CURVE SMOOTH",
"784 0 LINE",
"784 18 LINE",
"751 24 OFFCURVE",
"733 30 OFFCURVE",
"710 55 CURVE SMOOTH",
"399 404 LINE",
"584 564 LINE SMOOTH",
"644 616 OFFCURVE",
"671 634 OFFCURVE",
"722 645 CURVE SMOOTH",
"768 655 LINE",
"768 673 LINE",
"507 673 LINE",
"507 655 LINE",
"548 647 LINE SMOOTH",
"602 636 OFFCURVE",
"608 623 OFFCURVE",
"567 588 CURVE SMOOTH",
"255 311 LINE",
"255 585 LINE SMOOTH",
"255 627 OFFCURVE",
"264 634 OFFCURVE",
"319 644 CURVE SMOOTH",
"380 655 LINE",
"380 673 LINE",
"40 673 LINE",
"40 655 LINE",
"101 644 LINE SMOOTH",
"156 634 OFFCURVE",
"165 627 OFFCURVE",
"165 585 CURVE SMOOTH",
"165 88 LINE SMOOTH",
"165 46 OFFCURVE",
"156 39 OFFCURVE",
"101 29 CURVE SMOOTH",
"40 18 LINE",
"40 0 LINE"
);
}
);
width = 799;
},
{
background = {
paths = (
{
closed = 1;
nodes = (
"380 0 LINE",
"380 22 LINE",
"329 33 LINE SMOOTH",
"283 43 OFFCURVE",
"275 50 OFFCURVE",
"275 92 CURVE SMOOTH",
"275 581 LINE SMOOTH",
"275 623 OFFCURVE",
"283 630 OFFCURVE",
"329 640 CURVE SMOOTH",
"380 651 LINE",
"380 673 LINE",
"30 673 LINE",
"30 651 LINE",
"81 640 LINE SMOOTH",
"127 630 OFFCURVE",
"135 623 OFFCURVE",
"135 581 CURVE SMOOTH",
"135 92 LINE SMOOTH",
"135 50 OFFCURVE",
"127 43 OFFCURVE",
"81 33 CURVE SMOOTH",
"30 22 LINE",
"30 0 LINE"
);
},
{
closed = 1;
nodes = (
"759 0 LINE",
"759 23 LINE",
"723 23 OFFCURVE",
"702 36 OFFCURVE",
"677 64 CURVE SMOOTH",
"403 421 LINE",
"302 324 LINE",
"514 51 LINE",
"549 13 OFFCURVE",
"582 0 OFFCURVE",
"638 0 CURVE SMOOTH"
);
},
{
closed = 1;
nodes = (
"607 582 LINE SMOOTH",
"650 624 OFFCURVE",
"674 635 OFFCURVE",
"713 644 CURVE SMOOTH",
"743 651 LINE",
"743 673 LINE",
"474 673 LINE",
"474 651 LINE",
"553 636 LINE SMOOTH",
"583 631 OFFCURVE",
"581 610 OFFCURVE",
"567 597 CURVE SMOOTH",
"254 295 LINE",
"254 295 OFFCURVE",
"265 254 OFFCURVE",
"265 251 CURVE"
);
}
);
};
layerId = "3BF888B6-F1E5-4C4E-A417-A1F2F5FF24CA";
paths = (
{
closed = 1;
nodes = (
"380 0 LINE",
"380 22 LINE",
"329 33 LINE SMOOTH",
"283 43 OFFCURVE",
"275 50 OFFCURVE",
"275 92 CURVE SMOOTH",
"275 261 LINE",
"318 303 LINE",
"514 51 LINE",
"549 13 OFFCURVE",
"582 0 OFFCURVE",
"638 0 CURVE SMOOTH",
"759 0 LINE",
"759 23 LINE",
"723 23 OFFCURVE",
"702 36 OFFCURVE",
"677 64 CURVE",
"419 400 LINE",
"607 582 LINE SMOOTH",
"650 624 OFFCURVE",
"674 635 OFFCURVE",
"713 644 CURVE SMOOTH",
"743 651 LINE",
"743 673 LINE",
"474 673 LINE",
"474 651 LINE",
"553 636 LINE SMOOTH",
"583 631 OFFCURVE",
"581 610 OFFCURVE",
"567 597 CURVE SMOOTH",
"275 315 LINE",
"275 581 LINE SMOOTH",
"275 623 OFFCURVE",
"283 630 OFFCURVE",
"329 640 CURVE SMOOTH",
"380 651 LINE",
"380 673 LINE",
"30 673 LINE",
"30 651 LINE",
"81 640 LINE SMOOTH",
"127 630 OFFCURVE",
"135 623 OFFCURVE",
"135 581 CURVE SMOOTH",
"135 92 LINE SMOOTH",
"135 50 OFFCURVE",
"127 43 OFFCURVE",
"81 33 CURVE SMOOTH",
"30 22 LINE",
"30 0 LINE"
);
}
);
width = 769;
}
);
leftKerningGroup = H;
leftMetricsKey = H;
rightKerningGroup = K;
unicode = 004B;
},
{
glyphname = L;
lastChange = "2015-08-06 11:03:49 +0000";
layers = (
{
anchors = (
{
name = topcase;
position = "{216, 690}";
}
);
background = {
paths = (
{
closed = 1;
nodes = (
"667 0 LINE",
"667 57 OFFCURVE",
"680 117 OFFCURVE",
"692 173 CURVE",
"692 176 OFFCURVE",
"693 177 OFFCURVE",
"693 180 CURVE",
"674 180 LINE",
"668 167 LINE",
"647 111 OFFCURVE",
"574 25 OFFCURVE",
"480 25 CURVE SMOOTH",
"257 25 OFFCURVE",
"255 11 OFFCURVE",
"255 98 CURVE SMOOTH",
"255 571 LINE SMOOTH",
"255 630 OFFCURVE",
"255 632 OFFCURVE",
"337 647 CURVE SMOOTH",
"380 655 LINE",
"380 673 LINE",
"40 673 LINE",
"40 655 LINE",
"83 647 LINE SMOOTH",
"165 632 OFFCURVE",
"165 630 OFFCURVE",
"165 571 CURVE SMOOTH",
"165 101 LINE SMOOTH",
"165 42 OFFCURVE",
"165 41 OFFCURVE",
"83 26 CURVE SMOOTH",
"40 18 LINE",
"40 0 LINE"
);
}
);
};
layerId = "BD647A82-329A-4004-812E-9CBC2DAE5B44";
paths = (
{
closed = 1;
nodes = (
"668 0 LINE",
"669 52 OFFCURVE",
"677 118 OFFCURVE",
"694 180 CURVE",
"675 180 LINE",
"649 129 LINE SMOOTH",
"625 82 OFFCURVE",
"557 25 OFFCURVE",
"475 25 CURVE SMOOTH",
"334 25 LINE SMOOTH",
"270 25 OFFCURVE",
"255 41 OFFCURVE",
"255 90 CURVE SMOOTH",
"255 585 LINE SMOOTH",
"255 627 OFFCURVE",
"264 634 OFFCURVE",
"319 644 CURVE SMOOTH",
"380 655 LINE",
"380 673 LINE",
"40 673 LINE",
"40 655 LINE",
"101 644 LINE SMOOTH",
"156 634 OFFCURVE",
"165 627 OFFCURVE",
"165 585 CURVE SMOOTH",
"165 88 LINE SMOOTH",
"165 46 OFFCURVE",
"156 39 OFFCURVE",
"101 29 CURVE SMOOTH",
"40 18 LINE",
"40 0 LINE"
);
}
);
width = 704;
},
{
anchors = (
{
name = topcase;
position = "{210, 690}";
}
);
background = {
paths = (
{
closed = 1;
nodes = (
"667 0 LINE",
"667 61 OFFCURVE",
"682 138 OFFCURVE",
"696 197 CURVE",
"674 197 LINE",
"627 120 LINE SMOOTH",
"592 62 OFFCURVE",
"546 33 OFFCURVE",
"470 33 CURVE SMOOTH",
"344 33 LINE SMOOTH",
"275 33 OFFCURVE",
"275 60 OFFCURVE",
"275 119 CURVE SMOOTH",
"275 581 LINE SMOOTH",
"275 623 OFFCURVE",
"283 630 OFFCURVE",
"329 640 CURVE SMOOTH",
"380 651 LINE",
"380 673 LINE",
"30 673 LINE",
"30 651 LINE",
"81 640 LINE SMOOTH",
"127 630 OFFCURVE",
"135 623 OFFCURVE",
"135 581 CURVE SMOOTH",
"135 92 LINE SMOOTH",
"135 50 OFFCURVE",
"127 43 OFFCURVE",
"81 33 CURVE SMOOTH",
"30 22 LINE",
"30 0 LINE"
);
}
);
};
guideLines = (
{
position = "{210, 92}";
}
);
layerId = "3BF888B6-F1E5-4C4E-A417-A1F2F5FF24CA";
paths = (
{
closed = 1;
nodes = (
"667 0 LINE",
"667 61 OFFCURVE",
"682 138 OFFCURVE",
"696 197 CURVE",
"674 197 LINE",
"627 120 LINE SMOOTH",
"592 62 OFFCURVE",
"546 33 OFFCURVE",
"470 33 CURVE SMOOTH",
"344 33 LINE SMOOTH",
"291 33 OFFCURVE",
"275 56 OFFCURVE",
"275 92 CURVE SMOOTH",
"275 581 LINE SMOOTH",
"275 623 OFFCURVE",
"283 630 OFFCURVE",
"329 640 CURVE SMOOTH",
"380 651 LINE",
"380 673 LINE",
"30 673 LINE",
"30 651 LINE",
"81 640 LINE SMOOTH",
"127 630 OFFCURVE",
"135 623 OFFCURVE",
"135 581 CURVE SMOOTH",
"135 92 LINE SMOOTH",
"135 50 OFFCURVE",
"127 43 OFFCURVE",
"81 33 CURVE SMOOTH",
"30 22 LINE",
"30 0 LINE"
);
}
);
width = 701;
}
);
leftKerningGroup = H;
leftMetricsKey = H;
rightKerningGroup = L;
unicode = 004C;
},
{
glyphname = Lcaron;
lastChange = "2015-08-27 09:52:18 +0000";
layers = (
{
components = (
{
name = L;
},
{
name = caroncomb.alt;
transform = "{1, 0, 0, 1, 259, 0}";
}
);
layerId = "BD647A82-329A-4004-812E-9CBC2DAE5B44";
width = 704;
},
{
background = {
components = (
{
name = L;
},
{
name = caroncomb.alt;
transform = "{1, 0, 0, 1, 259, 0}";
}
);
paths = (
{
closed = 1;
nodes = (
"574 643 LINE SMOOTH",
"577 649 OFFCURVE",
"581 656 OFFCURVE",
"581 665 CURVE SMOOTH",
"581 682 OFFCURVE",
"569 699 OFFCURVE",
"546 699 CURVE SMOOTH",
"531 699 OFFCURVE",
"517 688 OFFCURVE",
"514 673 CURVE SMOOTH",
"468 479 LINE",
"492 473 LINE"
);
}
);
};
components = (
{
name = L;
},
{
name = caroncomb.alt;
transform = "{1, 0, 0, 1, 253, 0}";
}
);
layerId = "3BF888B6-F1E5-4C4E-A417-A1F2F5FF24CA";
width = 701;
}
);
leftKerningGroup = H;
rightKerningGroup = L;
unicode = 013D;
},
{
glyphname = Lslash;
lastChange = "2015-08-27 09:53:54 +0000";
layers = (
{
components = (
{
name = L;
}
);
guideLines = (
{
angle = 90;
position = "{40, 338}";
}
);
layerId = "BD647A82-329A-4004-812E-9CBC2DAE5B44";
paths = (
{
closed = 1;
nodes = (
"535 365 LINE",
"535 409 LINE",
"40 252 LINE",
"40 208 LINE"
);
}
);
width = 704;
},
{
background = {
paths = (
{
closed = 1;
nodes = (
"535 373 LINE",
"535 406 LINE",
"40 249 LINE",
"40 216 LINE"
);
}
);
};
components = (
{
name = L;
}
);
guideLines = (
{
angle = 90;
position = "{30, 91}";
}
);
layerId = "3BF888B6-F1E5-4C4E-A417-A1F2F5FF24CA";
paths = (
{
closed = 1;
nodes = (
"563 371 LINE",
"563 428 LINE",
"30 259 LINE",
"30 202 LINE"
);
}
);
width = 701;
}
);
leftKerningGroup = H;
rightKerningGroup = L;
unicode = 0141;
},
{
glyphname = M;
lastChange = "2015-08-06 21:40:30 +0000";
layers = (
{
background = {
paths = (
{
closed = 1;
nodes = (
"708 76 LINE SMOOTH",
"708 33 OFFCURVE",
"713 35 OFFCURVE",
"649 23 CURVE SMOOTH",
"606 15 LINE",
"606 0 LINE",
"926 0 LINE",
"926 15 LINE",
"880 24 LINE SMOOTH",
"808 38 OFFCURVE",
"802 34 OFFCURVE",
"801 91 CURVE SMOOTH",
"787 592 LINE",
"787 595 OFFCURVE",
"787 598 OFFCURVE",
"787 601 CURVE SMOOTH",
"787 617 OFFCURVE",
"792 639 OFFCURVE",
"856 648 CURVE",
"912 658 LINE",
"912 673 LINE",
"708 673 LINE",
"490 152 LINE",
"267 673 LINE",
"75 673 LINE",
"75 658 LINE",
"118 650 LINE SMOOTH",
"144 645 OFFCURVE",
"181 633 OFFCURVE",
"181 590 CURVE SMOOTH",
"171 99 LINE SMOOTH",
"168 35 OFFCURVE",
"167 38 OFFCURVE",
"88 23 CURVE SMOOTH",
"45 15 LINE",
"45 0 LINE",
"324 0 LINE",
"324 15 LINE",
"274 24 LINE SMOOTH",
"208 36 OFFCURVE",
"199 43 OFFCURVE",
"198 76 CURVE",
"211 580 LINE",
"456 -9 LINE",
"463 -9 LINE",
"698 561 LINE"
);
}
);
};
layerId = "BD647A82-329A-4004-812E-9CBC2DAE5B44";
paths = (
{
closed = 1;
nodes = (
"463 -9 LINE",
"698 561 LINE",
"708 65 LINE SMOOTH",
"708 44 OFFCURVE",
"702 36 OFFCURVE",
"676 31 CURVE SMOOTH",
"606 18 LINE",
"606 0 LINE",
"926 0 LINE",
"926 18 LINE",
"865 29 LINE SMOOTH",
"810 39 OFFCURVE",
"802 46 OFFCURVE",
"801 88 CURVE SMOOTH",
"788 578 LINE SMOOTH",
"787 623 OFFCURVE",
"799 636 OFFCURVE",
"852 645 CURVE SMOOTH",
"912 655 LINE",
"912 673 LINE",
"708 673 LINE",
"490 152 LINE",
"267 673 LINE",
"75 673 LINE",
"75 655 LINE",
"117 647 LINE SMOOTH",
"170 636 OFFCURVE",
"183 621 OFFCURVE",
"181 579 CURVE SMOOTH",
"160 89 LINE SMOOTH",
"158 47 OFFCURVE",
"151 41 OFFCURVE",
"96 30 CURVE SMOOTH",
"35 18 LINE",
"35 0 LINE",
"314 0 LINE",
"314 18 LINE",
"252 30 LINE SMOOTH",
"197 41 OFFCURVE",
"186 48 OFFCURVE",
"188 89 CURVE SMOOTH",
"211 580 LINE",
"456 -9 LINE"
);
}
);
width = 961;
},
{
layerId = "3BF888B6-F1E5-4C4E-A417-A1F2F5FF24CA";
paths = (
{
closed = 1;
nodes = (
"468 -6 LINE",
"695 559 LINE",
"717 92 LINE SMOOTH",
"719 50 OFFCURVE",
"709 43 OFFCURVE",
"663 33 CURVE SMOOTH",
"612 22 LINE",
"612 0 LINE",
"962 0 LINE",
"962 22 LINE",
"911 33 LINE SMOOTH",
"865 43 OFFCURVE",
"859 50 OFFCURVE",
"857 92 CURVE SMOOTH",
"837 581 LINE SMOOTH",
"835 623 OFFCURVE",
"845 630 OFFCURVE",
"891 640 CURVE SMOOTH",
"942 651 LINE",
"942 673 LINE",
"700 673 LINE",
"513 209 LINE",
"302 672 LINE",
"67 673 LINE",
"67 651 LINE",
"118 640 LINE SMOOTH",
"164 630 OFFCURVE",
"175 623 OFFCURVE",
"172 581 CURVE SMOOTH",
"142 92 LINE SMOOTH",
"140 56 OFFCURVE",
"124 43 OFFCURVE",
"88 35 CURVE SMOOTH",
"30 22 LINE",
"30 0 LINE",
"305 0 LINE",
"305 22 LINE",
"232 37 LINE SMOOTH",
"196 44 OFFCURVE",
"176 59 OFFCURVE",
"178 92 CURVE SMOOTH",
"207 536 LINE",
"453 -6 LINE"
);
}
);
width = 992;
}
);
unicode = 004D;
},
{
glyphname = N;
lastChange = "2015-08-06 18:42:17 +0000";
layers = (
{
anchors = (
{
name = topcase;
position = "{443, 690}";
}
);
background = {
paths = (
{
closed = 1;
nodes = (
"195 556 LINE",
"716 -12 LINE",
"716 584 LINE SMOOTH",
"716 626 OFFCURVE",
"725 637 OFFCURVE",
"780 647 CURVE SMOOTH",
"841 658 LINE",
"841 673 LINE",
"562 673 LINE",
"562 658 LINE",
"623 647 LINE SMOOTH",
"678 637 OFFCURVE",
"687 623 OFFCURVE",
"687 581 CURVE SMOOTH",
"688 157 LINE",
"211 673 LINE",
"40 673 LINE",
"40 659 LINE",
"87 650 LINE SMOOTH",
"162 636 OFFCURVE",
"166 627 OFFCURVE",
"166 581 CURVE SMOOTH",
"166 89 LINE SMOOTH",
"166 47 OFFCURVE",
"157 36 OFFCURVE",
"102 26 CURVE SMOOTH",
"41 15 LINE",
"41 0 LINE",
"320 0 LINE",
"320 15 LINE",
"259 26 LINE SMOOTH",
"204 36 OFFCURVE",
"195 50 OFFCURVE",
"195 92 CURVE SMOOTH"
);
}
);
};
layerId = "BD647A82-329A-4004-812E-9CBC2DAE5B44";
paths = (
{
closed = 1;
nodes = (
"706 -16 LINE",
"706 581 LINE SMOOTH",
"706 623 OFFCURVE",
"715 634 OFFCURVE",
"770 644 CURVE SMOOTH",
"831 655 LINE",
"831 673 LINE",
"552 673 LINE",
"552 655 LINE",
"613 644 LINE SMOOTH",
"668 634 OFFCURVE",
"677 620 OFFCURVE",
"677 578 CURVE SMOOTH",
"678 153 LINE",
"211 673 LINE",
"40 673 LINE",
"40 656 LINE",
"87 647 LINE SMOOTH",
"162 633 OFFCURVE",
"166 624 OFFCURVE",
"166 578 CURVE SMOOTH",
"166 92 LINE SMOOTH",
"166 50 OFFCURVE",
"157 39 OFFCURVE",
"102 29 CURVE SMOOTH",
"41 18 LINE",
"41 0 LINE",
"320 0 LINE",
"320 18 LINE",
"259 29 LINE SMOOTH",
"204 39 OFFCURVE",
"195 53 OFFCURVE",
"195 95 CURVE SMOOTH",
"195 556 LINE",
"696 -16 LINE"
);
}
);
width = 856;
},
{
anchors = (
{
name = topcase;
position = "{416, 690}";
}
);
background = {
paths = (
{
closed = 1;
nodes = (
"704 -10 LINE",
"704 581 LINE SMOOTH",
"704 617 OFFCURVE",
"722 630 OFFCURVE",
"758 638 CURVE SMOOTH",
"816 651 LINE",
"816 673 LINE",
"541 673 LINE",
"541 651 LINE",
"614 636 LINE SMOOTH",
"650 629 OFFCURVE",
"668 614 OFFCURVE",
"668 581 CURVE SMOOTH",
"668 213 LINE",
"229 673 LINE",
"37 673 LINE",
"37 651 LINE",
"88 640 LINE SMOOTH",
"134 630 OFFCURVE",
"142 623 OFFCURVE",
"142 581 CURVE SMOOTH",
"142 92 LINE SMOOTH",
"142 56 OFFCURVE",
"124 43 OFFCURVE",
"88 35 CURVE SMOOTH",
"30 22 LINE",
"30 0 LINE",
"305 0 LINE",
"305 22 LINE",
"232 37 LINE SMOOTH",
"196 44 OFFCURVE",
"178 59 OFFCURVE",
"178 92 CURVE SMOOTH",
"178 531 LINE",
"697 -10 LINE"
);
}
);
};
layerId = "3BF888B6-F1E5-4C4E-A417-A1F2F5FF24CA";
paths = (
{
closed = 1;
nodes = (
"704 -17 LINE",
"704 581 LINE SMOOTH",
"704 617 OFFCURVE",
"722 630 OFFCURVE",
"758 638 CURVE SMOOTH",
"816 651 LINE",
"816 673 LINE",
"541 673 LINE",
"541 651 LINE",
"614 636 LINE SMOOTH",
"650 629 OFFCURVE",
"668 614 OFFCURVE",
"668 581 CURVE SMOOTH",
"668 211 LINE",
"249 673 LINE",
"37 673 LINE",
"37 651 LINE",
"88 640 LINE SMOOTH",
"134 630 OFFCURVE",
"142 623 OFFCURVE",
"142 581 CURVE SMOOTH",
"142 92 LINE SMOOTH",
"142 56 OFFCURVE",
"124 43 OFFCURVE",
"88 35 CURVE SMOOTH",
"30 22 LINE",
"30 0 LINE",
"305 0 LINE",
"305 22 LINE",
"232 37 LINE SMOOTH",
"196 44 OFFCURVE",
"178 59 OFFCURVE",
"178 92 CURVE SMOOTH",
"178 546 LINE",
"687 -17 LINE"
);
}
);
width = 831;
}
);
leftKerningGroup = H;
leftMetricsKey = H;
rightKerningGroup = N;
rightMetricsKey = "=H-15";
unicode = 004E;
},
{
color = 4;
glyphname = Eng;
lastChange = "2015-08-07 08:51:39 +0000";
layers = (
{
background = {
paths = (
{
closed = 1;
nodes = (
"1064 -118 OFFCURVE",
"1101 -67 OFFCURVE",
"1124 -26 CURVE SMOOTH",
"1140 2 OFFCURVE",
"1151 25 OFFCURVE",
"1167 25 CURVE SMOOTH",
"1171 25 LINE",
"1171 585 LINE SMOOTH",
"1171 627 OFFCURVE",
"1180 634 OFFCURVE",
"1235 644 CURVE SMOOTH",
"1296 655 LINE",
"1296 673 LINE",
"956 673 LINE",
"956 655 LINE",
"1017 644 LINE SMOOTH",
"1072 634 OFFCURVE",
"1081 627 OFFCURVE",
"1081 585 CURVE SMOOTH",
"1081 39 LINE SMOOTH",
"1081 -60 OFFCURVE",
"1038 -94 OFFCURVE",
"983 -94 CURVE SMOOTH",
"953 -94 OFFCURVE",
"929 -80 OFFCURVE",
"929 -69 CURVE SMOOTH",
"929 -68 OFFCURVE",
"930 -67 OFFCURVE",
"935 -67 CURVE SMOOTH",
"962 -67 OFFCURVE",
"981 -41 OFFCURVE",
"981 -15 CURVE SMOOTH",
"981 13 OFFCURVE",
"963 41 OFFCURVE",
"927 41 CURVE SMOOTH",
"899 41 OFFCURVE",
"871 22 OFFCURVE",
"871 -17 CURVE SMOOTH",
"871 -63 OFFCURVE",
"916 -118 OFFCURVE",
"978 -118 CURVE SMOOTH"
);
},
{
closed = 1;
nodes = (
"195 557 LINE",
"195 95 LINE SMOOTH",
"195 53 OFFCURVE",
"204 39 OFFCURVE",
"259 29 CURVE SMOOTH",
"320 18 LINE",
"320 0 LINE",
"41 0 LINE",
"41 18 LINE",
"102 29 LINE SMOOTH",
"157 39 OFFCURVE",
"166 50 OFFCURVE",
"166 92 CURVE SMOOTH",
"166 578 LINE SMOOTH",
"166 624 OFFCURVE",
"162 633 OFFCURVE",
"87 647 CURVE SMOOTH",
"40 656 LINE",
"40 673 LINE",
"209 673 LINE",
"678 170 LINE",
"677 578 LINE SMOOTH",
"677 620 OFFCURVE",
"668 634 OFFCURVE",
"613 644 CURVE SMOOTH",
"552 655 LINE",
"552 673 LINE",
"831 673 LINE",
"831 655 LINE",
"770 644 LINE SMOOTH",
"715 634 OFFCURVE",
"706 623 OFFCURVE",
"706 581 CURVE SMOOTH",
"706 -85 LINE",
"702 -85 LINE SMOOTH",
"686 -85 OFFCURVE",
"675 -108 OFFCURVE",
"659 -136 CURVE SMOOTH",
"636 -177 OFFCURVE",
"608 -228 OFFCURVE",
"522 -228 CURVE SMOOTH",
"460 -228 OFFCURVE",
"415 -173 OFFCURVE",
"415 -127 CURVE SMOOTH",
"415 -88 OFFCURVE",
"443 -69 OFFCURVE",
"471 -69 CURVE SMOOTH",
"507 -69 OFFCURVE",
"525 -97 OFFCURVE",
"525 -125 CURVE SMOOTH",
"525 -151 OFFCURVE",
"506 -177 OFFCURVE",
"479 -177 CURVE SMOOTH",
"474 -177 OFFCURVE",
"473 -178 OFFCURVE",
"473 -179 CURVE SMOOTH",
"473 -190 OFFCURVE",
"497 -204 OFFCURVE",
"527 -204 CURVE SMOOTH",
"587 -204 OFFCURVE",
"648 -145 OFFCURVE",
"649 -46 CURVE SMOOTH",
"650 57 LINE"
);
}
);
};
guideLines = (
{
angle = 90;
position = "{678, 74}";
}
);
layerId = "BD647A82-329A-4004-812E-9CBC2DAE5B44";
paths = (
{
closed = 1;
nodes = (
"632 -228 OFFCURVE",
"661 -199 OFFCURVE",
"678 -173 CURVE SMOOTH",
"690 -154 OFFCURVE",
"693 -143 OFFCURVE",
"706 -143 CURVE",
"706 581 LINE SMOOTH",
"706 623 OFFCURVE",
"715 634 OFFCURVE",
"770 644 CURVE SMOOTH",
"831 655 LINE",
"831 673 LINE",
"552 673 LINE",
"552 655 LINE",
"613 644 LINE SMOOTH",
"668 634 OFFCURVE",
"677 620 OFFCURVE",
"677 578 CURVE",
"678 144 LINE",
"209 673 LINE",
"40 673 LINE",
"40 656 LINE",
"87 647 LINE SMOOTH",
"162 633 OFFCURVE",
"166 624 OFFCURVE",
"166 578 CURVE SMOOTH",
"166 92 LINE SMOOTH",
"166 50 OFFCURVE",
"157 39 OFFCURVE",
"102 29 CURVE SMOOTH",
"41 18 LINE",
"41 0 LINE",
"320 0 LINE",
"320 18 LINE",
"259 29 LINE SMOOTH",
"204 39 OFFCURVE",
"195 53 OFFCURVE",
"195 95 CURVE SMOOTH",
"195 557 LINE",
"676 0 LINE",
"676 -69 LINE SMOOTH",
"676 -152 OFFCURVE",
"649 -204 OFFCURVE",
"584 -204 CURVE SMOOTH",
"554 -204 OFFCURVE",
"534 -190 OFFCURVE",
"534 -179 CURVE SMOOTH",
"534 -178 OFFCURVE",
"535 -177 OFFCURVE",
"540 -177 CURVE SMOOTH",
"567 -177 OFFCURVE",
"586 -151 OFFCURVE",
"586 -125 CURVE SMOOTH",
"586 -97 OFFCURVE",
"568 -69 OFFCURVE",
"532 -69 CURVE SMOOTH",
"504 -69 OFFCURVE",
"476 -88 OFFCURVE",
"476 -127 CURVE SMOOTH",
"476 -173 OFFCURVE",
"521 -228 OFFCURVE",
"583 -228 CURVE SMOOTH"
);
}
);
width = 856;
},
{
layerId = "3BF888B6-F1E5-4C4E-A417-A1F2F5FF24CA";
paths = (
{
closed = 1;
nodes = (
"636 -228 OFFCURVE",
"660 -202 OFFCURVE",
"676 -182 CURVE SMOOTH",
"687 -168 OFFCURVE",
"694 -157 OFFCURVE",
"704 -157 CURVE",
"704 581 LINE SMOOTH",
"704 617 OFFCURVE",
"722 630 OFFCURVE",
"758 638 CURVE SMOOTH",
"816 651 LINE",
"816 673 LINE",
"541 673 LINE",
"541 651 LINE",
"614 636 LINE SMOOTH",
"650 629 OFFCURVE",
"668 614 OFFCURVE",
"668 581 CURVE SMOOTH",
"668 211 LINE",
"249 673 LINE",
"37 673 LINE",
"37 651 LINE",
"88 640 LINE SMOOTH",
"134 630 OFFCURVE",
"142 623 OFFCURVE",
"142 581 CURVE SMOOTH",
"142 92 LINE SMOOTH",
"142 56 OFFCURVE",
"124 43 OFFCURVE",
"88 35 CURVE SMOOTH",
"30 22 LINE",
"30 0 LINE",
"305 0 LINE",
"305 22 LINE",
"232 37 LINE SMOOTH",
"196 44 OFFCURVE",
"178 59 OFFCURVE",
"178 92 CURVE SMOOTH",
"178 546 LINE",
"668 4 LINE",
"668 -77 LINE SMOOTH",
"668 -162 OFFCURVE",
"629 -191 OFFCURVE",
"579 -191 CURVE SMOOTH",
"555 -191 OFFCURVE",
"536 -181 OFFCURVE",
"536 -174 CURVE SMOOTH",
"536 -171 OFFCURVE",
"539 -169 OFFCURVE",
"543 -169 CURVE SMOOTH",
"578 -169 OFFCURVE",
"604 -137 OFFCURVE",
"604 -105 CURVE SMOOTH",
"604 -70 OFFCURVE",
"584 -36 OFFCURVE",
"533 -36 CURVE SMOOTH",
"493 -36 OFFCURVE",
"454 -64 OFFCURVE",
"454 -120 CURVE SMOOTH",
"454 -168 OFFCURVE",
"501 -228 OFFCURVE",
"581 -228 CURVE SMOOTH"
);
}
);
width = 836;
}
);
leftKerningGroup = H;
leftMetricsKey = N;
rightKerningGroup = N;
rightMetricsKey = J;
unicode = 014A;
},
{
glyphname = O;
lastChange = "2016-03-16 12:40:39 +0000";
layers = (
{
anchors = (
{
name = topcase;
position = "{401, 690}";
}
);
background = {
paths = (
{
closed = 1;
nodes = (
"609 -13 OFFCURVE",
"759 138 OFFCURVE",
"759 340 CURVE SMOOTH",
"759 528 OFFCURVE",
"609 681 OFFCURVE",
"401 681 CURVE SMOOTH",
"195 681 OFFCURVE",
"45 530 OFFCURVE",
"45 327 CURVE SMOOTH",
"45 139 OFFCURVE",
"195 -13 OFFCURVE",
"401 -13 CURVE SMOOTH"
);
},
{
closed = 1;
nodes = (
"253 12 OFFCURVE",
"145 154 OFFCURVE",
"145 327 CURVE SMOOTH",
"145 516 OFFCURVE",
"253 656 OFFCURVE",
"401 656 CURVE SMOOTH",
"552 656 OFFCURVE",
"659 514 OFFCURVE",
"659 339 CURVE SMOOTH",
"659 153 OFFCURVE",
"552 12 OFFCURVE",
"401 12 CURVE SMOOTH"
);
}
);
};
layerId = "BD647A82-329A-4004-812E-9CBC2DAE5B44";
paths = (
{
closed = 1;
nodes = (
"609 -13 OFFCURVE",
"759 138 OFFCURVE",
"759 340 CURVE SMOOTH",
"759 528 OFFCURVE",
"609 681 OFFCURVE",
"401 681 CURVE SMOOTH",
"195 681 OFFCURVE",
"45 530 OFFCURVE",
"45 327 CURVE SMOOTH",
"45 139 OFFCURVE",
"195 -13 OFFCURVE",
"401 -13 CURVE SMOOTH"
);
},
{
closed = 1;
nodes = (
"253 14 OFFCURVE",
"145 155 OFFCURVE",
"145 327 CURVE SMOOTH",
"145 515 OFFCURVE",
"253 654 OFFCURVE",
"401 654 CURVE SMOOTH",
"552 654 OFFCURVE",
"659 513 OFFCURVE",
"659 339 CURVE SMOOTH",
"659 154 OFFCURVE",
"552 14 OFFCURVE",
"401 14 CURVE SMOOTH"
);
}
);
width = 804;
},
{
anchors = (
{
name = topcase;
position = "{397, 690}";
}
);
background = {
paths = (
{
closed = 1;
nodes = (
"606 -13 OFFCURVE",
"756 138 OFFCURVE",
"756 340 CURVE SMOOTH",
"756 528 OFFCURVE",
"606 681 OFFCURVE",
"397 681 CURVE SMOOTH",
"190 681 OFFCURVE",
"40 530 OFFCURVE",
"40 327 CURVE SMOOTH",
"40 139 OFFCURVE",
"190 -13 OFFCURVE",
"397 -13 CURVE SMOOTH"
);
},
{
closed = 1;
nodes = (
"271 20 OFFCURVE",
"189 146 OFFCURVE",
"189 327 CURVE SMOOTH",
"189 523 OFFCURVE",
"271 648 OFFCURVE",
"397 648 CURVE SMOOTH",
"526 648 OFFCURVE",
"607 522 OFFCURVE",
"607 339 CURVE SMOOTH",
"607 145 OFFCURVE",
"526 20 OFFCURVE",
"397 20 CURVE SMOOTH"
);
}
);
};
guideLines = (
{
position = "{459, 748}";
}
);
layerId = "3BF888B6-F1E5-4C4E-A417-A1F2F5FF24CA";
paths = (
{
closed = 1;
nodes = (
"606 -11 OFFCURVE",
"756 140 OFFCURVE",
"756 342 CURVE SMOOTH",
"756 530 OFFCURVE",
"606 683 OFFCURVE",
"397 683 CURVE SMOOTH",
"190 683 OFFCURVE",
"40 532 OFFCURVE",
"40 329 CURVE SMOOTH",
"40 141 OFFCURVE",
"190 -11 OFFCURVE",
"397 -11 CURVE SMOOTH"
);
},
{
closed = 1;
nodes = (
"275 24 OFFCURVE",
"193 149 OFFCURVE",
"193 329 CURVE SMOOTH",
"193 524 OFFCURVE",
"275 648 OFFCURVE",
"397 648 CURVE SMOOTH",
"522 648 OFFCURVE",
"603 523 OFFCURVE",
"603 341 CURVE SMOOTH",
"603 148 OFFCURVE",
"522 24 OFFCURVE",
"397 24 CURVE SMOOTH"
);
}
);
width = 796;
}
);
leftKerningGroup = O;
rightKerningGroup = O;
unicode = 004F;
},
{
glyphname = Oslash;
lastChange = "2015-08-27 09:56:24 +0000";
layers = (
{
background = {
paths = (
{
closed = 1;
nodes = (
"38 210 OFFCURVE",
"108 101 OFFCURVE",
"212 41 CURVE",
"188 -7 LINE",
"235 -7 LINE",
"249 22 LINE",
"293 3 OFFCURVE",
"342 -8 OFFCURVE",
"393 -8 CURVE SMOOTH",
"587 -8 OFFCURVE",
"752 145 OFFCURVE",
"752 336 CURVE SMOOTH",
"752 469 OFFCURVE",
"673 583 OFFCURVE",
"560 641 CURVE",
"596 713 LINE",
"550 713 LINE",
"522 657 LINE",
"481 672 OFFCURVE",
"438 681 OFFCURVE",
"393 681 CURVE SMOOTH",
"200 681 OFFCURVE",
"38 528 OFFCURVE",
"38 336 CURVE SMOOTH"
);
},
{
closed = 1;
nodes = (
"653 160 OFFCURVE",
"533 16 OFFCURVE",
"393 16 CURVE SMOOTH",
"346 16 OFFCURVE",
"303 30 OFFCURVE",
"266 55 CURVE",
"539 599 LINE",
"607 541 OFFCURVE",
"653 445 OFFCURVE",
"653 336 CURVE SMOOTH"
);
},
{
closed = 1;
nodes = (
"136 512 OFFCURVE",
"255 656 OFFCURVE",
"393 656 CURVE SMOOTH",
"432 656 OFFCURVE",
"471 644 OFFCURVE",
"505 623 CURVE",
"233 83 LINE",
"173 141 OFFCURVE",
"136 233 OFFCURVE",
"136 336 CURVE SMOOTH"
);
}
);
};
components = (
{
name = O;
}
);
guideLines = (
{
angle = 90;
position = "{758, 271}";
},
{
angle = 90;
position = "{45, 513}";
}
);
layerId = "BD647A82-329A-4004-812E-9CBC2DAE5B44";
paths = (
{
closed = 1;
nodes = (
"758 654 LINE",
"731 681 LINE",
"44 11 LINE",
"71 -16 LINE"
);
}
);
width = 804;
},
{
components = (
{
name = O;
}
);
guideLines = (
{
angle = 90;
position = "{41, 108}";
},
{
angle = 90;
position = "{756, 163}";
}
);
layerId = "3BF888B6-F1E5-4C4E-A417-A1F2F5FF24CA";
paths = (
{
closed = 1;
nodes = (
"757 644 LINE",
"719 684 LINE",
"41 27 LINE",
"79 -13 LINE"
);
}
);
width = 796;
}
);
leftKerningGroup = O;
rightKerningGroup = O;
unicode = 00D8;
},
{
color = 4;
glyphname = OE;
lastChange = "2015-08-07 07:34:24 +0000";
layers = (
{
anchors = (
{
name = topcase;
position = "{750, 690}";
}
);
background = {
paths = (
{
closed = 1;
nodes = (
"-383 145 OFFCURVE",
"-231 -8 OFFCURVE",
"-38 -8 CURVE SMOOTH",
"13 -8 OFFCURVE",
"45 -7 OFFCURVE",
"73 0 CURVE",
"546 0 LINE",
"546 43 OFFCURVE",
"553 77 OFFCURVE",
"558 116 CURVE",
"572 180 LINE",
"553 180 LINE",
"548 170 LINE",
"529 128 OFFCURVE",
"453 25 OFFCURVE",
"348 25 CURVE SMOOTH",
"278 25 LINE SMOOTH",
"186 25 OFFCURVE",
"183 48 OFFCURVE",
"183 107 CURVE SMOOTH",
"183 343 LINE",
"306 343 LINE SMOOTH",
"373 343 OFFCURVE",
"422 343 OFFCURVE",
"437 261 CURVE SMOOTH",
"445 217 LINE",
"460 217 LINE",
"460 494 LINE",
"445 494 LINE",
"437 447 LINE SMOOTH",
"424 369 OFFCURVE",
"380 367 OFFCURVE",
"304 367 CURVE SMOOTH",
"183 367 LINE",
"183 649 LINE",
"368 649 LINE SMOOTH",
"459 649 OFFCURVE",
"507 554 OFFCURVE",
"523 496 CURVE",
"545 496 LINE",
"541 524 OFFCURVE",
"529 568 OFFCURVE",
"529 617 CURVE SMOOTH",
"529 635 OFFCURVE",
"531 654 OFFCURVE",
"535 673 CURVE",
"34 673 LINE",
"11 679 OFFCURVE",
"-13 684 OFFCURVE",
"-38 684 CURVE SMOOTH",
"-231 684 OFFCURVE",
"-383 528 OFFCURVE",
"-383 336 CURVE SMOOTH"
);
},
{
closed = 1;
nodes = (
"-279 512 OFFCURVE",
"-176 659 OFFCURVE",
"-38 659 CURVE",
"66 650 OFFCURVE",
"90 621 OFFCURVE",
"90 564 CURVE SMOOTH",
"90 109 LINE SMOOTH",
"90 56 OFFCURVE",
"83 34 OFFCURVE",
"6 20 CURVE",
"-38 15 LINE",
"-209 20 OFFCURVE",
"-279 189 OFFCURVE",
"-279 336 CURVE SMOOTH"
);
}
);
};
layerId = "BD647A82-329A-4004-812E-9CBC2DAE5B44";
paths = (
{
closed = 1;
nodes = (
"471 -13 OFFCURVE",
"535 4 OFFCURVE",
"589 35 CURVE",
"576 94 LINE",
"531 44 OFFCURVE",
"471 14 OFFCURVE",
"401 14 CURVE SMOOTH",
"253 14 OFFCURVE",
"145 155 OFFCURVE",
"145 327 CURVE SMOOTH",
"145 515 OFFCURVE",
"253 654 OFFCURVE",
"401 654 CURVE SMOOTH",
"477 654 OFFCURVE",
"541 619 OFFCURVE",
"587 561 CURVE",
"598 628 LINE",
"542 661 OFFCURVE",
"475 681 OFFCURVE",
"401 681 CURVE SMOOTH",
"195 681 OFFCURVE",
"45 530 OFFCURVE",
"45 327 CURVE SMOOTH",
"45 139 OFFCURVE",
"195 -13 OFFCURVE",
"401 -13 CURVE SMOOTH"
);
},
{
closed = 1;
nodes = (
"1001 0 LINE",
"1002 52 OFFCURVE",
"1010 118 OFFCURVE",
"1027 180 CURVE",
"1008 180 LINE",
"982 129 LINE SMOOTH",
"958 82 OFFCURVE",
"890 25 OFFCURVE",
"808 25 CURVE SMOOTH",
"716 25 LINE SMOOTH",
"652 25 OFFCURVE",
"638 41 OFFCURVE",
"638 90 CURVE SMOOTH",
"638 341 LINE",
"797 341 LINE SMOOTH",
"866 341 OFFCURVE",
"881 319 OFFCURVE",
"892 263 CURVE SMOOTH",
"901 216 LINE",
"919 216 LINE",
"919 494 LINE",
"901 494 LINE",
"892 447 LINE SMOOTH",
"881 391 OFFCURVE",
"866 369 OFFCURVE",
"797 369 CURVE SMOOTH",
"638 369 LINE",
"638 649 LINE",
"812 649 LINE SMOOTH",
"914 649 OFFCURVE",
"951 583 OFFCURVE",
"981 496 CURVE",
"1001 496 LINE",
"997 524 OFFCURVE",
"985 568 OFFCURVE",
"985 617 CURVE SMOOTH",
"985 635 OFFCURVE",
"987 654 OFFCURVE",
"991 673 CURVE",
"463 674 LINE",
"547 636 LINE",
"546 30 LINE",
"481 0 LINE"
);
}
);
width = 1067;
},
{
anchors = (
{
name = topcase;
position = "{1120, 690}";
}
);
background = {
paths = (
{
closed = 1;
nodes = (
"586 -11 OFFCURVE",
"736 140 OFFCURVE",
"736 342 CURVE SMOOTH",
"736 530 OFFCURVE",
"586 683 OFFCURVE",
"377 683 CURVE SMOOTH",
"170 683 OFFCURVE",
"20 532 OFFCURVE",
"20 329 CURVE SMOOTH",
"20 141 OFFCURVE",
"170 -11 OFFCURVE",
"377 -11 CURVE SMOOTH"
);
},
{
closed = 1;
nodes = (
"255 24 OFFCURVE",
"173 149 OFFCURVE",
"173 329 CURVE SMOOTH",
"173 524 OFFCURVE",
"255 648 OFFCURVE",
"377 648 CURVE SMOOTH",
"502 648 OFFCURVE",
"583 523 OFFCURVE",
"583 341 CURVE SMOOTH",
"583 148 OFFCURVE",
"502 24 OFFCURVE",
"377 24 CURVE SMOOTH"
);
},
{
closed = 1;
nodes = (
"1038 0 LINE",
"1038 61 OFFCURVE",
"1049 121 OFFCURVE",
"1063 180 CURVE",
"1041 180 LINE",
"998 120 LINE SMOOTH",
"959 65 OFFCURVE",
"913 33 OFFCURVE",
"841 33 CURVE SMOOTH",
"767 33 LINE SMOOTH",
"698 33 OFFCURVE",
"698 60 OFFCURVE",
"698 119 CURVE SMOOTH",
"698 339 LINE",
"828 339 LINE SMOOTH",
"892 339 OFFCURVE",
"916 312 OFFCURVE",
"924 265 CURVE SMOOTH",
"933 217 LINE",
"955 217 LINE",
"955 494 LINE",
"933 494 LINE",
"925 448 LINE SMOOTH",
"917 400 OFFCURVE",
"893 372 OFFCURVE",
"826 372 CURVE SMOOTH",
"698 372 LINE",
"698 640 LINE",
"831 640 LINE SMOOTH",
"920 640 OFFCURVE",
"981 575 OFFCURVE",
"1014 496 CURVE",
"1036 496 LINE",
"1029 539 OFFCURVE",
"1021 577 OFFCURVE",
"1021 618 CURVE SMOOTH",
"1021 636 OFFCURVE",
"1022 654 OFFCURVE",
"1026 673 CURVE",
"453 673 LINE",
"453 651 LINE",
"504 640 LINE SMOOTH",
"550 630 OFFCURVE",
"558 623 OFFCURVE",
"558 581 CURVE SMOOTH",
"558 92 LINE SMOOTH",
"558 50 OFFCURVE",
"550 43 OFFCURVE",
"504 33 CURVE SMOOTH",
"453 22 LINE",
"453 0 LINE"
);
}
);
};
layerId = "3BF888B6-F1E5-4C4E-A417-A1F2F5FF24CA";
paths = (
{
closed = 1;
nodes = (
"503 -11 OFFCURVE",
"593 28 OFFCURVE",
"657 92 CURVE",
"595 242 LINE",
"572 106 OFFCURVE",
"499 24 OFFCURVE",
"397 24 CURVE SMOOTH",
"275 24 OFFCURVE",
"193 149 OFFCURVE",
"193 329 CURVE SMOOTH",
"193 524 OFFCURVE",
"275 648 OFFCURVE",
"397 648 CURVE SMOOTH",
"496 648 OFFCURVE",
"567 570 OFFCURVE",
"593 448 CURVE",
"663 575 LINE",
"599 641 OFFCURVE",
"506 683 OFFCURVE",
"397 683 CURVE SMOOTH",
"190 683 OFFCURVE",
"40 532 OFFCURVE",
"40 329 CURVE SMOOTH",
"40 141 OFFCURVE",
"190 -11 OFFCURVE",
"397 -11 CURVE SMOOTH"
);
},
{
closed = 1;
nodes = (
"1038 0 LINE",
"1038 61 OFFCURVE",
"1049 121 OFFCURVE",
"1063 180 CURVE",
"1041 180 LINE",
"998 120 LINE SMOOTH",
"959 65 OFFCURVE",
"913 33 OFFCURVE",
"841 33 CURVE SMOOTH",
"767 33 LINE SMOOTH",
"698 33 OFFCURVE",
"698 60 OFFCURVE",
"698 119 CURVE SMOOTH",
"698 339 LINE",
"828 339 LINE SMOOTH",
"892 339 OFFCURVE",
"916 312 OFFCURVE",
"924 265 CURVE SMOOTH",
"933 217 LINE",
"955 217 LINE",
"955 494 LINE",
"933 494 LINE",
"925 448 LINE SMOOTH",
"917 400 OFFCURVE",
"893 372 OFFCURVE",
"826 372 CURVE SMOOTH",
"698 372 LINE",
"698 640 LINE",
"831 640 LINE SMOOTH",
"920 640 OFFCURVE",
"981 575 OFFCURVE",
"1014 496 CURVE",
"1036 496 LINE",
"1029 539 OFFCURVE",
"1021 577 OFFCURVE",
"1021 618 CURVE SMOOTH",
"1021 636 OFFCURVE",
"1022 654 OFFCURVE",
"1026 673 CURVE",
"453 673 LINE",
"558 623 LINE",
"558 50 LINE",
"453 0 LINE"
);
}
);
width = 1093;
}
);
leftKerningGroup = O;
leftMetricsKey = O;
rightKerningGroup = E;
rightMetricsKey = E;
unicode = 0152;
},
{
glyphname = P;
lastChange = "2015-08-12 15:56:48 +0000";
layers = (
{
background = {
paths = (
{
closed = 1;
nodes = (
"256 649 LINE",
"342 649 LINE SMOOTH",
"453 649 OFFCURVE",
"527 594 OFFCURVE",
"527 486 CURVE SMOOTH",
"527 365 OFFCURVE",
"435 322 OFFCURVE",
"354 317 CURVE",
"353 310 LINE",
"451 283 OFFCURVE",
"630 337 OFFCURVE",
"630 486 CURVE SMOOTH",
"630 575 OFFCURVE",
"543 673 OFFCURVE",
"358 673 CURVE SMOOTH",
"40 673 LINE",
"40 655 LINE",
"85 647 LINE SMOOTH",
"158 634 OFFCURVE",
"166 632 OFFCURVE",
"166 572 CURVE SMOOTH",
"166 88 LINE SMOOTH",
"166 46 OFFCURVE",
"157 39 OFFCURVE",
"102 29 CURVE SMOOTH",
"41 18 LINE",
"41 0 LINE",
"381 0 LINE",
"381 18 LINE",
"320 29 LINE SMOOTH",
"265 39 OFFCURVE",
"256 46 OFFCURVE",
"256 88 CURVE SMOOTH"
);
}
);
};
layerId = "BD647A82-329A-4004-812E-9CBC2DAE5B44";
paths = (
{
closed = 1;
nodes = (
"381 0 LINE",
"381 18 LINE",
"320 29 LINE SMOOTH",
"265 39 OFFCURVE",
"256 46 OFFCURVE",
"256 88 CURVE SMOOTH",
"256 649 LINE",
"342 649 LINE SMOOTH",
"457 649 OFFCURVE",
"527 603 OFFCURVE",
"527 486 CURVE SMOOTH",
"527 365 OFFCURVE",
"447 322 OFFCURVE",
"354 317 CURVE",
"353 310 LINE",
"451 283 OFFCURVE",
"630 337 OFFCURVE",
"630 486 CURVE SMOOTH",
"630 597 OFFCURVE",
"522 673 OFFCURVE",
"358 673 CURVE SMOOTH",
"40 673 LINE",
"40 655 LINE",
"85 647 LINE SMOOTH",
"158 634 OFFCURVE",
"166 632 OFFCURVE",
"166 572 CURVE SMOOTH",
"166 88 LINE SMOOTH",
"166 46 OFFCURVE",
"157 39 OFFCURVE",
"102 29 CURVE SMOOTH",
"41 18 LINE",
"41 0 LINE"
);
}
);
width = 670;
},
{
layerId = "3BF888B6-F1E5-4C4E-A417-A1F2F5FF24CA";
paths = (
{
closed = 1;
nodes = (
"389 0 LINE",
"389 22 LINE",
"329 33 LINE SMOOTH",
"283 41 OFFCURVE",
"275 50 OFFCURVE",
"275 92 CURVE SMOOTH",
"275 640 LINE",
"311 640 LINE SMOOTH",
"424 640 OFFCURVE",
"493 591 OFFCURVE",
"493 464 CURVE SMOOTH",
"493 333 OFFCURVE",
"414 287 OFFCURVE",
"322 281 CURVE",
"323 274 LINE",
"433 244 OFFCURVE",
"633 303 OFFCURVE",
"633 467 CURVE SMOOTH",
"633 589 OFFCURVE",
"525 673 OFFCURVE",
"342 673 CURVE SMOOTH",
"30 673 LINE",
"30 651 LINE",
"81 640 LINE SMOOTH",
"127 630 OFFCURVE",
"135 623 OFFCURVE",
"135 581 CURVE SMOOTH",
"135 92 LINE SMOOTH",
"135 50 OFFCURVE",
"127 43 OFFCURVE",
"81 33 CURVE SMOOTH",
"30 22 LINE",
"30 0 LINE"
);
}
);
width = 658;
}
);
leftKerningGroup = H;
leftMetricsKey = H;
unicode = 0050;
},
{
color = 4;
glyphname = Thorn;
lastChange = "2017-01-02 17:19:26 +0000";
layers = (
{
background = {
paths = (
{
closed = 1;
nodes = (
"258 189 LINE",
"258 194 LINE SMOOTH",
"258 302 OFFCURVE",
"259 408 OFFCURVE",
"259 517 CURVE SMOOTH",
"259 522 LINE",
"288 523 LINE SMOOTH",
"356 525 OFFCURVE",
"460 485 OFFCURVE",
"460 357 CURVE SMOOTH",
"460 270 OFFCURVE",
"406 194 OFFCURVE",
"276 189 CURVE"
);
},
{
closed = 1;
nodes = (
"257 574 LINE",
"257 620 OFFCURVE",
"257 637 OFFCURVE",
"334 650 CURVE SMOOTH",
"383 658 LINE",
"383 673 LINE",
"36 673 LINE",
"36 658 LINE",
"82 650 LINE SMOOTH",
"156 637 OFFCURVE",
"162 625 OFFCURVE",
"162 574 CURVE SMOOTH",
"162 99 LINE SMOOTH",
"162 48 OFFCURVE",
"156 36 OFFCURVE",
"82 23 CURVE SMOOTH",
"36 15 LINE",
"36 0 LINE",
"383 0 LINE",
"383 15 LINE",
"334 23 LINE SMOOTH",
"256 35 OFFCURVE",
"258 52 OFFCURVE",
"257 99 CURVE SMOOTH",
"256 168 LINE",
"294 168 LINE SMOOTH",
"297 168 OFFCURVE",
"301 168 OFFCURVE",
"306 168 CURVE SMOOTH",
"374 168 OFFCURVE",
"555 186 OFFCURVE",
"555 356 CURVE SMOOTH",
"555 363 LINE SMOOTH",
"555 441 OFFCURVE",
"499 544 OFFCURVE",
"294 544 CURVE SMOOTH",
"271 544 OFFCURVE",
"280 543 OFFCURVE",
"259 542 CURVE"
);
}
);
};
layerId = "BD647A82-329A-4004-812E-9CBC2DAE5B44";
paths = (
{
closed = 1;
nodes = (
"380 0 LINE",
"380 18 LINE",
"319 29 LINE SMOOTH",
"264 39 OFFCURVE",
"255 46 OFFCURVE",
"255 88 CURVE SMOOTH",
"255 519 LINE",
"341 519 LINE SMOOTH",
"456 519 OFFCURVE",
"526 473 OFFCURVE",
"526 356 CURVE SMOOTH",
"526 235 OFFCURVE",
"446 192 OFFCURVE",
"353 187 CURVE",
"352 180 LINE",
"450 153 OFFCURVE",
"629 207 OFFCURVE",
"629 356 CURVE SMOOTH",
"629 467 OFFCURVE",
"521 543 OFFCURVE",
"357 543 CURVE SMOOTH",
"255 543 LINE",
"255 585 LINE SMOOTH",
"255 627 OFFCURVE",
"264 634 OFFCURVE",
"319 644 CURVE SMOOTH",
"380 655 LINE",
"380 673 LINE",
"40 673 LINE",
"40 655 LINE",
"101 644 LINE SMOOTH",
"156 634 OFFCURVE",
"165 627 OFFCURVE",
"165 585 CURVE SMOOTH",
"165 88 LINE SMOOTH",
"165 46 OFFCURVE",
"156 39 OFFCURVE",
"101 29 CURVE SMOOTH",
"40 18 LINE",
"40 0 LINE"
);
}
);
width = 659;
},
{
background = {
paths = (
{
closed = 1;
nodes = (
"165 88 LINE SMOOTH",
"165 46 OFFCURVE",
"156 39 OFFCURVE",
"101 29 CURVE SMOOTH",
"40 18 LINE",
"40 0 LINE",
"380 0 LINE",
"380 18 LINE",
"319 29 LINE SMOOTH",
"264 39 OFFCURVE",
"255 46 OFFCURVE",
"255 88 CURVE SMOOTH",
"255 519 LINE",
"341 519 LINE SMOOTH",
"456 519 OFFCURVE",
"526 473 OFFCURVE",
"526 356 CURVE SMOOTH",
"526 235 OFFCURVE",
"446 192 OFFCURVE",
"353 187 CURVE",
"352 180 LINE",
"450 153 OFFCURVE",
"629 207 OFFCURVE",
"629 356 CURVE SMOOTH",
"629 467 OFFCURVE",
"521 543 OFFCURVE",
"357 543 CURVE SMOOTH",
"255 543 LINE",
"255 585 LINE SMOOTH",
"255 627 OFFCURVE",
"264 634 OFFCURVE",
"319 644 CURVE SMOOTH",
"380 655 LINE",
"380 673 LINE",
"40 673 LINE",
"40 655 LINE",
"101 644 LINE SMOOTH",
"156 634 OFFCURVE",
"165 627 OFFCURVE",
"165 585 CURVE SMOOTH"
);
}
);
};
layerId = "3BF888B6-F1E5-4C4E-A417-A1F2F5FF24CA";
paths = (
{
closed = 1;
nodes = (
"389 0 LINE",
"389 22 LINE",
"329 33 LINE SMOOTH",
"283 41 OFFCURVE",
"275 50 OFFCURVE",
"275 92 CURVE SMOOTH",
"275 515 LINE",
"311 515 LINE SMOOTH",
"424 515 OFFCURVE",
"493 466 OFFCURVE",
"493 339 CURVE SMOOTH",
"493 208 OFFCURVE",
"414 162 OFFCURVE",
"322 156 CURVE",
"323 149 LINE",
"433 119 OFFCURVE",
"633 178 OFFCURVE",
"633 342 CURVE SMOOTH",
"633 464 OFFCURVE",
"525 548 OFFCURVE",
"342 548 CURVE SMOOTH",
"275 548 LINE",
"275 581 LINE SMOOTH",
"275 623 OFFCURVE",
"283 630 OFFCURVE",
"329 640 CURVE SMOOTH",
"380 651 LINE",
"380 673 LINE",
"30 673 LINE",
"30 651 LINE",
"81 640 LINE SMOOTH",
"127 630 OFFCURVE",
"135 623 OFFCURVE",
"135 581 CURVE SMOOTH",
"135 92 LINE SMOOTH",
"135 50 OFFCURVE",
"127 43 OFFCURVE",
"81 33 CURVE SMOOTH",
"30 22 LINE",
"30 0 LINE"
);
}
);
width = 648;
}
);
leftKerningGroup = H;
leftMetricsKey = H;
rightMetricsKey = "=P-10";
unicode = 00DE;
},
{
glyphname = Q;
lastChange = "2015-08-06 19:59:06 +0000";
layers = (
{
background = {
paths = (
{
closed = 1;
nodes = (
"369 -7 LINE",
"506 -120 OFFCURVE",
"622 -150 OFFCURVE",
"740 -150 CURVE SMOOTH",
"793 -150 OFFCURVE",
"843 -144 OFFCURVE",
"889 -137 CURVE",
"882 -117 LINE",
"747 -117 OFFCURVE",
"543 -36 OFFCURVE",
"518 9 CURVE"
);
}
);
};
components = (
{
name = O;
}
);
layerId = "BD647A82-329A-4004-812E-9CBC2DAE5B44";
paths = (
{
closed = 1;
nodes = (
"374 -7 LINE",
"511 -120 OFFCURVE",
"630 -150 OFFCURVE",
"748 -150 CURVE SMOOTH",
"801 -150 OFFCURVE",
"844 -146 OFFCURVE",
"889 -137 CURVE",
"883 -121 LINE",
"748 -121 OFFCURVE",
"532 -36 OFFCURVE",
"507 9 CURVE"
);
}
);
width = 804;
},
{
background = {
paths = (
{
closed = 1;
nodes = (
"371 -7 LINE",
"508 -120 OFFCURVE",
"627 -150 OFFCURVE",
"745 -150 CURVE SMOOTH",
"798 -150 OFFCURVE",
"841 -146 OFFCURVE",
"886 -137 CURVE",
"880 -121 LINE",
"745 -121 OFFCURVE",
"529 -36 OFFCURVE",
"504 9 CURVE"
);
},
{
closed = 1;
nodes = (
"606 -13 OFFCURVE",
"756 138 OFFCURVE",
"756 340 CURVE SMOOTH",
"756 528 OFFCURVE",
"606 681 OFFCURVE",
"398 681 CURVE SMOOTH",
"192 681 OFFCURVE",
"42 530 OFFCURVE",
"42 327 CURVE SMOOTH",
"42 139 OFFCURVE",
"192 -13 OFFCURVE",
"398 -13 CURVE SMOOTH"
);
},
{
closed = 1;
nodes = (
"250 14 OFFCURVE",
"142 155 OFFCURVE",
"142 327 CURVE SMOOTH",
"142 515 OFFCURVE",
"250 654 OFFCURVE",
"398 654 CURVE SMOOTH",
"549 654 OFFCURVE",
"656 513 OFFCURVE",
"656 339 CURVE SMOOTH",
"656 154 OFFCURVE",
"549 14 OFFCURVE",
"398 14 CURVE SMOOTH"
);
}
);
};
components = (
{
name = O;
}
);
layerId = "3BF888B6-F1E5-4C4E-A417-A1F2F5FF24CA";
paths = (
{
closed = 1;
nodes = (
"339 -1 LINE",
"443 -105 OFFCURVE",
"573 -150 OFFCURVE",
"725 -150 CURVE SMOOTH",
"786 -150 OFFCURVE",
"836 -145 OFFCURVE",
"885 -135 CURVE",
"878 -115 LINE",
"743 -115 OFFCURVE",
"574 -43 OFFCURVE",
"530 25 CURVE"
);
}
);
width = 799;
}
);
leftKerningGroup = O;
leftMetricsKey = O;
unicode = 0051;
},
{
glyphname = R;
lastChange = "2016-03-16 12:01:12 +0000";
layers = (
{
anchors = (
{
name = topcase;
position = "{344, 690}";
}
);
background = {
paths = (
{
closed = 1;
nodes = (
"727 -13 OFFCURVE",
"745 -10 OFFCURVE",
"760 -5 CURVE",
"760 13 LINE",
"701 13 OFFCURVE",
"660 84 OFFCURVE",
"608 159 CURVE SMOOTH",
"554 238 OFFCURVE",
"511 318 OFFCURVE",
"419 318 CURVE",
"419 321 LINE",
"517 332 OFFCURVE",
"601 394 OFFCURVE",
"601 487 CURVE SMOOTH",
"601 600 OFFCURVE",
"500 673 OFFCURVE",
"320 673 CURVE SMOOTH",
"40 673 LINE",
"40 655 LINE",
"101 644 LINE SMOOTH",
"156 634 OFFCURVE",
"165 627 OFFCURVE",
"165 585 CURVE SMOOTH",
"165 88 LINE SMOOTH",
"165 46 OFFCURVE",
"156 39 OFFCURVE",
"101 29 CURVE SMOOTH",
"40 18 LINE",
"40 0 LINE",
"380 0 LINE",
"380 18 LINE",
"319 29 LINE SMOOTH",
"264 39 OFFCURVE",
"255 46 OFFCURVE",
"255 88 CURVE SMOOTH",
"255 301 LINE",
"291 301 LINE SMOOTH",
"404 301 OFFCURVE",
"445 220 OFFCURVE",
"506 140 CURVE SMOOTH",
"565 63 OFFCURVE",
"607 -13 OFFCURVE",
"709 -13 CURVE SMOOTH"
);
},
{
closed = 1;
nodes = (
"255 329 LINE",
"255 650 LINE",
"307 650 LINE SMOOTH",
"428 650 OFFCURVE",
"503 592 OFFCURVE",
"503 483 CURVE SMOOTH",
"503 389 OFFCURVE",
"437 329 OFFCURVE",
"320 329 CURVE SMOOTH"
);
}
);
};
layerId = "BD647A82-329A-4004-812E-9CBC2DAE5B44";
paths = (
{
closed = 1;
nodes = (
"736 -13 OFFCURVE",
"754 -10 OFFCURVE",
"769 -5 CURVE",
"769 13 LINE",
"710 13 OFFCURVE",
"659 84 OFFCURVE",
"607 159 CURVE SMOOTH",
"553 238 OFFCURVE",
"511 318 OFFCURVE",
"419 318 CURVE",
"419 321 LINE",
"517 332 OFFCURVE",
"601 394 OFFCURVE",
"601 487 CURVE SMOOTH",
"601 600 OFFCURVE",
"500 673 OFFCURVE",
"320 673 CURVE SMOOTH",
"40 673 LINE",
"40 655 LINE",
"101 644 LINE SMOOTH",
"156 634 OFFCURVE",
"165 627 OFFCURVE",
"165 585 CURVE SMOOTH",
"165 88 LINE SMOOTH",
"165 46 OFFCURVE",
"156 39 OFFCURVE",
"101 29 CURVE SMOOTH",
"40 18 LINE",
"40 0 LINE",
"380 0 LINE",
"380 18 LINE",
"319 29 LINE SMOOTH",
"264 39 OFFCURVE",
"255 46 OFFCURVE",
"255 88 CURVE SMOOTH",
"255 301 LINE",
"291 301 LINE SMOOTH",
"404 301 OFFCURVE",
"444 220 OFFCURVE",
"505 140 CURVE SMOOTH",
"564 63 OFFCURVE",
"616 -13 OFFCURVE",
"718 -13 CURVE SMOOTH"
);
},
{
closed = 1;
nodes = (
"255 650 LINE",
"307 650 LINE SMOOTH",
"428 650 OFFCURVE",
"503 592 OFFCURVE",
"503 483 CURVE SMOOTH",
"503 389 OFFCURVE",
"437 329 OFFCURVE",
"320 329 CURVE SMOOTH",
"255 329 LINE"
);
}
);
width = 774;
},
{
anchors = (
{
name = topcase;
position = "{339, 690}";
}
);
background = {
paths = (
{
closed = 1;
nodes = (
"762 -13 OFFCURVE",
"780 -10 OFFCURVE",
"795 -5 CURVE",
"795 13 LINE",
"736 13 OFFCURVE",
"685 84 OFFCURVE",
"633 159 CURVE SMOOTH",
"579 238 OFFCURVE",
"537 318 OFFCURVE",
"445 318 CURVE",
"445 321 LINE",
"543 332 OFFCURVE",
"627 394 OFFCURVE",
"627 487 CURVE SMOOTH",
"627 600 OFFCURVE",
"526 673 OFFCURVE",
"346 673 CURVE SMOOTH",
"66 673 LINE",
"66 655 LINE",
"127 644 LINE SMOOTH",
"182 634 OFFCURVE",
"191 627 OFFCURVE",
"191 585 CURVE SMOOTH",
"191 88 LINE SMOOTH",
"191 46 OFFCURVE",
"182 39 OFFCURVE",
"127 29 CURVE SMOOTH",
"66 18 LINE",
"66 0 LINE",
"406 0 LINE",
"406 18 LINE",
"345 29 LINE SMOOTH",
"290 39 OFFCURVE",
"281 46 OFFCURVE",
"281 88 CURVE SMOOTH",
"281 301 LINE",
"317 301 LINE SMOOTH",
"430 301 OFFCURVE",
"470 220 OFFCURVE",
"531 140 CURVE SMOOTH",
"590 63 OFFCURVE",
"642 -13 OFFCURVE",
"744 -13 CURVE SMOOTH"
);
},
{
closed = 1;
nodes = (
"281 650 LINE",
"333 650 LINE SMOOTH",
"454 650 OFFCURVE",
"529 592 OFFCURVE",
"529 483 CURVE SMOOTH",
"529 389 OFFCURVE",
"463 329 OFFCURVE",
"346 329 CURVE SMOOTH",
"281 329 LINE"
);
}
);
};
layerId = "3BF888B6-F1E5-4C4E-A417-A1F2F5FF24CA";
paths = (
{
closed = 1;
nodes = (
"733 -15 OFFCURVE",
"759 -12 OFFCURVE",
"787 -5 CURVE",
"787 19 LINE",
"728 19 OFFCURVE",
"677 84 OFFCURVE",
"625 159 CURVE SMOOTH",
"572 236 OFFCURVE",
"514 310 OFFCURVE",
"422 314 CURVE",
"422 316 LINE",
"534 327 OFFCURVE",
"629 396 OFFCURVE",
"629 489 CURVE SMOOTH",
"629 606 OFFCURVE",
"510 673 OFFCURVE",
"310 673 CURVE SMOOTH",
"30 673 LINE",
"30 651 LINE",
"81 640 LINE SMOOTH",
"127 630 OFFCURVE",
"135 623 OFFCURVE",
"135 581 CURVE SMOOTH",
"135 92 LINE SMOOTH",
"135 50 OFFCURVE",
"127 43 OFFCURVE",
"81 33 CURVE SMOOTH",
"30 22 LINE",
"30 0 LINE",
"380 0 LINE",
"380 22 LINE",
"329 33 LINE SMOOTH",
"283 43 OFFCURVE",
"275 50 OFFCURVE",
"275 92 CURVE SMOOTH",
"275 294 LINE",
"298 294 LINE SMOOTH",
"386 294 OFFCURVE",
"431 209 OFFCURVE",
"482 134 CURVE SMOOTH",
"554 27 OFFCURVE",
"623 -15 OFFCURVE",
"708 -15 CURVE SMOOTH"
);
},
{
closed = 1;
nodes = (
"275 640 LINE",
"297 640 LINE SMOOTH",
"418 640 OFFCURVE",
"487 584 OFFCURVE",
"487 479 CURVE SMOOTH",
"487 375 OFFCURVE",
"406 327 OFFCURVE",
"310 327 CURVE SMOOTH",
"275 327 LINE"
);
}
);
width = 792;
}
);
leftKerningGroup = H;
leftMetricsKey = H;
rightKerningGroup = R;
unicode = 0052;
},
{
glyphname = S;
lastChange = "2015-08-06 19:59:12 +0000";
layers = (
{
anchors = (
{
name = topcase;
position = "{286, 690}";
}
);
background = {
paths = (
{
closed = 1;
nodes = (
"424 -8 OFFCURVE",
"517 78 OFFCURVE",
"517 188 CURVE SMOOTH",
"517 287 OFFCURVE",
"468 337 OFFCURVE",
"320 388 CURVE SMOOTH",
"178 437 OFFCURVE",
"150 462 OFFCURVE",
"150 539 CURVE SMOOTH",
"150 616 OFFCURVE",
"213 660 OFFCURVE",
"279 660 CURVE SMOOTH",
"387 660 OFFCURVE",
"426 576 OFFCURVE",
"464 472 CURVE",
"484 472 LINE",
"474 511 OFFCURVE",
"467 552 OFFCURVE",
"467 594 CURVE SMOOTH",
"467 610 OFFCURVE",
"468 626 OFFCURVE",
"470 643 CURVE",
"466 646 LINE",
"441 641 LINE",
"422 641 OFFCURVE",
"404 650 OFFCURVE",
"384 660 CURVE SMOOTH",
"359 672 OFFCURVE",
"331 685 OFFCURVE",
"290 685 CURVE SMOOTH",
"147 685 OFFCURVE",
"75 595 OFFCURVE",
"75 494 CURVE SMOOTH",
"75 391 OFFCURVE",
"142 344 OFFCURVE",
"261 303 CURVE SMOOTH",
"406 252 OFFCURVE",
"443 222 OFFCURVE",
"443 145 CURVE SMOOTH",
"443 61 OFFCURVE",
"367 16 OFFCURVE",
"288 16 CURVE SMOOTH",
"154 16 OFFCURVE",
"86 111 OFFCURVE",
"79 235 CURVE",
"50 235 LINE",
"66 172 OFFCURVE",
"65 111 OFFCURVE",
"55 53 CURVE",
"100 29 OFFCURVE",
"179 -8 OFFCURVE",
"288 -8 CURVE SMOOTH"
);
}
);
};
layerId = "BD647A82-329A-4004-812E-9CBC2DAE5B44";
paths = (
{
closed = 1;
nodes = (
"424 -8 OFFCURVE",
"517 78 OFFCURVE",
"517 188 CURVE SMOOTH",
"517 287 OFFCURVE",
"468 337 OFFCURVE",
"320 388 CURVE SMOOTH",
"178 437 OFFCURVE",
"150 462 OFFCURVE",
"150 539 CURVE SMOOTH",
"150 616 OFFCURVE",
"211 660 OFFCURVE",
"277 660 CURVE SMOOTH",
"381 660 OFFCURVE",
"421 576 OFFCURVE",
"462 472 CURVE",
"484 472 LINE",
"474 511 OFFCURVE",
"467 552 OFFCURVE",
"467 594 CURVE SMOOTH",
"467 610 OFFCURVE",
"468 626 OFFCURVE",
"470 643 CURVE",
"466 646 LINE",
"441 641 LINE",
"422 641 OFFCURVE",
"404 650 OFFCURVE",
"384 660 CURVE SMOOTH",
"359 672 OFFCURVE",
"331 685 OFFCURVE",
"290 685 CURVE SMOOTH",
"147 685 OFFCURVE",
"75 595 OFFCURVE",
"75 494 CURVE SMOOTH",
"75 391 OFFCURVE",
"142 344 OFFCURVE",
"261 303 CURVE SMOOTH",
"406 252 OFFCURVE",
"443 222 OFFCURVE",
"443 145 CURVE SMOOTH",
"443 69 OFFCURVE",
"380 16 OFFCURVE",
"294 16 CURVE SMOOTH",
"166 16 OFFCURVE",
"95 111 OFFCURVE",
"79 235 CURVE",
"50 235 LINE",
"66 172 OFFCURVE",
"65 111 OFFCURVE",
"55 53 CURVE",
"100 29 OFFCURVE",
"179 -8 OFFCURVE",
"288 -8 CURVE SMOOTH"
);
}
);
width = 567;
},
{
anchors = (
{
name = topcase;
position = "{291, 690}";
}
);
background = {
anchors = (
{
name = topcase;
position = "{291, 690}";
}
);
paths = (
{
closed = 1;
nodes = (
"437 -11 OFFCURVE",
"528 70 OFFCURVE",
"528 196 CURVE SMOOTH",
"528 296 OFFCURVE",
"481 349 OFFCURVE",
"335 398 CURVE SMOOTH",
"196 444 OFFCURVE",
"167 466 OFFCURVE",
"167 536 CURVE SMOOTH",
"167 592 OFFCURVE",
"210 650 OFFCURVE",
"289 650 CURVE SMOOTH",
"376 650 OFFCURVE",
"453 576 OFFCURVE",
"479 467 CURVE",
"501 467 LINE",
"501 467 OFFCURVE",
"483 531 OFFCURVE",
"483 594 CURVE SMOOTH",
"483 610 OFFCURVE",
"484 630 OFFCURVE",
"487 644 CURVE",
"484 646 LINE",
"452 640 LINE",
"435 640 OFFCURVE",
"420 649 OFFCURVE",
"400 658 CURVE SMOOTH",
"376 670 OFFCURVE",
"344 683 OFFCURVE",
"291 683 CURVE SMOOTH",
"144 683 OFFCURVE",
"66 590 OFFCURVE",
"66 487 CURVE SMOOTH",
"66 380 OFFCURVE",
"132 330 OFFCURVE",
"253 289 CURVE SMOOTH",
"397 240 OFFCURVE",
"435 212 OFFCURVE",
"435 139 CURVE SMOOTH",
"435 54 OFFCURVE",
"359 22 OFFCURVE",
"301 22 CURVE SMOOTH",
"167 22 OFFCURVE",
"86 112 OFFCURVE",
"79 236 CURVE",
"50 236 LINE",
"66 173 OFFCURVE",
"66 108 OFFCURVE",
"55 50 CURVE",
"103 26 OFFCURVE",
"186 -11 OFFCURVE",
"301 -11 CURVE SMOOTH"
);
}
);
};
layerId = "3BF888B6-F1E5-4C4E-A417-A1F2F5FF24CA";
paths = (
{
closed = 1;
nodes = (
"437 -11 OFFCURVE",
"528 70 OFFCURVE",
"528 196 CURVE SMOOTH",
"528 296 OFFCURVE",
"481 349 OFFCURVE",
"335 398 CURVE SMOOTH",
"196 444 OFFCURVE",
"167 466 OFFCURVE",
"167 536 CURVE SMOOTH",
"167 592 OFFCURVE",
"210 650 OFFCURVE",
"289 650 CURVE SMOOTH",
"374 650 OFFCURVE",
"443 582 OFFCURVE",
"474 467 CURVE",
"501 467 LINE",
"501 467 OFFCURVE",
"483 531 OFFCURVE",
"483 594 CURVE SMOOTH",
"483 610 OFFCURVE",
"484 630 OFFCURVE",
"487 644 CURVE",
"484 646 LINE",
"452 640 LINE",
"435 640 OFFCURVE",
"420 649 OFFCURVE",
"400 658 CURVE SMOOTH",
"376 670 OFFCURVE",
"344 683 OFFCURVE",
"291 683 CURVE SMOOTH",
"144 683 OFFCURVE",
"66 590 OFFCURVE",
"66 487 CURVE SMOOTH",
"66 380 OFFCURVE",
"132 330 OFFCURVE",
"253 289 CURVE SMOOTH",
"397 240 OFFCURVE",
"435 212 OFFCURVE",
"435 139 CURVE SMOOTH",
"435 54 OFFCURVE",
"359 22 OFFCURVE",
"301 22 CURVE SMOOTH",
"171 22 OFFCURVE",
"95 112 OFFCURVE",
"85 236 CURVE",
"50 236 LINE",
"66 173 OFFCURVE",
"66 108 OFFCURVE",
"55 50 CURVE",
"103 26 OFFCURVE",
"186 -11 OFFCURVE",
"301 -11 CURVE SMOOTH"
);
}
);
width = 583;
}
);
leftKerningGroup = S;
rightKerningGroup = S;
unicode = 0053;
},
{
glyphname = T;
lastChange = "2016-03-16 12:41:25 +0000";
layers = (
{
anchors = (
{
name = topcase;
position = "{347, 690}";
}
);
background = {
paths = (
{
closed = 1;
nodes = (
"392 649 LINE",
"499 649 LINE SMOOTH",
"592 649 OFFCURVE",
"645 550 OFFCURVE",
"658 496 CURVE",
"679 496 LINE",
"668 531 OFFCURVE",
"663 570 OFFCURVE",
"663 609 CURVE SMOOTH",
"663 631 OFFCURVE",
"664 652 OFFCURVE",
"668 673 CURVE",
"25 673 LINE",
"28 653 OFFCURVE",
"30 634 OFFCURVE",
"30 617 CURVE SMOOTH",
"30 573 OFFCURVE",
"21 536 OFFCURVE",
"15 496 CURVE",
"36 496 LINE",
"44 539 OFFCURVE",
"97 649 OFFCURVE",
"190 649 CURVE SMOOTH",
"302 649 LINE",
"302 85 LINE SMOOTH",
"302 43 OFFCURVE",
"293 36 OFFCURVE",
"238 26 CURVE SMOOTH",
"177 15 LINE",
"177 0 LINE",
"517 0 LINE",
"517 15 LINE",
"456 26 LINE SMOOTH",
"401 36 OFFCURVE",
"392 43 OFFCURVE",
"392 85 CURVE SMOOTH"
);
}
);
};
layerId = "BD647A82-329A-4004-812E-9CBC2DAE5B44";
paths = (
{
closed = 1;
nodes = (
"517 0 LINE",
"517 18 LINE",
"456 29 LINE SMOOTH",
"401 39 OFFCURVE",
"392 46 OFFCURVE",
"392 88 CURVE SMOOTH",
"392 649 LINE",
"487 649 LINE",
"585 649 OFFCURVE",
"633 581 OFFCURVE",
"658 496 CURVE",
"679 496 LINE",
"665 573 OFFCURVE",
"660 617 OFFCURVE",
"668 673 CURVE",
"25 673 LINE",
"33 617 OFFCURVE",
"29 573 OFFCURVE",
"15 496 CURVE",
"36 496 LINE",
"61 581 OFFCURVE",
"109 649 OFFCURVE",
"207 649 CURVE SMOOTH",
"302 649 LINE",
"302 88 LINE SMOOTH",
"302 46 OFFCURVE",
"293 39 OFFCURVE",
"238 29 CURVE SMOOTH",
"177 18 LINE",
"177 0 LINE"
);
}
);
width = 694;
},
{
anchors = (
{
name = topcase;
position = "{344, 690}";
}
);
background = {
paths = (
{
closed = 1;
nodes = (
"39 673 LINE",
"47 617 OFFCURVE",
"43 573 OFFCURVE",
"29 496 CURVE",
"50 496 LINE",
"75 581 OFFCURVE",
"123 649 OFFCURVE",
"221 649 CURVE SMOOTH",
"316 649 LINE",
"316 88 LINE SMOOTH",
"316 46 OFFCURVE",
"307 39 OFFCURVE",
"252 29 CURVE SMOOTH",
"191 18 LINE",
"191 0 LINE",
"531 0 LINE",
"531 18 LINE",
"470 29 LINE SMOOTH",
"415 39 OFFCURVE",
"406 46 OFFCURVE",
"406 88 CURVE SMOOTH",
"406 649 LINE",
"501 649 LINE",
"599 649 OFFCURVE",
"647 581 OFFCURVE",
"672 496 CURVE",
"693 496 LINE",
"679 573 OFFCURVE",
"674 617 OFFCURVE",
"682 673 CURVE"
);
},
{
closed = 1;
nodes = (
"527 0 LINE",
"527 22 LINE",
"476 33 LINE SMOOTH",
"430 43 OFFCURVE",
"422 50 OFFCURVE",
"422 92 CURVE SMOOTH",
"422 640 LINE",
"495 640 LINE SMOOTH",
"582 640 OFFCURVE",
"645 574 OFFCURVE",
"667 486 CURVE",
"694 486 LINE",
"683 540 OFFCURVE",
"672 613 OFFCURVE",
"682 673 CURVE",
"22 673 LINE",
"32 613 OFFCURVE",
"21 540 OFFCURVE",
"10 486 CURVE",
"37 486 LINE",
"59 574 OFFCURVE",
"122 640 OFFCURVE",
"209 640 CURVE",
"282 640 LINE",
"282 92 LINE SMOOTH",
"282 50 OFFCURVE",
"274 43 OFFCURVE",
"228 33 CURVE SMOOTH",
"177 22 LINE",
"177 0 LINE"
);
}
);
};
layerId = "3BF888B6-F1E5-4C4E-A417-A1F2F5FF24CA";
paths = (
{
closed = 1;
nodes = (
"527 0 LINE",
"527 22 LINE",
"476 33 LINE SMOOTH",
"430 43 OFFCURVE",
"422 50 OFFCURVE",
"422 92 CURVE SMOOTH",
"422 640 LINE",
"495 640 LINE SMOOTH",
"582 640 OFFCURVE",
"645 564 OFFCURVE",
"667 476 CURVE",
"694 476 LINE",
"683 530 OFFCURVE",
"672 613 OFFCURVE",
"682 673 CURVE",
"22 673 LINE",
"32 613 OFFCURVE",
"21 530 OFFCURVE",
"10 476 CURVE",
"37 476 LINE",
"59 564 OFFCURVE",
"122 640 OFFCURVE",
"209 640 CURVE",
"282 640 LINE",
"282 92 LINE SMOOTH",
"282 50 OFFCURVE",
"274 43 OFFCURVE",
"228 33 CURVE SMOOTH",
"177 22 LINE",
"177 0 LINE"
);
}
);
width = 704;
}
);
leftKerningGroup = T;
rightKerningGroup = T;
unicode = 0054;
},
{
glyphname = Tbar;
lastChange = "2015-08-27 10:31:34 +0000";
layers = (
{
components = (
{
name = T;
}
);
layerId = "BD647A82-329A-4004-812E-9CBC2DAE5B44";
paths = (
{
closed = 1;
nodes = (
"557 322 LINE",
"557 360 LINE",
"137 360 LINE",
"137 322 LINE"
);
}
);
width = 694;
},
{
background = {
paths = (
{
closed = 1;
nodes = (
"137 322 LINE",
"557 322 LINE",
"557 360 LINE",
"137 360 LINE"
);
},
{
closed = 1;
nodes = (
"517 0 LINE",
"517 18 LINE",
"456 29 LINE SMOOTH",
"401 39 OFFCURVE",
"392 46 OFFCURVE",
"392 88 CURVE SMOOTH",
"392 649 LINE",
"487 649 LINE",
"585 649 OFFCURVE",
"633 581 OFFCURVE",
"658 496 CURVE",
"679 496 LINE",
"665 573 OFFCURVE",
"660 617 OFFCURVE",
"668 673 CURVE",
"25 673 LINE",
"33 617 OFFCURVE",
"29 573 OFFCURVE",
"15 496 CURVE",
"36 496 LINE",
"61 581 OFFCURVE",
"109 649 OFFCURVE",
"207 649 CURVE SMOOTH",
"302 649 LINE",
"302 88 LINE SMOOTH",
"302 46 OFFCURVE",
"293 39 OFFCURVE",
"238 29 CURVE SMOOTH",
"177 18 LINE",
"177 0 LINE"
);
}
);
};
components = (
{
name = T;
}
);
layerId = "3BF888B6-F1E5-4C4E-A417-A1F2F5FF24CA";
paths = (
{
closed = 1;
nodes = (
"547 312 LINE",
"547 367 LINE",
"157 367 LINE",
"157 312 LINE"
);
}
);
width = 704;
}
);
leftKerningGroup = T;
leftMetricsKey = T;
rightKerningGroup = T;
rightMetricsKey = T;
unicode = 0166;
},
{
glyphname = U;
lastChange = "2019-09-13 01:18:28 +0000";
layers = (
{
anchors = (
{
name = ogonek;
position = "{436, -52}";
},
{
name = topcase;
position = "{425, 690}";
}
);
background = {
paths = (
{
closed = 1;
nodes = (
"505 -13 OFFCURVE",
"555 39 OFFCURVE",
"588 80 CURVE SMOOTH",
"609 108 OFFCURVE",
"623 131 OFFCURVE",
"642 131 CURVE",
"642 581 LINE SMOOTH",
"642 623 OFFCURVE",
"651 634 OFFCURVE",
"706 644 CURVE SMOOTH",
"767 655 LINE",
"767 673 LINE",
"488 673 LINE",
"488 655 LINE",
"549 644 LINE SMOOTH",
"604 634 OFFCURVE",
"613 620 OFFCURVE",
"613 578 CURVE SMOOTH",
"613 236 LINE SMOOTH",
"613 112 OFFCURVE",
"546 37 OFFCURVE",
"425 37 CURVE SMOOTH",
"313 37 OFFCURVE",
"240 107 OFFCURVE",
"240 232 CURVE SMOOTH",
"240 585 LINE SMOOTH",
"240 627 OFFCURVE",
"249 634 OFFCURVE",
"304 644 CURVE SMOOTH",
"365 655 LINE",
"365 673 LINE",
"25 673 LINE",
"25 655 LINE",
"86 644 LINE SMOOTH",
"141 634 OFFCURVE",
"150 627 OFFCURVE",
"150 585 CURVE SMOOTH",
"150 231 LINE SMOOTH",
"150 79 OFFCURVE",
"256 -13 OFFCURVE",
"396 -13 CURVE SMOOTH"
);
}
);
};
layerId = "BD647A82-329A-4004-812E-9CBC2DAE5B44";
paths = (
{
closed = 1;
nodes = (
"494 -13 OFFCURVE",
"540 28 OFFCURVE",
"573 63 CURVE SMOOTH",
"598 88 OFFCURVE",
"615 110 OFFCURVE",
"642 110 CURVE",
"642 581 LINE SMOOTH",
"642 623 OFFCURVE",
"651 634 OFFCURVE",
"706 644 CURVE SMOOTH",
"767 655 LINE",
"767 673 LINE",
"488 673 LINE",
"488 655 LINE",
"549 644 LINE SMOOTH",
"604 634 OFFCURVE",
"613 620 OFFCURVE",
"613 578 CURVE SMOOTH",
"613 236 LINE SMOOTH",
"613 112 OFFCURVE",
"546 37 OFFCURVE",
"425 37 CURVE SMOOTH",
"313 37 OFFCURVE",
"240 107 OFFCURVE",
"240 232 CURVE SMOOTH",
"240 585 LINE SMOOTH",
"240 627 OFFCURVE",
"249 634 OFFCURVE",
"304 644 CURVE SMOOTH",
"365 655 LINE",
"365 673 LINE",
"25 673 LINE",
"25 655 LINE",
"86 644 LINE SMOOTH",
"141 634 OFFCURVE",
"150 627 OFFCURVE",
"150 585 CURVE SMOOTH",
"150 231 LINE SMOOTH",
"150 79 OFFCURVE",
"256 -13 OFFCURVE",
"396 -13 CURVE SMOOTH"
);
}
);
width = 792;
},
{
anchors = (
{
name = ogonek;
position = "{383, -52}";
},
{
name = topcase;
position = "{419, 690}";
}
);
background = {
paths = (
{
closed = 1;
nodes = (
"480 -11 OFFCURVE",
"546 33 OFFCURVE",
"575 77 CURVE SMOOTH",
"601 116 OFFCURVE",
"607 133 OFFCURVE",
"633 133 CURVE",
"633 581 LINE SMOOTH",
"633 617 OFFCURVE",
"651 630 OFFCURVE",
"687 638 CURVE SMOOTH",
"745 651 LINE",
"745 673 LINE",
"470 673 LINE",
"470 651 LINE",
"543 636 LINE SMOOTH",
"579 629 OFFCURVE",
"597 614 OFFCURVE",
"597 581 CURVE SMOOTH",
"597 216 LINE SMOOTH",
"597 124 OFFCURVE",
"524 57 OFFCURVE",
"427 57 CURVE SMOOTH",
"317 57 OFFCURVE",
"260 120 OFFCURVE",
"260 220 CURVE SMOOTH",
"260 581 LINE SMOOTH",
"260 623 OFFCURVE",
"268 630 OFFCURVE",
"314 640 CURVE SMOOTH",
"365 651 LINE",
"365 673 LINE",
"15 673 LINE",
"15 651 LINE",
"66 640 LINE SMOOTH",
"112 630 OFFCURVE",
"120 623 OFFCURVE",
"120 581 CURVE SMOOTH",
"120 215 LINE SMOOTH",
"120 82 OFFCURVE",
"245 -11 OFFCURVE",
"374 -11 CURVE SMOOTH"
);
},
{
closed = 1;
nodes = (
"494 -13 OFFCURVE",
"540 28 OFFCURVE",
"573 63 CURVE SMOOTH",
"598 88 OFFCURVE",
"615 110 OFFCURVE",
"642 110 CURVE",
"642 581 LINE SMOOTH",
"642 623 OFFCURVE",
"651 634 OFFCURVE",
"706 644 CURVE SMOOTH",
"767 655 LINE",
"767 673 LINE",
"488 673 LINE",
"488 655 LINE",
"549 644 LINE SMOOTH",
"604 634 OFFCURVE",
"613 620 OFFCURVE",
"613 578 CURVE SMOOTH",
"613 236 LINE SMOOTH",
"613 112 OFFCURVE",
"546 37 OFFCURVE",
"425 37 CURVE SMOOTH",
"313 37 OFFCURVE",
"240 107 OFFCURVE",
"240 232 CURVE SMOOTH",
"240 585 LINE SMOOTH",
"240 627 OFFCURVE",
"249 634 OFFCURVE",
"304 644 CURVE SMOOTH",
"365 655 LINE",
"365 673 LINE",
"25 673 LINE",
"25 655 LINE",
"86 644 LINE SMOOTH",
"141 634 OFFCURVE",
"150 627 OFFCURVE",
"150 585 CURVE SMOOTH",
"150 231 LINE SMOOTH",
"150 79 OFFCURVE",
"256 -13 OFFCURVE",
"396 -13 CURVE SMOOTH"
);
}
);
};
layerId = "3BF888B6-F1E5-4C4E-A417-A1F2F5FF24CA";
paths = (
{
closed = 1;
nodes = (
"495 -11 OFFCURVE",
"543 33 OFFCURVE",
"575 67 CURVE SMOOTH",
"597 90 OFFCURVE",
"612 109 OFFCURVE",
"633 109 CURVE",
"633 581 LINE SMOOTH",
"633 617 OFFCURVE",
"651 630 OFFCURVE",
"687 638 CURVE SMOOTH",
"745 651 LINE",
"745 673 LINE",
"470 673 LINE",
"470 651 LINE",
"543 636 LINE SMOOTH",
"579 629 OFFCURVE",
"597 614 OFFCURVE",
"597 581 CURVE SMOOTH",
"597 216 LINE SMOOTH",
"597 124 OFFCURVE",
"528 57 OFFCURVE",
"431 57 CURVE SMOOTH",
"318 57 OFFCURVE",
"260 120 OFFCURVE",
"260 220 CURVE SMOOTH",
"260 581 LINE SMOOTH",
"260 623 OFFCURVE",
"268 630 OFFCURVE",
"314 640 CURVE SMOOTH",
"365 651 LINE",
"365 673 LINE",
"15 673 LINE",
"15 651 LINE",
"66 640 LINE SMOOTH",
"112 630 OFFCURVE",
"120 623 OFFCURVE",
"120 581 CURVE SMOOTH",
"120 215 LINE SMOOTH",
"120 82 OFFCURVE",
"245 -11 OFFCURVE",
"374 -11 CURVE SMOOTH"
);
}
);
width = 765;
}
);
leftKerningGroup = U;
rightKerningGroup = U;
unicode = 0055;
},
{
glyphname = V;
lastChange = "2016-03-16 12:39:46 +0000";
layers = (
{
background = {
paths = (
{
closed = 1;
nodes = (
"400 124 LINE",
"424 124 LINE",
"223 574 LINE SMOOTH",
"217 588 OFFCURVE",
"210 608 OFFCURVE",
"210 619 CURVE SMOOTH",
"210 639 OFFCURVE",
"240 644 OFFCURVE",
"273 650 CURVE SMOOTH",
"320 658 LINE",
"320 673 LINE",
"-10 673 LINE",
"-10 658 LINE",
"32 650 LINE SMOOTH",
"98 640 OFFCURVE",
"111 626 OFFCURVE",
"135 570 CURVE SMOOTH",
"377 -12 LINE",
"385 -12 LINE",
"622 572 LINE SMOOTH",
"640 615 OFFCURVE",
"650 635 OFFCURVE",
"723 648 CURVE SMOOTH",
"778 658 LINE",
"778 673 LINE",
"499 673 LINE",
"499 658 LINE",
"545 649 LINE SMOOTH",
"587 641 OFFCURVE",
"600 634 OFFCURVE",
"600 616 CURVE SMOOTH",
"600 606 OFFCURVE",
"595 594 OFFCURVE",
"588 578 CURVE SMOOTH"
);
},
{
closed = 0;
nodes = (
"223 574 LINE SMOOTH",
"479 -18 LINE"
);
},
{
closed = 0;
nodes = (
"358 -13 LINE",
"594 578 LINE SMOOTH"
);
}
);
};
layerId = "BD647A82-329A-4004-812E-9CBC2DAE5B44";
paths = (
{
closed = 1;
nodes = (
"395 -15 LINE",
"631 576 LINE SMOOTH",
"652 628 OFFCURVE",
"673 635 OFFCURVE",
"713 645 CURVE SMOOTH",
"755 655 LINE",
"755 673 LINE",
"505 673 LINE",
"505 655 LINE",
"551 646 LINE SMOOTH",
"593 638 OFFCURVE",
"606 631 OFFCURVE",
"606 613 CURVE SMOOTH",
"606 603 OFFCURVE",
"600 591 OFFCURVE",
"594 575 CURVE SMOOTH",
"412 121 LINE",
"424 121 LINE",
"223 571 LINE SMOOTH",
"217 585 OFFCURVE",
"210 605 OFFCURVE",
"210 616 CURVE SMOOTH",
"210 636 OFFCURVE",
"240 641 OFFCURVE",
"273 647 CURVE SMOOTH",
"320 655 LINE",
"320 673 LINE",
"5 673 LINE",
"5 655 LINE",
"47 647 LINE SMOOTH",
"97 637 OFFCURVE",
"111 623 OFFCURVE",
"131 577 CURVE SMOOTH",
"387 -15 LINE"
);
}
);
width = 760;
},
{
layerId = "3BF888B6-F1E5-4C4E-A417-A1F2F5FF24CA";
paths = (
{
closed = 1;
nodes = (
"410 -15 LINE",
"660 602 LINE SMOOTH",
"669 625 OFFCURVE",
"686 633 OFFCURVE",
"712 638 CURVE SMOOTH",
"775 651 LINE",
"775 673 LINE",
"496 673 LINE",
"496 651 LINE",
"571 634 LINE SMOOTH",
"600 628 OFFCURVE",
"615 619 OFFCURVE",
"615 602 CURVE SMOOTH",
"615 597 OFFCURVE",
"613 591 OFFCURVE",
"611 585 CURVE SMOOTH",
"422 121 LINE",
"449 121 LINE",
"270 582 LINE SMOOTH",
"267 590 OFFCURVE",
"265 598 OFFCURVE",
"265 604 CURVE SMOOTH",
"265 623 OFFCURVE",
"281 633 OFFCURVE",
"314 640 CURVE SMOOTH",
"365 651 LINE",
"365 673 LINE",
"5 673 LINE",
"5 651 LINE",
"60 639 LINE SMOOTH",
"76 636 OFFCURVE",
"91 629 OFFCURVE",
"97 614 CURVE SMOOTH",
"362 -15 LINE"
);
}
);
width = 780;
}
);
unicode = 0056;
},
{
glyphname = W;
lastChange = "2016-03-16 12:19:39 +0000";
layers = (
{
anchors = (
{
name = topcase;
position = "{592, 690}";
}
);
layerId = "BD647A82-329A-4004-812E-9CBC2DAE5B44";
paths = (
{
closed = 1;
nodes = (
"359 -9 LINE",
"565 535 LINE",
"757 -9 LINE",
"764 -9 LINE",
"985 574 LINE SMOOTH",
"1002 619 OFFCURVE",
"1021 640 OFFCURVE",
"1070 647 CURVE SMOOTH",
"1124 655 LINE",
"1124 673 LINE",
"860 673 LINE",
"860 655 LINE",
"924 643 LINE SMOOTH",
"968 634 OFFCURVE",
"974 625 OFFCURVE",
"958 584 CURVE SMOOTH",
"791 152 LINE",
"635 577 LINE SMOOTH",
"619 622 OFFCURVE",
"614 633 OFFCURVE",
"667 643 CURVE SMOOTH",
"734 655 LINE",
"734 673 LINE",
"455 673 LINE",
"455 655 LINE",
"516 643 LINE SMOOTH",
"568 632 OFFCURVE",
"568 623 OFFCURVE",
"549 574 CURVE SMOOTH",
"386 152 LINE",
"227 584 LINE SMOOTH",
"212 622 OFFCURVE",
"215 635 OFFCURVE",
"261 643 CURVE SMOOTH",
"329 655 LINE",
"329 673 LINE",
"5 673 LINE",
"5 655 LINE",
"47 647 LINE SMOOTH",
"96 638 OFFCURVE",
"115 619 OFFCURVE",
"132 574 CURVE SMOOTH",
"352 -9 LINE"
);
}
);
width = 1129;
},
{
anchors = (
{
name = topcase;
position = "{604, 690}";
}
);
background = {
paths = (
{
closed = 1;
nodes = (
"388 -15 LINE",
"583 539 LINE",
"676 591 LINE",
"666 617 OFFCURVE",
"682 633 OFFCURVE",
"708 638 CURVE SMOOTH",
"771 651 LINE",
"771 673 LINE",
"454 673 LINE",
"454 651 LINE",
"524 638 LINE SMOOTH",
"550 633 OFFCURVE",
"565 617 OFFCURVE",
"556 591 CURVE SMOOTH",
"397 121 LINE",
"427 121 LINE",
"273 582 LINE",
"270 590 OFFCURVE",
"268 598 OFFCURVE",
"268 604 CURVE SMOOTH",
"268 623 OFFCURVE",
"284 633 OFFCURVE",
"317 640 CURVE SMOOTH",
"368 651 LINE",
"368 673 LINE",
"8 673 LINE",
"8 651 LINE",
"63 639 LINE SMOOTH",
"79 636 OFFCURVE",
"94 629 OFFCURVE",
"100 614 CURVE SMOOTH",
"340 -15 LINE"
);
},
{
closed = 1;
nodes = (
"794 -15 LINE",
"1018 597 LINE SMOOTH",
"1026 620 OFFCURVE",
"1045 632 OFFCURVE",
"1071 637 CURVE SMOOTH",
"1134 651 LINE",
"1134 673 LINE",
"855 673 LINE",
"855 651 LINE",
"917 637 LINE SMOOTH",
"974 624 OFFCURVE",
"982 618 OFFCURVE",
"974 595 CURVE SMOOTH",
"806 121 LINE",
"833 121 LINE",
"656 651 LINE",
"613 633 OFFCURVE",
"575 588 OFFCURVE",
"550 498 CURVE",
"746 -15 LINE"
);
}
);
};
layerId = "3BF888B6-F1E5-4C4E-A417-A1F2F5FF24CA";
paths = (
{
closed = 1;
nodes = (
"388 -15 LINE",
"560 473 LINE",
"746 -15 LINE",
"794 -15 LINE",
"1018 597 LINE SMOOTH",
"1026 620 OFFCURVE",
"1045 632 OFFCURVE",
"1071 637 CURVE SMOOTH",
"1134 651 LINE",
"1134 673 LINE",
"855 673 LINE",
"855 651 LINE",
"917 637 LINE SMOOTH",
"974 624 OFFCURVE",
"982 618 OFFCURVE",
"974 595 CURVE SMOOTH",
"820 160 LINE",
"676 591 LINE SMOOTH",
"666 620 OFFCURVE",
"684 633 OFFCURVE",
"708 638 CURVE SMOOTH",
"771 651 LINE",
"771 673 LINE",
"454 673 LINE",
"454 651 LINE",
"524 638 LINE SMOOTH",
"550 633 OFFCURVE",
"565 617 OFFCURVE",
"556 591 CURVE SMOOTH",
"412 166 LINE",
"273 582 LINE SMOOTH",
"260 616 OFFCURVE",
"272 631 OFFCURVE",
"317 640 CURVE SMOOTH",
"368 651 LINE",
"368 673 LINE",
"8 673 LINE",
"8 651 LINE",
"63 639 LINE SMOOTH",
"88 634 OFFCURVE",
"96 624 OFFCURVE",
"103 607 CURVE SMOOTH",
"340 -15 LINE"
);
}
);
width = 1142;
}
);
leftKerningGroup = W;
rightKerningGroup = W;
unicode = 0057;
},
{
glyphname = X;
lastChange = "2015-09-02 16:49:53 +0000";
layers = (
{
background = {
paths = (
{
closed = 1;
nodes = (
"433 360 LINE",
"614 589 LINE SMOOTH",
"647 622 OFFCURVE",
"680 642 OFFCURVE",
"727 649 CURVE SMOOTH",
"770 655 LINE",
"770 673 LINE",
"491 673 LINE",
"491 655 LINE",
"559 641 LINE SMOOTH",
"593 635 OFFCURVE",
"596 612 OFFCURVE",
"577 588 CURVE SMOOTH",
"416 384 LINE",
"277 580 LINE SMOOTH",
"244 624 OFFCURVE",
"261 638 OFFCURVE",
"317 647 CURVE SMOOTH",
"371 655 LINE",
"371 673 LINE",
"33 673 LINE",
"33 654 LINE",
"63 649 LINE SMOOTH",
"120 639 OFFCURVE",
"144 619 OFFCURVE",
"172 580 CURVE SMOOTH",
"354 322 LINE",
"167 80 LINE SMOOTH",
"136 49 OFFCURVE",
"100 31 OFFCURVE",
"53 24 CURVE SMOOTH",
"10 18 LINE",
"10 0 LINE",
"289 0 LINE",
"289 18 LINE",
"221 32 LINE SMOOTH",
"189 38 OFFCURVE",
"184 55 OFFCURVE",
"203 81 CURVE SMOOTH",
"371 298 LINE",
"521 96 LINE SMOOTH",
"556 50 OFFCURVE",
"545 36 OFFCURVE",
"491 27 CURVE SMOOTH",
"437 18 LINE",
"437 0 LINE",
"775 0 LINE",
"775 19 LINE",
"745 24 LINE SMOOTH",
"685 34 OFFCURVE",
"653 60 OFFCURVE",
"604 127 CURVE SMOOTH"
);
}
);
};
guideLines = (
{
angle = 90;
position = "{32, 18}";
}
);
layerId = "BD647A82-329A-4004-812E-9CBC2DAE5B44";
paths = (
{
closed = 1;
nodes = (
"289 0 LINE",
"289 18 LINE",
"221 32 LINE SMOOTH",
"189 38 OFFCURVE",
"184 55 OFFCURVE",
"203 81 CURVE SMOOTH",
"371 298 LINE",
"521 96 LINE SMOOTH",
"556 50 OFFCURVE",
"545 36 OFFCURVE",
"491 27 CURVE SMOOTH",
"437 18 LINE",
"437 0 LINE",
"775 0 LINE",
"775 19 LINE",
"745 24 LINE SMOOTH",
"685 34 OFFCURVE",
"653 60 OFFCURVE",
"604 127 CURVE SMOOTH",
"433 360 LINE",
"614 589 LINE SMOOTH",
"647 622 OFFCURVE",
"680 642 OFFCURVE",
"727 649 CURVE SMOOTH",
"770 655 LINE",
"770 673 LINE",
"491 673 LINE",
"491 655 LINE",
"559 641 LINE SMOOTH",
"593 635 OFFCURVE",
"596 612 OFFCURVE",
"577 588 CURVE SMOOTH",
"416 384 LINE",
"277 580 LINE SMOOTH",
"244 624 OFFCURVE",
"261 638 OFFCURVE",
"317 647 CURVE SMOOTH",
"371 655 LINE",
"371 673 LINE",
"33 673 LINE",
"33 654 LINE",
"63 649 LINE SMOOTH",
"120 639 OFFCURVE",
"144 619 OFFCURVE",
"172 580 CURVE SMOOTH",
"354 322 LINE",
"167 80 LINE SMOOTH",
"136 49 OFFCURVE",
"100 31 OFFCURVE",
"53 24 CURVE SMOOTH",
"10 18 LINE",
"10 0 LINE"
);
}
);
width = 785;
},
{
background = {
paths = (
{
closed = 1;
nodes = (
"454 380 LINE",
"302 582 LINE SMOOTH",
"278 613 OFFCURVE",
"314 633 OFFCURVE",
"346 640 CURVE SMOOTH",
"397 651 LINE",
"397 673 LINE",
"16 673 LINE",
"16 651 LINE",
"71 639 LINE SMOOTH",
"87 636 OFFCURVE",
"102 629 OFFCURVE",
"108 614 CURVE",
"347 284 LINE"
);
},
{
closed = 1;
nodes = (
"289 0 LINE",
"289 22 LINE",
"214 39 LINE SMOOTH",
"188 45 OFFCURVE",
"183 63 OFFCURVE",
"202 85 CURVE SMOOTH",
"412 338 LINE",
"390 374 LINE",
"140 71 LINE SMOOTH",
"124 52 OFFCURVE",
"99 40 OFFCURVE",
"73 35 CURVE SMOOTH",
"10 22 LINE",
"10 0 LINE"
);
},
{
closed = 1;
nodes = (
"782 0 LINE",
"782 22 LINE",
"727 34 LINE SMOOTH",
"711 37 OFFCURVE",
"699 46 OFFCURVE",
"690 59 CURVE SMOOTH",
"449 395 LINE",
"351 289 LINE",
"491 91 LINE SMOOTH",
"514 58 OFFCURVE",
"480 40 OFFCURVE",
"447 33 CURVE SMOOTH",
"396 22 LINE",
"396 0 LINE"
);
},
{
closed = 1;
nodes = (
"642 602 LINE",
"658 621 OFFCURVE",
"683 633 OFFCURVE",
"709 638 CURVE SMOOTH",
"772 651 LINE",
"772 673 LINE",
"493 673 LINE",
"493 651 LINE",
"568 634 LINE SMOOTH",
"594 628 OFFCURVE",
"599 610 OFFCURVE",
"580 588 CURVE",
"391 335 LINE",
"413 299 LINE"
);
}
);
};
layerId = "3BF888B6-F1E5-4C4E-A417-A1F2F5FF24CA";
paths = (
{
closed = 1;
nodes = (
"289 0 LINE",
"289 22 LINE",
"214 39 LINE SMOOTH",
"188 45 OFFCURVE",
"183 63 OFFCURVE",
"202 85 CURVE SMOOTH",
"360 276 LINE",
"496 91 LINE SMOOTH",
"520 58 OFFCURVE",
"485 40 OFFCURVE",
"452 33 CURVE SMOOTH",
"401 22 LINE",
"401 0 LINE",
"787 0 LINE",
"787 22 LINE",
"740 32 LINE SMOOTH",
"720 36 OFFCURVE",
"705 45 OFFCURVE",
"687 70 CURVE SMOOTH",
"467 370 LINE",
"642 602 LINE",
"658 621 OFFCURVE",
"683 633 OFFCURVE",
"709 638 CURVE SMOOTH",
"772 651 LINE",
"772 673 LINE",
"493 673 LINE",
"493 651 LINE",
"568 634 LINE SMOOTH",
"594 628 OFFCURVE",
"599 610 OFFCURVE",
"580 588 CURVE",
"439 400 LINE",
"298 597 LINE SMOOTH",
"285 615 OFFCURVE",
"294 628 OFFCURVE",
"312 632 CURVE SMOOTH",
"397 651 LINE",
"397 673 LINE",
"16 673 LINE",
"16 651 LINE",
"64 641 LINE SMOOTH",
"91 635 OFFCURVE",
"102 624 OFFCURVE",
"114 607 CURVE SMOOTH",
"332 304 LINE",
"140 71 LINE SMOOTH",
"124 52 OFFCURVE",
"99 40 OFFCURVE",
"73 35 CURVE SMOOTH",
"10 22 LINE",
"10 0 LINE"
);
}
);
width = 797;
}
);
unicode = 0058;
},
{
glyphname = Y;
lastChange = "2016-03-16 12:42:28 +0000";
layers = (
{
anchors = (
{
name = topcase;
position = "{379, 690}";
}
);
background = {
paths = (
{
closed = 1;
nodes = (
"394 321 LINE",
"569 586 LINE SMOOTH",
"595 624 OFFCURVE",
"629 643 OFFCURVE",
"687 652 CURVE SMOOTH",
"725 658 LINE",
"725 673 LINE",
"456 673 LINE",
"456 658 LINE",
"519 644 LINE SMOOTH",
"553 636 OFFCURVE",
"555 619 OFFCURVE",
"536 590 CURVE SMOOTH",
"376 352 LINE",
"400 352 LINE",
"232 583 LINE SMOOTH",
"202 625 OFFCURVE",
"213 643 OFFCURVE",
"267 651 CURVE SMOOTH",
"319 659 LINE",
"319 673 LINE",
"-9 673 LINE",
"-9 657 LINE",
"21 652 LINE SMOOTH",
"78 643 OFFCURVE",
"94 625 OFFCURVE",
"127 580 CURVE SMOOTH",
"329 305 LINE"
);
},
{
closed = 1;
nodes = (
"317 85 LINE SMOOTH",
"317 43 OFFCURVE",
"308 36 OFFCURVE",
"253 26 CURVE SMOOTH",
"192 15 LINE",
"192 0 LINE",
"532 0 LINE",
"532 15 LINE",
"471 26 LINE SMOOTH",
"416 36 OFFCURVE",
"407 43 OFFCURVE",
"407 85 CURVE SMOOTH",
"407 340 LINE",
"317 330 LINE"
);
}
);
};
layerId = "BD647A82-329A-4004-812E-9CBC2DAE5B44";
paths = (
{
closed = 1;
nodes = (
"398 321 LINE",
"572 588 LINE SMOOTH",
"599 630 OFFCURVE",
"629 643 OFFCURVE",
"667 649 CURVE SMOOTH",
"705 655 LINE",
"705 673 LINE",
"453 673 LINE",
"453 655 LINE",
"516 641 LINE SMOOTH",
"550 633 OFFCURVE",
"552 616 OFFCURVE",
"533 587 CURVE SMOOTH",
"382 352 LINE",
"400 352 LINE",
"232 580 LINE SMOOTH",
"201 622 OFFCURVE",
"213 640 OFFCURVE",
"267 648 CURVE SMOOTH",
"319 656 LINE",
"319 673 LINE",
"5 673 LINE",
"5 654 LINE",
"35 649 LINE SMOOTH",
"70 643 OFFCURVE",
"87 631 OFFCURVE",
"107 604 CURVE SMOOTH",
"329 305 LINE"
);
},
{
closed = 1;
nodes = (
"532 0 LINE",
"532 18 LINE",
"471 29 LINE SMOOTH",
"416 39 OFFCURVE",
"407 46 OFFCURVE",
"407 88 CURVE SMOOTH",
"407 340 LINE",
"317 330 LINE",
"317 88 LINE SMOOTH",
"317 46 OFFCURVE",
"308 39 OFFCURVE",
"253 29 CURVE SMOOTH",
"192 18 LINE",
"192 0 LINE"
);
}
);
width = 710;
},
{
anchors = (
{
name = topcase;
position = "{414, 690}";
}
);
layerId = "3BF888B6-F1E5-4C4E-A417-A1F2F5FF24CA";
paths = (
{
closed = 1;
nodes = (
"382 257 LINE",
"618 602 LINE",
"627 625 OFFCURVE",
"644 633 OFFCURVE",
"670 638 CURVE SMOOTH",
"733 651 LINE",
"733 673 LINE",
"454 673 LINE",
"454 651 LINE",
"539 632 LINE SMOOTH",
"570 625 OFFCURVE",
"573 612 OFFCURVE",
"562 596 CURVE SMOOTH",
"407 373 LINE",
"424 373 LINE",
"291 585 LINE SMOOTH",
"270 618 OFFCURVE",
"292 633 OFFCURVE",
"324 640 CURVE SMOOTH",
"375 651 LINE",
"375 673 LINE",
"15 673 LINE",
"15 651 LINE",
"68 639 LINE SMOOTH",
"84 636 OFFCURVE",
"96 627 OFFCURVE",
"105 614 CURVE SMOOTH",
"339 250 LINE"
);
},
{
closed = 1;
nodes = (
"539 0 LINE",
"539 22 LINE",
"488 33 LINE SMOOTH",
"442 43 OFFCURVE",
"434 50 OFFCURVE",
"434 92 CURVE SMOOTH",
"434 361 LINE",
"294 353 LINE",
"294 92 LINE SMOOTH",
"294 50 OFFCURVE",
"286 43 OFFCURVE",
"240 33 CURVE SMOOTH",
"189 22 LINE",
"189 0 LINE"
);
}
);
width = 748;
}
);
leftKerningGroup = Y;
rightKerningGroup = Y;
unicode = 0059;
},
{
glyphname = Z;
lastChange = "2015-08-06 11:06:52 +0000";
layers = (
{
anchors = (
{
name = topcase;
position = "{344, 690}";
}
);
background = {
paths = (
{
closed = 1;
nodes = (
"75 673 LINE",
"77 655 OFFCURVE",
"80 638 OFFCURVE",
"80 621 CURVE SMOOTH",
"80 577 OFFCURVE",
"74 537 OFFCURVE",
"65 496 CURVE",
"84 496 LINE",
"125 603 OFFCURVE",
"170 649 OFFCURVE",
"275 649 CURVE SMOOTH",
"495 649 LINE",
"30 5 LINE",
"30 0 LINE",
"619 0 LINE",
"619 63 OFFCURVE",
"628 115 OFFCURVE",
"644 180 CURVE",
"624 180 LINE",
"591 90 OFFCURVE",
"505 25 OFFCURVE",
"400 25 CURVE SMOOTH",
"159 25 LINE",
"620 668 LINE",
"620 673 LINE"
);
}
);
};
guideLines = (
{
angle = 90;
position = "{645, 216}";
}
);
layerId = "BD647A82-329A-4004-812E-9CBC2DAE5B44";
paths = (
{
closed = 1;
nodes = (
"619 0 LINE",
"619 63 OFFCURVE",
"628 122 OFFCURVE",
"644 187 CURVE",
"624 187 LINE",
"591 97 OFFCURVE",
"505 25 OFFCURVE",
"400 25 CURVE SMOOTH",
"155 25 LINE",
"620 662 LINE",
"620 673 LINE",
"75 673 LINE",
"77 655 OFFCURVE",
"80 638 OFFCURVE",
"80 621 CURVE SMOOTH",
"80 577 OFFCURVE",
"74 530 OFFCURVE",
"65 489 CURVE",
"84 489 LINE",
"125 596 OFFCURVE",
"170 649 OFFCURVE",
"275 649 CURVE SMOOTH",
"499 649 LINE",
"30 11 LINE",
"30 0 LINE"
);
}
);
width = 669;
},
{
anchors = (
{
name = topcase;
position = "{363, 690}";
}
);
background = {
paths = (
{
closed = 1;
nodes = (
"624 0 LINE",
"624 69 OFFCURVE",
"634 133 OFFCURVE",
"651 204 CURVE",
"629 204 LINE",
"593 106 OFFCURVE",
"503 33 OFFCURVE",
"389 33 CURVE SMOOTH",
"213 33 LINE",
"625 667 LINE",
"625 673 LINE",
"70 673 LINE",
"72 653 OFFCURVE",
"75 635 OFFCURVE",
"75 616 CURVE SMOOTH",
"75 568 OFFCURVE",
"69 516 OFFCURVE",
"59 471 CURVE",
"80 471 LINE",
"125 588 OFFCURVE",
"180 640 OFFCURVE",
"296 640 CURVE SMOOTH",
"442 640 LINE",
"25 3 LINE",
"25 0 LINE"
);
}
);
};
layerId = "3BF888B6-F1E5-4C4E-A417-A1F2F5FF24CA";
paths = (
{
closed = 1;
nodes = (
"624 0 LINE",
"624 69 OFFCURVE",
"634 133 OFFCURVE",
"651 204 CURVE",
"629 204 LINE",
"593 106 OFFCURVE",
"503 33 OFFCURVE",
"389 33 CURVE SMOOTH",
"205 33 LINE",
"625 652 LINE",
"625 673 LINE",
"70 673 LINE",
"72 653 OFFCURVE",
"75 635 OFFCURVE",
"75 616 CURVE SMOOTH",
"75 568 OFFCURVE",
"69 516 OFFCURVE",
"59 471 CURVE",
"80 471 LINE",
"125 588 OFFCURVE",
"180 640 OFFCURVE",
"296 640 CURVE SMOOTH",
"450 640 LINE",
"25 18 LINE",
"25 0 LINE"
);
}
);
width = 666;
}
);
leftKerningGroup = Z;
rightKerningGroup = Z;
unicode = 005A;
},
{
glyphname = a;
lastChange = "2019-09-13 01:14:41 +0000";
layers = (
{
anchors = (
{
name = ogonek;
position = "{347, -51}";
},
{
name = top;
position = "{234, 470}";
}
);
background = {
paths = (
{
closed = 1;
nodes = (
"228 -7 OFFCURVE",
"279 35 OFFCURVE",
"318 67 CURVE",
"308 81 LINE",
"308 69 LINE SMOOTH",
"308 33 OFFCURVE",
"312 -7 OFFCURVE",
"357 -7 CURVE SMOOTH",
"381 -7 OFFCURVE",
"426 16 OFFCURVE",
"451 32 CURVE",
"451 47 LINE",
"436 41 OFFCURVE",
"419 37 OFFCURVE",
"404 37 CURVE SMOOTH",
"377 37 OFFCURVE",
"375 59 OFFCURVE",
"375 87 CURVE SMOOTH",
"375 297 LINE SMOOTH",
"375 370 OFFCURVE",
"329 434 OFFCURVE",
"233 434 CURVE SMOOTH",
"156 434 OFFCURVE",
"78 379 OFFCURVE",
"78 311 CURVE SMOOTH",
"78 276 OFFCURVE",
"101 259 OFFCURVE",
"125 259 CURVE SMOOTH",
"148 259 OFFCURVE",
"172 275 OFFCURVE",
"172 301 CURVE SMOOTH",
"172 314 OFFCURVE",
"166 327 OFFCURVE",
"158 338 CURVE SMOOTH",
"153 345 OFFCURVE",
"148 353 OFFCURVE",
"148 359 CURVE SMOOTH",
"148 391 OFFCURVE",
"177 411 OFFCURVE",
"217 411 CURVE SMOOTH",
"278 411 OFFCURVE",
"307 358 OFFCURVE",
"307 297 CURVE SMOOTH",
"307 279 LINE SMOOTH",
"307 252 OFFCURVE",
"297 239 OFFCURVE",
"265 227 CURVE SMOOTH",
"86 158 LINE SMOOTH",
"76 154 OFFCURVE",
"72 146 OFFCURVE",
"72 124 CURVE SMOOTH",
"72 59 OFFCURVE",
"127 -7 OFFCURVE",
"184 -7 CURVE SMOOTH"
);
},
{
closed = 1;
nodes = (
"183 41 OFFCURVE",
"147 81 OFFCURVE",
"147 121 CURVE SMOOTH",
"147 142 OFFCURVE",
"149 150 OFFCURVE",
"156 153 CURVE SMOOTH",
"300 213 LINE",
"304 215 OFFCURVE",
"308 212 OFFCURVE",
"308 208 CURVE SMOOTH",
"308 116 LINE SMOOTH",
"308 99 OFFCURVE",
"301 85 OFFCURVE",
"291 77 CURVE SMOOTH",
"264 56 OFFCURVE",
"237 41 OFFCURVE",
"212 41 CURVE SMOOTH"
);
}
);
};
layerId = "BD647A82-329A-4004-812E-9CBC2DAE5B44";
paths = (
{
closed = 1;
nodes = (
"224 -7 OFFCURVE",
"277 35 OFFCURVE",
"318 67 CURVE",
"308 81 LINE",
"308 69 LINE SMOOTH",
"308 33 OFFCURVE",
"312 -7 OFFCURVE",
"357 -7 CURVE SMOOTH",
"381 -7 OFFCURVE",
"426 16 OFFCURVE",
"451 32 CURVE",
"451 47 LINE",
"436 41 OFFCURVE",
"419 37 OFFCURVE",
"404 37 CURVE SMOOTH",
"377 37 OFFCURVE",
"375 59 OFFCURVE",
"375 87 CURVE SMOOTH",
"375 297 LINE SMOOTH",
"375 370 OFFCURVE",
"329 434 OFFCURVE",
"233 434 CURVE SMOOTH",
"156 434 OFFCURVE",
"78 379 OFFCURVE",
"78 311 CURVE SMOOTH",
"78 278 OFFCURVE",
"96 259 OFFCURVE",
"125 259 CURVE SMOOTH",
"152 259 OFFCURVE",
"172 275 OFFCURVE",
"172 301 CURVE SMOOTH",
"172 314 OFFCURVE",
"166 326 OFFCURVE",
"158 337 CURVE SMOOTH",
"153 344 OFFCURVE",
"148 351 OFFCURVE",
"148 359 CURVE SMOOTH",
"148 391 OFFCURVE",
"177 411 OFFCURVE",
"217 411 CURVE SMOOTH",
"278 411 OFFCURVE",
"307 358 OFFCURVE",
"307 297 CURVE SMOOTH",
"307 279 LINE SMOOTH",
"307 252 OFFCURVE",
"297 239 OFFCURVE",
"265 227 CURVE SMOOTH",
"74 158 LINE SMOOTH",
"64 154 OFFCURVE",
"60 146 OFFCURVE",
"60 124 CURVE SMOOTH",
"60 59 OFFCURVE",
"117 -7 OFFCURVE",
"178 -7 CURVE SMOOTH"
);
},
{
closed = 1;
nodes = (
"175 41 OFFCURVE",
"132 82 OFFCURVE",
"132 121 CURVE SMOOTH",
"132 142 OFFCURVE",
"135 151 OFFCURVE",
"143 154 CURVE SMOOTH",
"300 213 LINE",
"304 215 OFFCURVE",
"308 212 OFFCURVE",
"308 208 CURVE SMOOTH",
"308 116 LINE SMOOTH",
"308 99 OFFCURVE",
"301 85 OFFCURVE",
"291 77 CURVE",
"262 56 OFFCURVE",
"233 41 OFFCURVE",
"206 41 CURVE SMOOTH"
);
}
);
width = 466;
},
{
anchors = (
{
name = ogonek;
position = "{309, -52}";
},
{
name = top;
position = "{245, 470}";
}
);
background = {
paths = (
{
closed = 1;
nodes = (
"226 -7 OFFCURVE",
"281 35 OFFCURVE",
"327 73 CURVE",
"299 96 LINE",
"299 81 LINE SMOOTH",
"300 16 OFFCURVE",
"325 -6 OFFCURVE",
"365 -6 CURVE SMOOTH",
"399 -6 OFFCURVE",
"448 18 OFFCURVE",
"475 34 CURVE",
"475 59 LINE",
"458 54 OFFCURVE",
"443 51 OFFCURVE",
"433 51 CURVE SMOOTH",
"409 51 OFFCURVE",
"407 71 OFFCURVE",
"407 97 CURVE SMOOTH",
"407 314 LINE SMOOTH",
"407 411 OFFCURVE",
"329 452 OFFCURVE",
"244 452 CURVE SMOOTH",
"152 452 OFFCURVE",
"58 392 OFFCURVE",
"58 318 CURVE SMOOTH",
"58 282 OFFCURVE",
"79 261 OFFCURVE",
"115 261 CURVE SMOOTH",
"150 261 OFFCURVE",
"176 280 OFFCURVE",
"176 312 CURVE SMOOTH",
"176 328 OFFCURVE",
"168 342 OFFCURVE",
"158 355 CURVE SMOOTH",
"151 364 OFFCURVE",
"145 372 OFFCURVE",
"145 382 CURVE SMOOTH",
"145 401 OFFCURVE",
"171 423 OFFCURVE",
"207 423 CURVE SMOOTH",
"263 423 OFFCURVE",
"290 382 OFFCURVE",
"290 334 CURVE SMOOTH",
"290 291 LINE SMOOTH",
"290 271 OFFCURVE",
"285 262 OFFCURVE",
"261 253 CURVE SMOOTH",
"55 176 LINE SMOOTH",
"44 172 OFFCURVE",
"40 164 OFFCURVE",
"40 140 CURVE SMOOTH",
"40 62 OFFCURVE",
"95 -7 OFFCURVE",
"173 -7 CURVE SMOOTH"
);
},
{
closed = 1;
nodes = (
"188 53 OFFCURVE",
"154 102 OFFCURVE",
"154 150 CURVE SMOOTH",
"154 171 OFFCURVE",
"157 177 OFFCURVE",
"165 180 CURVE SMOOTH",
"284 223 LINE",
"288 225 OFFCURVE",
"290 223 OFFCURVE",
"290 219 CURVE SMOOTH",
"290 100 LINE SMOOTH",
"290 87 OFFCURVE",
"287 78 OFFCURVE",
"279 72 CURVE",
"260 60 OFFCURVE",
"248 53 OFFCURVE",
"229 53 CURVE SMOOTH"
);
}
);
};
layerId = "3BF888B6-F1E5-4C4E-A417-A1F2F5FF24CA";
paths = (
{
closed = 1;
nodes = (
"226 -7 OFFCURVE",
"281 35 OFFCURVE",
"327 73 CURVE",
"299 96 LINE",
"299 81 LINE SMOOTH",
"300 16 OFFCURVE",
"325 -6 OFFCURVE",
"365 -6 CURVE SMOOTH",
"399 -6 OFFCURVE",
"448 18 OFFCURVE",
"475 34 CURVE",
"475 59 LINE",
"458 54 OFFCURVE",
"443 51 OFFCURVE",
"433 51 CURVE SMOOTH",
"409 51 OFFCURVE",
"407 71 OFFCURVE",
"407 97 CURVE SMOOTH",
"407 314 LINE SMOOTH",
"407 411 OFFCURVE",
"326 452 OFFCURVE",
"237 452 CURVE SMOOTH",
"150 452 OFFCURVE",
"58 392 OFFCURVE",
"58 318 CURVE SMOOTH",
"58 282 OFFCURVE",
"79 261 OFFCURVE",
"115 261 CURVE SMOOTH",
"150 261 OFFCURVE",
"176 280 OFFCURVE",
"176 312 CURVE SMOOTH",
"176 328 OFFCURVE",
"168 342 OFFCURVE",
"158 355 CURVE SMOOTH",
"151 364 OFFCURVE",
"145 372 OFFCURVE",
"145 382 CURVE SMOOTH",
"145 400 OFFCURVE",
"169 419 OFFCURVE",
"207 419 CURVE SMOOTH",
"263 419 OFFCURVE",
"290 386 OFFCURVE",
"290 328 CURVE SMOOTH",
"290 291 LINE SMOOTH",
"290 271 OFFCURVE",
"285 262 OFFCURVE",
"261 253 CURVE SMOOTH",
"55 176 LINE SMOOTH",
"44 172 OFFCURVE",
"40 164 OFFCURVE",
"40 140 CURVE SMOOTH",
"40 62 OFFCURVE",
"95 -7 OFFCURVE",
"173 -7 CURVE SMOOTH"
);
},
{
closed = 1;
nodes = (
"188 53 OFFCURVE",
"154 102 OFFCURVE",
"154 150 CURVE SMOOTH",
"154 171 OFFCURVE",
"157 177 OFFCURVE",
"165 180 CURVE SMOOTH",
"284 223 LINE",
"288 225 OFFCURVE",
"290 223 OFFCURVE",
"290 219 CURVE SMOOTH",
"290 100 LINE SMOOTH",
"290 87 OFFCURVE",
"287 78 OFFCURVE",
"279 72 CURVE",
"260 60 OFFCURVE",
"248 53 OFFCURVE",
"229 53 CURVE SMOOTH"
);
}
);
width = 485;
}
);
leftKerningGroup = a;
rightKerningGroup = a;
unicode = 0061;
},
{
glyphname = aogonek;
lastChange = "2019-09-13 01:14:41 +0000";
layers = (
{
background = {
anchors = (
{
name = _ogonek;
position = "{349, -50}";
},
{
name = bottom;
position = "{349, -50}";
},
{
name = top;
position = "{234, 470}";
}
);
paths = (
{
closed = 1;
nodes = (
"224 -7 OFFCURVE",
"277 35 OFFCURVE",
"318 67 CURVE",
"308 81 LINE",
"308 69 LINE SMOOTH",
"308 33 OFFCURVE",
"312 -7 OFFCURVE",
"357 -7 CURVE SMOOTH",
"381 -7 OFFCURVE",
"426 16 OFFCURVE",
"451 32 CURVE",
"451 47 LINE",
"436 41 OFFCURVE",
"419 37 OFFCURVE",
"404 37 CURVE SMOOTH",
"377 37 OFFCURVE",
"375 59 OFFCURVE",
"375 87 CURVE SMOOTH",
"375 297 LINE SMOOTH",
"375 370 OFFCURVE",
"329 434 OFFCURVE",
"233 434 CURVE SMOOTH",
"156 434 OFFCURVE",
"78 379 OFFCURVE",
"78 311 CURVE SMOOTH",
"78 278 OFFCURVE",
"96 259 OFFCURVE",
"125 259 CURVE SMOOTH",
"152 259 OFFCURVE",
"172 275 OFFCURVE",
"172 301 CURVE SMOOTH",
"172 314 OFFCURVE",
"166 326 OFFCURVE",
"158 337 CURVE SMOOTH",
"153 344 OFFCURVE",
"148 351 OFFCURVE",
"148 359 CURVE SMOOTH",
"148 391 OFFCURVE",
"177 411 OFFCURVE",
"217 411 CURVE SMOOTH",
"278 411 OFFCURVE",
"307 358 OFFCURVE",
"307 297 CURVE SMOOTH",
"307 279 LINE SMOOTH",
"307 252 OFFCURVE",
"297 239 OFFCURVE",
"265 227 CURVE SMOOTH",
"74 158 LINE SMOOTH",
"64 154 OFFCURVE",
"60 146 OFFCURVE",
"60 124 CURVE SMOOTH",
"60 59 OFFCURVE",
"117 -7 OFFCURVE",
"178 -7 CURVE SMOOTH"
);
},
{
closed = 1;
nodes = (
"175 41 OFFCURVE",
"132 82 OFFCURVE",
"132 121 CURVE SMOOTH",
"132 142 OFFCURVE",
"135 151 OFFCURVE",
"143 154 CURVE SMOOTH",
"300 213 LINE",
"304 215 OFFCURVE",
"308 212 OFFCURVE",
"308 208 CURVE SMOOTH",
"308 116 LINE SMOOTH",
"308 99 OFFCURVE",
"301 85 OFFCURVE",
"291 77 CURVE",
"262 56 OFFCURVE",
"233 41 OFFCURVE",
"206 41 CURVE SMOOTH"
);
},
{
closed = 1;
nodes = (
"368 -225 OFFCURVE",
"417 -198 OFFCURVE",
"456 -158 CURVE",
"444 -144 LINE",
"415 -163 OFFCURVE",
"386 -181 OFFCURVE",
"356 -181 CURVE SMOOTH",
"320 -181 OFFCURVE",
"292 -160 OFFCURVE",
"292 -104 CURVE SMOOTH",
"292 -49 OFFCURVE",
"358 -10 OFFCURVE",
"402 5 CURVE",
"362 12 LINE",
"307 -7 OFFCURVE",
"223 -51 OFFCURVE",
"223 -102 CURVE SMOOTH",
"223 -166 OFFCURVE",
"272 -225 OFFCURVE",
"330 -225 CURVE SMOOTH"
);
}
);
};
components = (
{
name = a;
},
{
name = ogonekcomb;
transform = "{1, 0, 0, 1, 73, 0}";
}
);
layerId = "BD647A82-329A-4004-812E-9CBC2DAE5B44";
width = 466;
},
{
components = (
{
name = a;
},
{
name = ogonekcomb;
transform = "{1, 0, 0, 1, 51, -2}";
}
);
layerId = "3BF888B6-F1E5-4C4E-A417-A1F2F5FF24CA";
width = 485;
}
);
leftKerningGroup = a;
rightKerningGroup = a;
unicode = 0105;
},
{
color = 4;
glyphname = ae;
lastChange = "2015-08-07 08:54:11 +0000";
layers = (
{
background = {
paths = (
{
closed = 1;
nodes = (
"224 -7 OFFCURVE",
"277 35 OFFCURVE",
"318 67 CURVE",
"308 81 LINE",
"308 69 LINE",
"375 87 LINE",
"375 297 LINE SMOOTH",
"375 370 OFFCURVE",
"329 434 OFFCURVE",
"233 434 CURVE SMOOTH",
"156 434 OFFCURVE",
"78 379 OFFCURVE",
"78 311 CURVE SMOOTH",
"78 278 OFFCURVE",
"96 259 OFFCURVE",
"125 259 CURVE SMOOTH",
"152 259 OFFCURVE",
"172 275 OFFCURVE",
"172 301 CURVE SMOOTH",
"172 314 OFFCURVE",
"166 326 OFFCURVE",
"158 337 CURVE SMOOTH",
"153 344 OFFCURVE",
"148 351 OFFCURVE",
"148 359 CURVE SMOOTH",
"148 391 OFFCURVE",
"177 411 OFFCURVE",
"217 411 CURVE SMOOTH",
"278 411 OFFCURVE",
"307 358 OFFCURVE",
"307 297 CURVE SMOOTH",
"307 279 LINE SMOOTH",
"307 252 OFFCURVE",
"297 239 OFFCURVE",
"265 227 CURVE SMOOTH",
"74 158 LINE SMOOTH",
"64 154 OFFCURVE",
"60 146 OFFCURVE",
"60 124 CURVE SMOOTH",
"60 59 OFFCURVE",
"117 -7 OFFCURVE",
"178 -7 CURVE SMOOTH"
);
},
{
closed = 1;
nodes = (
"175 41 OFFCURVE",
"132 82 OFFCURVE",
"132 121 CURVE SMOOTH",
"132 142 OFFCURVE",
"135 151 OFFCURVE",
"143 154 CURVE SMOOTH",
"300 213 LINE",
"304 215 OFFCURVE",
"308 212 OFFCURVE",
"308 208 CURVE SMOOTH",
"308 116 LINE SMOOTH",
"308 99 OFFCURVE",
"301 85 OFFCURVE",
"291 77 CURVE",
"262 56 OFFCURVE",
"233 41 OFFCURVE",
"206 41 CURVE SMOOTH"
);
}
);
};
components = (
{
name = e;
transform = "{1, 0, 0, 1, 263, 0}";
}
);
layerId = "BD647A82-329A-4004-812E-9CBC2DAE5B44";
paths = (
{
closed = 1;
nodes = (
"224 -7 OFFCURVE",
"288 39 OFFCURVE",
"350 82 CURVE",
"375 105 LINE",
"375 297 LINE SMOOTH",
"375 370 OFFCURVE",
"329 434 OFFCURVE",
"233 434 CURVE SMOOTH",
"156 434 OFFCURVE",
"78 379 OFFCURVE",
"78 311 CURVE SMOOTH",
"78 278 OFFCURVE",
"96 259 OFFCURVE",
"125 259 CURVE SMOOTH",
"152 259 OFFCURVE",
"172 275 OFFCURVE",
"172 301 CURVE SMOOTH",
"172 314 OFFCURVE",
"166 326 OFFCURVE",
"158 337 CURVE SMOOTH",
"153 344 OFFCURVE",
"148 351 OFFCURVE",
"148 359 CURVE SMOOTH",
"148 391 OFFCURVE",
"177 411 OFFCURVE",
"217 411 CURVE SMOOTH",
"278 411 OFFCURVE",
"307 358 OFFCURVE",
"307 297 CURVE SMOOTH",
"307 279 LINE SMOOTH",
"307 252 OFFCURVE",
"297 239 OFFCURVE",
"265 227 CURVE SMOOTH",
"74 158 LINE SMOOTH",
"64 154 OFFCURVE",
"60 146 OFFCURVE",
"60 124 CURVE SMOOTH",
"60 59 OFFCURVE",
"117 -7 OFFCURVE",
"178 -7 CURVE SMOOTH"
);
},
{
closed = 1;
nodes = (
"175 41 OFFCURVE",
"132 82 OFFCURVE",
"132 121 CURVE SMOOTH",
"132 142 OFFCURVE",
"135 151 OFFCURVE",
"143 154 CURVE SMOOTH",
"300 213 LINE",
"304 215 OFFCURVE",
"308 212 OFFCURVE",
"308 208 CURVE SMOOTH",
"308 116 LINE SMOOTH",
"308 99 OFFCURVE",
"301 85 OFFCURVE",
"291 77 CURVE",
"262 56 OFFCURVE",
"233 41 OFFCURVE",
"206 41 CURVE SMOOTH"
);
}
);
width = 712;
},
{
background = {
paths = (
{
closed = 1;
nodes = (
"226 -7 OFFCURVE",
"281 35 OFFCURVE",
"327 73 CURVE",
"299 96 LINE",
"299 81 LINE",
"407 97 LINE",
"407 314 LINE SMOOTH",
"407 411 OFFCURVE",
"326 452 OFFCURVE",
"237 452 CURVE SMOOTH",
"150 452 OFFCURVE",
"58 392 OFFCURVE",
"58 318 CURVE SMOOTH",
"58 282 OFFCURVE",
"79 261 OFFCURVE",
"115 261 CURVE SMOOTH",
"150 261 OFFCURVE",
"176 280 OFFCURVE",
"176 312 CURVE SMOOTH",
"176 328 OFFCURVE",
"168 342 OFFCURVE",
"158 355 CURVE SMOOTH",
"151 364 OFFCURVE",
"145 372 OFFCURVE",
"145 382 CURVE SMOOTH",
"145 400 OFFCURVE",
"169 419 OFFCURVE",
"207 419 CURVE SMOOTH",
"263 419 OFFCURVE",
"290 386 OFFCURVE",
"290 328 CURVE SMOOTH",
"290 291 LINE SMOOTH",
"290 271 OFFCURVE",
"285 262 OFFCURVE",
"261 253 CURVE SMOOTH",
"55 176 LINE SMOOTH",
"44 172 OFFCURVE",
"40 164 OFFCURVE",
"40 140 CURVE SMOOTH",
"40 62 OFFCURVE",
"95 -7 OFFCURVE",
"173 -7 CURVE SMOOTH"
);
},
{
closed = 1;
nodes = (
"188 53 OFFCURVE",
"154 102 OFFCURVE",
"154 150 CURVE SMOOTH",
"154 171 OFFCURVE",
"157 177 OFFCURVE",
"165 180 CURVE SMOOTH",
"284 223 LINE",
"288 225 OFFCURVE",
"290 223 OFFCURVE",
"290 219 CURVE SMOOTH",
"290 100 LINE SMOOTH",
"290 87 OFFCURVE",
"287 78 OFFCURVE",
"279 72 CURVE",
"260 60 OFFCURVE",
"248 53 OFFCURVE",
"229 53 CURVE SMOOTH"
);
}
);
};
components = (
{
name = e;
transform = "{1, 0, 0, 1, 265, 0}";
}
);
layerId = "3BF888B6-F1E5-4C4E-A417-A1F2F5FF24CA";
paths = (
{
closed = 1;
nodes = (
"238 -7 OFFCURVE",
"314 46 OFFCURVE",
"362 89 CURVE",
"407 97 LINE",
"407 314 LINE SMOOTH",
"407 411 OFFCURVE",
"326 452 OFFCURVE",
"237 452 CURVE SMOOTH",
"150 452 OFFCURVE",
"58 392 OFFCURVE",
"58 318 CURVE SMOOTH",
"58 282 OFFCURVE",
"79 261 OFFCURVE",
"115 261 CURVE SMOOTH",
"150 261 OFFCURVE",
"176 280 OFFCURVE",
"176 312 CURVE SMOOTH",
"176 328 OFFCURVE",
"168 342 OFFCURVE",
"158 355 CURVE SMOOTH",
"151 364 OFFCURVE",
"145 372 OFFCURVE",
"145 382 CURVE SMOOTH",
"145 400 OFFCURVE",
"169 419 OFFCURVE",
"207 419 CURVE SMOOTH",
"263 419 OFFCURVE",
"290 386 OFFCURVE",
"290 328 CURVE SMOOTH",
"290 291 LINE SMOOTH",
"290 271 OFFCURVE",
"285 262 OFFCURVE",
"261 253 CURVE SMOOTH",
"55 176 LINE SMOOTH",
"44 172 OFFCURVE",
"40 164 OFFCURVE",
"40 140 CURVE SMOOTH",
"40 62 OFFCURVE",
"95 -7 OFFCURVE",
"173 -7 CURVE SMOOTH"
);
},
{
closed = 1;
nodes = (
"188 53 OFFCURVE",
"154 102 OFFCURVE",
"154 150 CURVE SMOOTH",
"154 171 OFFCURVE",
"157 177 OFFCURVE",
"165 180 CURVE SMOOTH",
"284 223 LINE",
"288 225 OFFCURVE",
"290 223 OFFCURVE",
"290 219 CURVE SMOOTH",
"290 100 LINE SMOOTH",
"290 87 OFFCURVE",
"287 78 OFFCURVE",
"279 72 CURVE SMOOTH",
"260 60 OFFCURVE",
"248 53 OFFCURVE",
"229 53 CURVE SMOOTH"
);
}
);
width = 723;
}
);
leftKerningGroup = a;
leftMetricsKey = a;
rightKerningGroup = e;
rightMetricsKey = e;
unicode = 00E6;
},
{
glyphname = b;
lastChange = "2019-09-13 01:40:13 +0000";
layers = (
{
background = {
paths = (
{
closed = 1;
nodes = (
"277 434 OFFCURVE",
"262 428 OFFCURVE",
"253 423 CURVE",
"159 376 LINE",
"155 376 LINE",
"148 430 LINE",
"140 434 LINE",
"97 429 OFFCURVE",
"55 422 OFFCURVE",
"12 420 CURVE",
"12 401 LINE",
"67 405 OFFCURVE",
"96 392 OFFCURVE",
"96 352 CURVE SMOOTH",
"97 -177 LINE SMOOTH",
"97 -223 OFFCURVE",
"96 -251 OFFCURVE",
"85 -281 CURVE",
"94 -287 LINE",
"138 -264 OFFCURVE",
"195 -253 OFFCURVE",
"243 -243 CURVE",
"243 -233 LINE",
"188 -221 LINE SMOOTH",
"170 -217 OFFCURVE",
"164 -207 OFFCURVE",
"164 -181 CURVE SMOOTH",
"163 24 LINE",
"188 6 OFFCURVE",
"235 -9 OFFCURVE",
"286 -9 CURVE SMOOTH",
"431 -9 OFFCURVE",
"499 109 OFFCURVE",
"499 222 CURVE SMOOTH",
"499 333 OFFCURVE",
"433 434 OFFCURVE",
"290 434 CURVE SMOOTH"
);
},
{
closed = 1;
nodes = (
"381 383 OFFCURVE",
"429 290 OFFCURVE",
"429 189 CURVE SMOOTH",
"429 100 OFFCURVE",
"386 17 OFFCURVE",
"288 17 CURVE SMOOTH",
"221 17 OFFCURVE",
"161 77 OFFCURVE",
"161 152 CURVE SMOOTH",
"161 293 LINE SMOOTH",
"161 341 OFFCURVE",
"202 383 OFFCURVE",
"271 383 CURVE SMOOTH"
);
}
);
};
layerId = "BD647A82-329A-4004-812E-9CBC2DAE5B44";
paths = (
{
closed = 1;
nodes = (
"118 12 OFFCURVE",
"132 30 OFFCURVE",
"151 46 CURVE",
"182 15 OFFCURVE",
"235 -8 OFFCURVE",
"286 -8 CURVE SMOOTH",
"431 -8 OFFCURVE",
"499 109 OFFCURVE",
"499 222 CURVE SMOOTH",
"499 333 OFFCURVE",
"432 434 OFFCURVE",
"289 434 CURVE SMOOTH",
"276 434 OFFCURVE",
"261 427 OFFCURVE",
"252 423 CURVE SMOOTH",
"161 377 LINE",
"161 602 LINE SMOOTH",
"161 648 OFFCURVE",
"162 676 OFFCURVE",
"173 706 CURVE",
"164 712 LINE",
"120 689 OFFCURVE",
"73 678 OFFCURVE",
"25 668 CURVE",
"25 658 LINE",
"71 646 LINE SMOOTH",
"89 641 OFFCURVE",
"95 632 OFFCURVE",
"95 606 CURVE SMOOTH",
"95 -10 LINE",
"104 -12 LINE"
);
},
{
closed = 1;
nodes = (
"221 18 OFFCURVE",
"161 78 OFFCURVE",
"161 153 CURVE SMOOTH",
"161 294 LINE SMOOTH",
"161 342 OFFCURVE",
"201 383 OFFCURVE",
"270 383 CURVE SMOOTH",
"380 383 OFFCURVE",
"429 290 OFFCURVE",
"429 190 CURVE SMOOTH",
"429 100 OFFCURVE",
"385 18 OFFCURVE",
"288 18 CURVE SMOOTH"
);
}
);
width = 544;
},
{
layerId = "3BF888B6-F1E5-4C4E-A417-A1F2F5FF24CA";
paths = (
{
closed = 1;
nodes = (
"114 11 OFFCURVE",
"128 31 OFFCURVE",
"144 48 CURVE",
"179 16 OFFCURVE",
"239 -9 OFFCURVE",
"296 -9 CURVE SMOOTH",
"458 -9 OFFCURVE",
"533 112 OFFCURVE",
"533 229 CURVE SMOOTH",
"533 345 OFFCURVE",
"464 450 OFFCURVE",
"314 450 CURVE SMOOTH",
"301 450 OFFCURVE",
"285 444 OFFCURVE",
"276 439 CURVE SMOOTH",
"196 394 LINE",
"196 618 LINE SMOOTH",
"196 654 OFFCURVE",
"201 687 OFFCURVE",
"210 702 CURVE",
"200 710 LINE",
"142 689 OFFCURVE",
"96 682 OFFCURVE",
"20 672 CURVE",
"20 654 LINE",
"52 646 LINE SMOOTH",
"69 642 OFFCURVE",
"79 636 OFFCURVE",
"79 608 CURVE SMOOTH",
"79 -9 LINE",
"100 -12 LINE"
);
},
{
closed = 1;
nodes = (
"243 26 OFFCURVE",
"196 85 OFFCURVE",
"196 155 CURVE SMOOTH",
"196 292 LINE SMOOTH",
"196 339 OFFCURVE",
"228 379 OFFCURVE",
"282 379 CURVE SMOOTH",
"367 379 OFFCURVE",
"405 288 OFFCURVE",
"405 191 CURVE SMOOTH",
"405 106 OFFCURVE",
"371 26 OFFCURVE",
"296 26 CURVE SMOOTH"
);
}
);
width = 558;
}
);
leftKerningGroup = b;
leftMetricsKey = "=n-10";
rightKerningGroup = o;
rightMetricsKey = o;
unicode = 0062;
},
{
glyphname = c;
lastChange = "2016-01-04 10:24:31 +0000";
layers = (
{
anchors = (
{
name = bottom;
position = "{242, -50}";
},
{
name = top;
position = "{254, 470}";
}
);
background = {
paths = (
{
closed = 1;
nodes = (
"294 -8 OFFCURVE",
"362 22 OFFCURVE",
"411 93 CURVE",
"399 103 LINE",
"357 68 OFFCURVE",
"311 50 OFFCURVE",
"268 50 CURVE SMOOTH",
"184 50 OFFCURVE",
"116 112 OFFCURVE",
"116 229 CURVE SMOOTH",
"116 362 OFFCURVE",
"184 408 OFFCURVE",
"247 408 CURVE SMOOTH",
"291 408 OFFCURVE",
"324 390 OFFCURVE",
"324 361 CURVE SMOOTH",
"324 353 OFFCURVE",
"320 347 OFFCURVE",
"317 340 CURVE",
"313 332 OFFCURVE",
"310 323 OFFCURVE",
"310 314 CURVE SMOOTH",
"310 285 OFFCURVE",
"329 268 OFFCURVE",
"364 268 CURVE SMOOTH",
"392 268 OFFCURVE",
"409 289 OFFCURVE",
"409 322 CURVE SMOOTH",
"409 383 OFFCURVE",
"355 434 OFFCURVE",
"254 434 CURVE SMOOTH",
"151 434 OFFCURVE",
"45 342 OFFCURVE",
"45 203 CURVE SMOOTH",
"45 83 OFFCURVE",
"126 -8 OFFCURVE",
"242 -8 CURVE SMOOTH"
);
}
);
};
layerId = "BD647A82-329A-4004-812E-9CBC2DAE5B44";
paths = (
{
closed = 1;
nodes = (
"294 -8 OFFCURVE",
"362 22 OFFCURVE",
"411 93 CURVE",
"399 103 LINE",
"357 68 OFFCURVE",
"311 50 OFFCURVE",
"268 50 CURVE SMOOTH",
"184 50 OFFCURVE",
"116 112 OFFCURVE",
"116 229 CURVE SMOOTH",
"116 362 OFFCURVE",
"184 408 OFFCURVE",
"247 408 CURVE SMOOTH",
"291 408 OFFCURVE",
"324 390 OFFCURVE",
"324 361 CURVE SMOOTH",
"324 353 OFFCURVE",
"320 347 OFFCURVE",
"317 340 CURVE SMOOTH",
"313 332 OFFCURVE",
"310 322 OFFCURVE",
"310 312 CURVE SMOOTH",
"310 284 OFFCURVE",
"335 267 OFFCURVE",
"360 267 CURVE SMOOTH",
"384 267 OFFCURVE",
"409 284 OFFCURVE",
"409 322 CURVE SMOOTH",
"409 383 OFFCURVE",
"355 434 OFFCURVE",
"254 434 CURVE SMOOTH",
"151 434 OFFCURVE",
"45 342 OFFCURVE",
"45 203 CURVE SMOOTH",
"45 83 OFFCURVE",
"126 -8 OFFCURVE",
"242 -8 CURVE SMOOTH"
);
}
);
width = 446;
},
{
anchors = (
{
name = bottom;
position = "{237, -50}";
},
{
name = top;
position = "{256, 470}";
}
);
background = {
paths = (
{
closed = 1;
nodes = (
"294 3 OFFCURVE",
"362 33 OFFCURVE",
"411 104 CURVE",
"399 114 LINE",
"357 79 OFFCURVE",
"311 61 OFFCURVE",
"268 61 CURVE SMOOTH",
"184 61 OFFCURVE",
"116 123 OFFCURVE",
"116 240 CURVE SMOOTH",
"116 373 OFFCURVE",
"184 419 OFFCURVE",
"247 419 CURVE SMOOTH",
"291 419 OFFCURVE",
"324 401 OFFCURVE",
"324 372 CURVE SMOOTH",
"324 364 OFFCURVE",
"320 358 OFFCURVE",
"317 351 CURVE SMOOTH",
"313 343 OFFCURVE",
"310 333 OFFCURVE",
"310 323 CURVE SMOOTH",
"310 295 OFFCURVE",
"335 278 OFFCURVE",
"360 278 CURVE SMOOTH",
"384 278 OFFCURVE",
"409 295 OFFCURVE",
"409 333 CURVE SMOOTH",
"409 394 OFFCURVE",
"355 445 OFFCURVE",
"254 445 CURVE SMOOTH",
"151 445 OFFCURVE",
"45 353 OFFCURVE",
"45 214 CURVE SMOOTH",
"45 94 OFFCURVE",
"126 3 OFFCURVE",
"242 3 CURVE SMOOTH"
);
},
{
closed = 1;
nodes = (
"317 -8 OFFCURVE",
"379 25 OFFCURVE",
"433 99 CURVE",
"416 115 LINE",
"376 81 OFFCURVE",
"339 65 OFFCURVE",
"298 65 CURVE SMOOTH",
"219 65 OFFCURVE",
"153 126 OFFCURVE",
"153 239 CURVE SMOOTH",
"153 347 OFFCURVE",
"197 420 OFFCURVE",
"258 420 CURVE SMOOTH",
"296 420 OFFCURVE",
"325 404 OFFCURVE",
"325 377 CURVE SMOOTH",
"325 356 OFFCURVE",
"310 348 OFFCURVE",
"310 323 CURVE SMOOTH",
"310 250 OFFCURVE",
"425 247 OFFCURVE",
"425 330 CURVE SMOOTH",
"425 402 OFFCURVE",
"361 452 OFFCURVE",
"257 452 CURVE SMOOTH",
"124 452 OFFCURVE",
"25 355 OFFCURVE",
"25 216 CURVE SMOOTH",
"25 91 OFFCURVE",
"117 -8 OFFCURVE",
"245 -8 CURVE SMOOTH"
);
}
);
};
layerId = "3BF888B6-F1E5-4C4E-A417-A1F2F5FF24CA";
paths = (
{
closed = 1;
nodes = (
"317 -8 OFFCURVE",
"379 25 OFFCURVE",
"433 99 CURVE",
"416 115 LINE",
"376 81 OFFCURVE",
"339 65 OFFCURVE",
"298 65 CURVE SMOOTH",
"219 65 OFFCURVE",
"153 126 OFFCURVE",
"153 239 CURVE SMOOTH",
"153 347 OFFCURVE",
"197 420 OFFCURVE",
"258 420 CURVE SMOOTH",
"296 420 OFFCURVE",
"325 404 OFFCURVE",
"325 377 CURVE SMOOTH",
"325 367 OFFCURVE",
"321 361 OFFCURVE",
"318 354 CURVE SMOOTH",
"312 342 OFFCURVE",
"310 332 OFFCURVE",
"310 322 CURVE SMOOTH",
"310 288 OFFCURVE",
"334 268 OFFCURVE",
"369 268 CURVE SMOOTH",
"400 268 OFFCURVE",
"425 287 OFFCURVE",
"425 330 CURVE SMOOTH",
"425 402 OFFCURVE",
"361 452 OFFCURVE",
"257 452 CURVE SMOOTH",
"124 452 OFFCURVE",
"25 355 OFFCURVE",
"25 216 CURVE SMOOTH",
"25 91 OFFCURVE",
"117 -8 OFFCURVE",
"245 -8 CURVE SMOOTH"
);
}
);
width = 453;
}
);
leftKerningGroup = o;
leftMetricsKey = o;
rightKerningGroup = c;
unicode = 0063;
},
{
glyphname = d;
lastChange = "2015-09-02 16:11:02 +0000";
layers = (
{
background = {
paths = (
{
closed = 1;
nodes = (
"307 669 LINE",
"307 654 LINE",
"355 643 LINE SMOOTH",
"375 638 OFFCURVE",
"381 630 OFFCURVE",
"381 611 CURVE SMOOTH",
"381 394 LINE",
"356 412 OFFCURVE",
"309 427 OFFCURVE",
"258 427 CURVE SMOOTH",
"113 427 OFFCURVE",
"45 310 OFFCURVE",
"45 197 CURVE SMOOTH",
"45 86 OFFCURVE",
"111 -15 OFFCURVE",
"254 -15 CURVE SMOOTH",
"267 -15 OFFCURVE",
"282 -9 OFFCURVE",
"291 -4 CURVE",
"385 43 LINE",
"387 43 LINE",
"387 24 OFFCURVE",
"382 3 OFFCURVE",
"375 -13 CURVE",
"384 -19 LINE",
"425 4 OFFCURVE",
"469 15 OFFCURVE",
"515 25 CURVE",
"515 35 LINE",
"472 47 LINE SMOOTH",
"454 52 OFFCURVE",
"448 61 OFFCURVE",
"448 87 CURVE SMOOTH",
"448 611 LINE SMOOTH",
"448 630 OFFCURVE",
"454 638 OFFCURVE",
"474 643 CURVE SMOOTH",
"516 654 LINE",
"516 669 LINE"
);
},
{
closed = 1;
nodes = (
"323 401 OFFCURVE",
"383 341 OFFCURVE",
"383 266 CURVE SMOOTH",
"383 125 LINE SMOOTH",
"383 77 OFFCURVE",
"342 36 OFFCURVE",
"273 36 CURVE SMOOTH",
"163 36 OFFCURVE",
"115 129 OFFCURVE",
"115 229 CURVE SMOOTH",
"115 319 OFFCURVE",
"159 401 OFFCURVE",
"256 401 CURVE SMOOTH"
);
}
);
};
layerId = "BD647A82-329A-4004-812E-9CBC2DAE5B44";
paths = (
{
closed = 1;
nodes = (
"267 -8 OFFCURVE",
"282 -2 OFFCURVE",
"291 3 CURVE",
"385 50 LINE",
"389 50 LINE",
"396 -4 LINE",
"404 -8 LINE",
"447 -3 OFFCURVE",
"489 3 OFFCURVE",
"532 5 CURVE",
"532 24 LINE",
"477 21 OFFCURVE",
"448 34 OFFCURVE",
"448 73 CURVE SMOOTH",
"448 602 LINE SMOOTH",
"448 648 OFFCURVE",
"449 676 OFFCURVE",
"460 706 CURVE",
"451 712 LINE",
"407 689 OFFCURVE",
"350 678 OFFCURVE",
"302 668 CURVE",
"302 658 LINE",
"357 646 LINE SMOOTH",
"375 642 OFFCURVE",
"381 632 OFFCURVE",
"381 606 CURVE SMOOTH",
"381 401 LINE",
"356 419 OFFCURVE",
"309 434 OFFCURVE",
"258 434 CURVE SMOOTH",
"113 434 OFFCURVE",
"45 317 OFFCURVE",
"45 204 CURVE SMOOTH",
"45 93 OFFCURVE",
"111 -8 OFFCURVE",
"254 -8 CURVE SMOOTH"
);
},
{
closed = 1;
nodes = (
"163 39 OFFCURVE",
"115 124 OFFCURVE",
"115 236 CURVE SMOOTH",
"115 326 OFFCURVE",
"159 408 OFFCURVE",
"256 408 CURVE SMOOTH",
"323 408 OFFCURVE",
"383 348 OFFCURVE",
"383 273 CURVE SMOOTH",
"383 132 LINE SMOOTH",
"383 84 OFFCURVE",
"338 39 OFFCURVE",
"273 39 CURVE SMOOTH"
);
}
);
width = 554;
},
{
background = {
paths = (
{
closed = 1;
nodes = (
"257 -8 OFFCURVE",
"273 -2 OFFCURVE",
"282 3 CURVE SMOOTH",
"369 52 LINE",
"373 52 LINE",
"381 -3 LINE",
"391 -8 LINE",
"449 -1 OFFCURVE",
"505 7 OFFCURVE",
"562 9 CURVE",
"562 35 LINE",
"508 35 OFFCURVE",
"479 43 OFFCURVE",
"479 100 CURVE SMOOTH",
"479 618 LINE SMOOTH",
"479 654 OFFCURVE",
"484 687 OFFCURVE",
"493 702 CURVE",
"483 710 LINE",
"425 689 OFFCURVE",
"379 682 OFFCURVE",
"303 672 CURVE",
"303 654 LINE",
"335 646 LINE SMOOTH",
"352 642 OFFCURVE",
"362 636 OFFCURVE",
"362 608 CURVE SMOOTH",
"362 426 LINE",
"334 440 OFFCURVE",
"292 451 OFFCURVE",
"248 451 CURVE SMOOTH",
"96 451 OFFCURVE",
"25 329 OFFCURVE",
"25 213 CURVE SMOOTH",
"25 97 OFFCURVE",
"94 -8 OFFCURVE",
"244 -8 CURVE SMOOTH"
);
},
{
closed = 1;
nodes = (
"191 63 OFFCURVE",
"153 154 OFFCURVE",
"153 251 CURVE SMOOTH",
"153 336 OFFCURVE",
"187 416 OFFCURVE",
"262 416 CURVE SMOOTH",
"315 416 OFFCURVE",
"362 357 OFFCURVE",
"362 287 CURVE SMOOTH",
"362 150 LINE SMOOTH",
"362 103 OFFCURVE",
"330 63 OFFCURVE",
"276 63 CURVE SMOOTH"
);
}
);
};
layerId = "3BF888B6-F1E5-4C4E-A417-A1F2F5FF24CA";
paths = (
{
closed = 1;
nodes = (
"257 -8 OFFCURVE",
"273 -2 OFFCURVE",
"282 3 CURVE SMOOTH",
"369 52 LINE",
"373 52 LINE",
"381 -3 LINE",
"391 -8 LINE",
"449 -1 OFFCURVE",
"496 7 OFFCURVE",
"553 9 CURVE",
"553 35 LINE",
"500 35 OFFCURVE",
"479 52 OFFCURVE",
"479 96 CURVE SMOOTH",
"479 618 LINE SMOOTH",
"479 654 OFFCURVE",
"484 687 OFFCURVE",
"493 702 CURVE",
"483 710 LINE",
"425 689 OFFCURVE",
"379 682 OFFCURVE",
"303 672 CURVE",
"303 654 LINE",
"335 646 LINE SMOOTH",
"352 642 OFFCURVE",
"362 636 OFFCURVE",
"362 608 CURVE SMOOTH",
"362 426 LINE",
"334 440 OFFCURVE",
"292 451 OFFCURVE",
"248 451 CURVE SMOOTH",
"96 451 OFFCURVE",
"25 329 OFFCURVE",
"25 213 CURVE SMOOTH",
"25 97 OFFCURVE",
"94 -8 OFFCURVE",
"244 -8 CURVE SMOOTH"
);
},
{
closed = 1;
nodes = (
"191 63 OFFCURVE",
"153 154 OFFCURVE",
"153 251 CURVE SMOOTH",
"153 336 OFFCURVE",
"187 416 OFFCURVE",
"262 416 CURVE SMOOTH",
"315 416 OFFCURVE",
"362 357 OFFCURVE",
"362 287 CURVE SMOOTH",
"362 150 LINE SMOOTH",
"362 103 OFFCURVE",
"330 63 OFFCURVE",
"276 63 CURVE SMOOTH"
);
}
);
width = 565;
}
);
leftKerningGroup = o;
leftMetricsKey = o;
rightKerningGroup = d;
rightMetricsKey = "=i-3";
unicode = 0064;
},
{
glyphname = eth;
lastChange = "2015-08-27 12:26:29 +0000";
layers = (
{
components = (
{
name = partialdiff;
transform = "{1, 0, 0, 1, -10, 0}";
}
);
layerId = "BD647A82-329A-4004-812E-9CBC2DAE5B44";
paths = (
{
closed = 1;
nodes = (
"513 592 LINE",
"501 618 LINE",
"231 499 LINE",
"243 472 LINE"
);
}
);
width = 518;
},
{
background = {
paths = (
{
closed = 1;
nodes = (
"253 472 LINE",
"523 592 LINE",
"511 618 LINE",
"241 499 LINE"
);
}
);
};
components = (
{
name = partialdiff;
}
);
layerId = "3BF888B6-F1E5-4C4E-A417-A1F2F5FF24CA";
paths = (
{
closed = 1;
nodes = (
"542 593 LINE",
"524 630 LINE",
"237 503 LINE",
"255 465 LINE"
);
}
);
width = 547;
}
);
leftKerningGroup = o;
unicode = 00F0;
},
{
glyphname = dcaron;
lastChange = "2015-08-06 11:09:35 +0000";
layers = (
{
background = {
paths = (
{
closed = 1;
nodes = (
"597 623 LINE SMOOTH",
"600 629 OFFCURVE",
"604 636 OFFCURVE",
"604 645 CURVE SMOOTH",
"604 662 OFFCURVE",
"592 679 OFFCURVE",
"569 679 CURVE SMOOTH",
"554 679 OFFCURVE",
"540 668 OFFCURVE",
"537 653 CURVE SMOOTH",
"491 459 LINE",
"515 453 LINE"
);
}
);
};
components = (
{
alignment = -1;
name = d;
},
{
name = caroncomb.alt;
transform = "{1, 0, 0, 1, 312, 0}";
}
);
layerId = "BD647A82-329A-4004-812E-9CBC2DAE5B44";
width = 644;
},
{
background = {
paths = (
{
closed = 1;
nodes = (
"299 -8 OFFCURVE",
"314 -2 OFFCURVE",
"323 3 CURVE",
"417 50 LINE",
"421 50 LINE",
"428 -4 LINE",
"436 -8 LINE",
"479 -3 OFFCURVE",
"521 3 OFFCURVE",
"564 5 CURVE",
"564 24 LINE",
"509 21 OFFCURVE",
"480 34 OFFCURVE",
"480 73 CURVE SMOOTH",
"480 602 LINE SMOOTH",
"480 648 OFFCURVE",
"481 676 OFFCURVE",
"492 706 CURVE",
"483 712 LINE",
"439 689 OFFCURVE",
"382 678 OFFCURVE",
"334 668 CURVE",
"334 658 LINE",
"389 646 LINE SMOOTH",
"407 642 OFFCURVE",
"413 632 OFFCURVE",
"413 606 CURVE SMOOTH",
"413 401 LINE",
"388 419 OFFCURVE",
"341 434 OFFCURVE",
"290 434 CURVE SMOOTH",
"145 434 OFFCURVE",
"77 317 OFFCURVE",
"77 204 CURVE SMOOTH",
"77 93 OFFCURVE",
"143 -8 OFFCURVE",
"286 -8 CURVE SMOOTH"
);
},
{
closed = 1;
nodes = (
"195 39 OFFCURVE",
"147 124 OFFCURVE",
"147 236 CURVE SMOOTH",
"147 326 OFFCURVE",
"191 408 OFFCURVE",
"288 408 CURVE SMOOTH",
"355 408 OFFCURVE",
"415 348 OFFCURVE",
"415 273 CURVE SMOOTH",
"415 132 LINE SMOOTH",
"415 84 OFFCURVE",
"370 39 OFFCURVE",
"305 39 CURVE SMOOTH"
);
},
{
closed = 1;
nodes = (
"659 643 LINE SMOOTH",
"662 649 OFFCURVE",
"666 656 OFFCURVE",
"666 665 CURVE SMOOTH",
"666 682 OFFCURVE",
"654 699 OFFCURVE",
"631 699 CURVE SMOOTH",
"616 699 OFFCURVE",
"602 688 OFFCURVE",
"599 673 CURVE SMOOTH",
"553 479 LINE",
"577 473 LINE"
);
}
);
};
components = (
{
alignment = -1;
name = d;
},
{
name = caroncomb.alt;
transform = "{1, 0, 0, 1, 307, 0}";
}
);
layerId = "3BF888B6-F1E5-4C4E-A417-A1F2F5FF24CA";
width = 663;
}
);
leftKerningGroup = o;
leftMetricsKey = d;
rightKerningGroup = dcaron;
unicode = 010F;
},
{
glyphname = dcroat;
lastChange = "2017-01-02 17:19:29 +0000";
layers = (
{
layerId = "BD647A82-329A-4004-812E-9CBC2DAE5B44";
paths = (
{
closed = 1;
nodes = (
"267 -8 OFFCURVE",
"282 -2 OFFCURVE",
"291 3 CURVE",
"385 50 LINE",
"389 50 LINE",
"396 -4 LINE",
"404 -8 LINE",
"447 -3 OFFCURVE",
"489 3 OFFCURVE",
"532 5 CURVE",
"532 24 LINE",
"477 21 OFFCURVE",
"448 34 OFFCURVE",
"448 73 CURVE SMOOTH",
"448 602 LINE SMOOTH",
"448 648 OFFCURVE",
"449 676 OFFCURVE",
"460 706 CURVE",
"451 712 LINE",
"407 689 OFFCURVE",
"350 678 OFFCURVE",
"302 668 CURVE",
"302 658 LINE",
"357 646 LINE SMOOTH",
"375 642 OFFCURVE",
"381 632 OFFCURVE",
"381 606 CURVE SMOOTH",
"381 391 LINE",
"356 409 OFFCURVE",
"309 424 OFFCURVE",
"258 424 CURVE SMOOTH",
"113 424 OFFCURVE",
"45 310 OFFCURVE",
"45 199 CURVE SMOOTH",
"45 91 OFFCURVE",
"111 -8 OFFCURVE",
"254 -8 CURVE SMOOTH"
);
},
{
closed = 1;
nodes = (
"163 39 OFFCURVE",
"115 122 OFFCURVE",
"115 231 CURVE SMOOTH",
"115 318 OFFCURVE",
"159 398 OFFCURVE",
"256 398 CURVE SMOOTH",
"323 398 OFFCURVE",
"383 340 OFFCURVE",
"383 267 CURVE SMOOTH",
"383 132 LINE SMOOTH",
"383 84 OFFCURVE",
"338 39 OFFCURVE",
"273 39 CURVE SMOOTH"
);
},
{
closed = 1;
nodes = (
"517 536 LINE",
"517 566 LINE",
"191 566 LINE",
"191 536 LINE"
);
}
);
width = 554;
},
{
layerId = "3BF888B6-F1E5-4C4E-A417-A1F2F5FF24CA";
paths = (
{
closed = 1;
nodes = (
"257 -8 OFFCURVE",
"273 -2 OFFCURVE",
"282 3 CURVE SMOOTH",
"369 52 LINE",
"373 52 LINE",
"381 -3 LINE",
"391 -8 LINE",
"449 -1 OFFCURVE",
"496 7 OFFCURVE",
"553 9 CURVE",
"553 35 LINE",
"500 35 OFFCURVE",
"479 52 OFFCURVE",
"479 96 CURVE SMOOTH",
"479 618 LINE SMOOTH",
"479 654 OFFCURVE",
"484 687 OFFCURVE",
"493 702 CURVE",
"483 710 LINE",
"425 689 OFFCURVE",
"379 682 OFFCURVE",
"303 672 CURVE",
"303 654 LINE",
"335 646 LINE SMOOTH",
"352 642 OFFCURVE",
"362 636 OFFCURVE",
"362 608 CURVE SMOOTH",
"362 416 LINE",
"334 430 OFFCURVE",
"292 441 OFFCURVE",
"248 441 CURVE SMOOTH",
"96 441 OFFCURVE",
"25 322 OFFCURVE",
"25 208 CURVE SMOOTH",
"25 95 OFFCURVE",
"94 -8 OFFCURVE",
"244 -8 CURVE SMOOTH"
);
},
{
closed = 1;
nodes = (
"191 63 OFFCURVE",
"153 151 OFFCURVE",
"153 246 CURVE SMOOTH",
"153 328 OFFCURVE",
"187 406 OFFCURVE",
"262 406 CURVE SMOOTH",
"315 406 OFFCURVE",
"362 350 OFFCURVE",
"362 284 CURVE SMOOTH",
"362 150 LINE SMOOTH",
"362 103 OFFCURVE",
"330 63 OFFCURVE",
"276 63 CURVE SMOOTH"
);
},
{
closed = 1;
nodes = (
"538 526 LINE",
"538 573 LINE",
"200 573 LINE",
"200 526 LINE"
);
}
);
width = 565;
}
);
leftKerningGroup = o;
leftMetricsKey = d;
rightMetricsKey = d;
unicode = 0111;
},
{
glyphname = e;
lastChange = "2019-09-13 01:15:42 +0000";
layers = (
{
anchors = (
{
name = bottom;
position = "{253, -51}";
},
{
name = ogonek;
position = "{250, -51}";
},
{
name = top;
position = "{251, 470}";
}
);
background = {
paths = (
{
closed = 1;
nodes = (
"296 -8 OFFCURVE",
"360 22 OFFCURVE",
"409 93 CURVE",
"397 103 LINE",
"355 68 OFFCURVE",
"313 50 OFFCURVE",
"270 50 CURVE SMOOTH",
"186 50 OFFCURVE",
"116 112 OFFCURVE",
"116 229 CURVE SMOOTH",
"116 336 OFFCURVE",
"166 408 OFFCURVE",
"239 408 CURVE SMOOTH",
"298 408 OFFCURVE",
"324 358 OFFCURVE",
"324 295 CURVE SMOOTH",
"324 284 OFFCURVE",
"319 277 OFFCURVE",
"305 277 CURVE SMOOTH",
"100 271 LINE",
"100 251 LINE",
"389 251 LINE SMOOTH",
"401 251 OFFCURVE",
"405 259 OFFCURVE",
"405 267 CURVE SMOOTH",
"405 362 OFFCURVE",
"343 434 OFFCURVE",
"250 434 CURVE SMOOTH",
"133 434 OFFCURVE",
"45 340 OFFCURVE",
"45 207 CURVE SMOOTH",
"45 87 OFFCURVE",
"128 -8 OFFCURVE",
"244 -8 CURVE SMOOTH"
);
}
);
};
layerId = "BD647A82-329A-4004-812E-9CBC2DAE5B44";
paths = (
{
closed = 1;
nodes = (
"296 -8 OFFCURVE",
"360 22 OFFCURVE",
"409 93 CURVE",
"397 103 LINE",
"355 68 OFFCURVE",
"313 50 OFFCURVE",
"270 50 CURVE SMOOTH",
"186 50 OFFCURVE",
"116 112 OFFCURVE",
"116 229 CURVE SMOOTH",
"116 336 OFFCURVE",
"166 408 OFFCURVE",
"239 408 CURVE SMOOTH",
"298 408 OFFCURVE",
"324 358 OFFCURVE",
"324 295 CURVE SMOOTH",
"324 284 OFFCURVE",
"319 277 OFFCURVE",
"305 277 CURVE SMOOTH",
"100 271 LINE",
"100 248 LINE",
"389 248 LINE SMOOTH",
"401 248 OFFCURVE",
"405 256 OFFCURVE",
"405 264 CURVE SMOOTH",
"405 359 OFFCURVE",
"343 434 OFFCURVE",
"250 434 CURVE SMOOTH",
"133 434 OFFCURVE",
"45 340 OFFCURVE",
"45 207 CURVE SMOOTH",
"45 87 OFFCURVE",
"128 -8 OFFCURVE",
"244 -8 CURVE SMOOTH"
);
}
);
width = 449;
},
{
anchors = (
{
name = bottom;
position = "{222, -50}";
},
{
name = ogonek;
position = "{221, -50}";
},
{
name = top;
position = "{263, 470}";
}
);
layerId = "3BF888B6-F1E5-4C4E-A417-A1F2F5FF24CA";
paths = (
{
closed = 1;
nodes = (
"317 -8 OFFCURVE",
"379 25 OFFCURVE",
"433 99 CURVE",
"416 115 LINE",
"376 81 OFFCURVE",
"339 65 OFFCURVE",
"298 65 CURVE SMOOTH",
"219 65 OFFCURVE",
"153 126 OFFCURVE",
"153 239 CURVE SMOOTH",
"153 347 OFFCURVE",
"190 420 OFFCURVE",
"251 420 CURVE SMOOTH",
"291 420 OFFCURVE",
"317 376 OFFCURVE",
"317 306 CURVE SMOOTH",
"317 293 OFFCURVE",
"314 285 OFFCURVE",
"303 285 CURVE",
"86 276 LINE",
"86 240 LINE",
"410 240 LINE SMOOTH",
"426 240 OFFCURVE",
"433 251 OFFCURVE",
"433 265 CURVE SMOOTH",
"433 371 OFFCURVE",
"362 452 OFFCURVE",
"257 452 CURVE SMOOTH",
"124 452 OFFCURVE",
"25 355 OFFCURVE",
"25 216 CURVE SMOOTH",
"25 91 OFFCURVE",
"117 -8 OFFCURVE",
"245 -8 CURVE SMOOTH"
);
}
);
width = 458;
}
);
leftKerningGroup = o;
leftMetricsKey = o;
rightKerningGroup = e;
unicode = 0065;
},
{
glyphname = eogonek;
lastChange = "2019-09-13 01:15:42 +0000";
layers = (
{
background = {
anchors = (
{
name = _ogonek;
position = "{253, -51}";
},
{
name = bottom;
position = "{253, -50}";
},
{
name = top;
position = "{251, 470}";
}
);
paths = (
{
closed = 1;
nodes = (
"296 -8 OFFCURVE",
"360 22 OFFCURVE",
"409 93 CURVE",
"397 103 LINE",
"355 68 OFFCURVE",
"313 50 OFFCURVE",
"270 50 CURVE SMOOTH",
"186 50 OFFCURVE",
"116 112 OFFCURVE",
"116 229 CURVE SMOOTH",
"116 336 OFFCURVE",
"166 408 OFFCURVE",
"239 408 CURVE SMOOTH",
"298 408 OFFCURVE",
"324 358 OFFCURVE",
"324 295 CURVE SMOOTH",
"324 284 OFFCURVE",
"319 277 OFFCURVE",
"305 277 CURVE SMOOTH",
"100 271 LINE",
"100 248 LINE",
"389 248 LINE SMOOTH",
"401 248 OFFCURVE",
"405 256 OFFCURVE",
"405 264 CURVE SMOOTH",
"405 359 OFFCURVE",
"343 434 OFFCURVE",
"250 434 CURVE SMOOTH",
"133 434 OFFCURVE",
"45 340 OFFCURVE",
"45 207 CURVE SMOOTH",
"45 87 OFFCURVE",
"128 -8 OFFCURVE",
"244 -8 CURVE SMOOTH"
);
},
{
closed = 1;
nodes = (
"272 -225 OFFCURVE",
"321 -198 OFFCURVE",
"360 -158 CURVE",
"348 -144 LINE",
"319 -163 OFFCURVE",
"290 -181 OFFCURVE",
"260 -181 CURVE SMOOTH",
"224 -181 OFFCURVE",
"196 -160 OFFCURVE",
"196 -104 CURVE SMOOTH",
"196 -49 OFFCURVE",
"262 -10 OFFCURVE",
"306 5 CURVE",
"266 12 LINE",
"211 -7 OFFCURVE",
"127 -51 OFFCURVE",
"127 -102 CURVE SMOOTH",
"127 -166 OFFCURVE",
"176 -225 OFFCURVE",
"234 -225 CURVE SMOOTH"
);
}
);
};
components = (
{
name = e;
},
{
name = ogonekcomb;
transform = "{1, 0, 0, 1, -24, 0}";
}
);
layerId = "BD647A82-329A-4004-812E-9CBC2DAE5B44";
width = 449;
},
{
background = {
anchors = (
{
name = _ogonek;
position = "{222, -50}";
},
{
name = bottom;
position = "{222, -50}";
},
{
name = top;
position = "{263, 470}";
}
);
paths = (
{
closed = 1;
nodes = (
"317 -8 OFFCURVE",
"379 25 OFFCURVE",
"433 99 CURVE",
"416 115 LINE",
"376 81 OFFCURVE",
"339 65 OFFCURVE",
"298 65 CURVE SMOOTH",
"219 65 OFFCURVE",
"153 126 OFFCURVE",
"153 239 CURVE SMOOTH",
"153 347 OFFCURVE",
"190 420 OFFCURVE",
"251 420 CURVE SMOOTH",
"291 420 OFFCURVE",
"317 376 OFFCURVE",
"317 306 CURVE SMOOTH",
"317 293 OFFCURVE",
"314 285 OFFCURVE",
"303 285 CURVE",
"86 276 LINE",
"86 240 LINE",
"410 240 LINE SMOOTH",
"426 240 OFFCURVE",
"433 251 OFFCURVE",
"433 265 CURVE SMOOTH",
"433 371 OFFCURVE",
"362 452 OFFCURVE",
"257 452 CURVE SMOOTH",
"124 452 OFFCURVE",
"25 355 OFFCURVE",
"25 216 CURVE SMOOTH",
"25 91 OFFCURVE",
"117 -8 OFFCURVE",
"245 -8 CURVE SMOOTH"
);
},
{
closed = 1;
nodes = (
"287 -225 OFFCURVE",
"335 -197 OFFCURVE",
"373 -156 CURVE",
"354 -134 LINE",
"331 -151 OFFCURVE",
"308 -163 OFFCURVE",
"284 -163 CURVE SMOOTH",
"256 -163 OFFCURVE",
"234 -144 OFFCURVE",
"234 -94 CURVE SMOOTH",
"234 -44 OFFCURVE",
"280 -9 OFFCURVE",
"315 4 CURVE",
"275 11 LINE",
"213 -8 OFFCURVE",
"123 -52 OFFCURVE",
"123 -103 CURVE SMOOTH",
"123 -166 OFFCURVE",
"183 -225 OFFCURVE",
"249 -225 CURVE SMOOTH"
);
}
);
};
components = (
{
name = e;
},
{
name = ogonekcomb;
transform = "{1, 0, 0, 1, -37, 0}";
}
);
layerId = "3BF888B6-F1E5-4C4E-A417-A1F2F5FF24CA";
width = 458;
}
);
leftKerningGroup = o;
rightKerningGroup = e;
unicode = 0119;
},
{
glyphname = f;
lastChange = "2019-09-13 01:46:30 +0000";
layers = (
{
background = {
paths = (
{
closed = 1;
nodes = (
"249 0 LINE",
"249 15 LINE",
"196 26 LINE",
"176 31 OFFCURVE",
"170 39 OFFCURVE",
"170 58 CURVE SMOOTH",
"170 398 LINE",
"294 398 LINE",
"304 426 LINE",
"170 426 LINE",
"170 492 LINE SMOOTH",
"170 597 OFFCURVE",
"192 685 OFFCURVE",
"279 685 CURVE SMOOTH",
"298 685 OFFCURVE",
"312 676 OFFCURVE",
"312 661 CURVE SMOOTH",
"312 657 OFFCURVE",
"310 654 OFFCURVE",
"309 651 CURVE SMOOTH",
"307 647 OFFCURVE",
"306 641 OFFCURVE",
"306 637 CURVE SMOOTH",
"306 616 OFFCURVE",
"322 597 OFFCURVE",
"352 597 CURVE SMOOTH",
"379 597 OFFCURVE",
"395 616 OFFCURVE",
"395 641 CURVE SMOOTH",
"395 681 OFFCURVE",
"348 711 OFFCURVE",
"285 711 CURVE SMOOTH",
"166 711 OFFCURVE",
"103 617 OFFCURVE",
"103 498 CURVE SMOOTH",
"103 426 LINE",
"36 426 LINE",
"36 398 LINE",
"103 398 LINE",
"103 58 LINE SMOOTH",
"103 39 OFFCURVE",
"97 31 OFFCURVE",
"77 26 CURVE SMOOTH",
"35 15 LINE",
"35 0 LINE"
);
}
);
};
layerId = "BD647A82-329A-4004-812E-9CBC2DAE5B44";
paths = (
{
closed = 1;
nodes = (
"249 0 LINE",
"249 15 LINE",
"196 26 LINE",
"176 31 OFFCURVE",
"170 39 OFFCURVE",
"170 58 CURVE SMOOTH",
"170 398 LINE",
"294 398 LINE",
"304 426 LINE",
"170 426 LINE",
"170 492 LINE SMOOTH",
"170 597 OFFCURVE",
"192 685 OFFCURVE",
"279 685 CURVE SMOOTH",
"298 685 OFFCURVE",
"312 676 OFFCURVE",
"312 661 CURVE SMOOTH",
"312 656 OFFCURVE",
"310 652 OFFCURVE",
"309 648 CURVE SMOOTH",
"307 644 OFFCURVE",
"306 640 OFFCURVE",
"306 635 CURVE SMOOTH",
"306 614 OFFCURVE",
"322 597 OFFCURVE",
"352 597 CURVE SMOOTH",
"379 597 OFFCURVE",
"395 616 OFFCURVE",
"395 641 CURVE SMOOTH",
"395 681 OFFCURVE",
"348 711 OFFCURVE",
"285 711 CURVE SMOOTH",
"166 711 OFFCURVE",
"103 617 OFFCURVE",
"103 498 CURVE SMOOTH",
"103 426 LINE",
"36 426 LINE",
"36 398 LINE",
"103 398 LINE",
"103 58 LINE SMOOTH",
"103 39 OFFCURVE",
"97 31 OFFCURVE",
"77 26 CURVE SMOOTH",
"35 15 LINE",
"35 0 LINE"
);
}
);
width = 320;
},
{
background = {
paths = (
{
closed = 0;
nodes = (
"25 436 LINE",
"25 409 LINE",
"89 409 LINE",
"89 69 LINE SMOOTH",
"89 48 OFFCURVE",
"82 37 OFFCURVE",
"62 29 CURVE SMOOTH",
"30 17 LINE",
"30 0 LINE",
"275 0 LINE",
"275 17 LINE",
"238 29 LINE",
"216 37 OFFCURVE",
"206 47 OFFCURVE",
"206 62 CURVE SMOOTH",
"207 409 LINE",
"312 409 LINE",
"322 442 LINE",
"207 442 LINE",
"207 522 LINE SMOOTH",
"207 597 OFFCURVE",
"209 684 OFFCURVE",
"293 684 CURVE SMOOTH",
"311 684 OFFCURVE",
"328 680 OFFCURVE",
"328 669 CURVE SMOOTH",
"328 664 OFFCURVE",
"323 658 OFFCURVE",
"319 652 CURVE",
"315 645 OFFCURVE",
"311 638 OFFCURVE",
"311 627 CURVE SMOOTH",
"311 587 OFFCURVE",
"334 567 OFFCURVE",
"368 567 CURVE SMOOTH",
"398 567 OFFCURVE",
"426 588 OFFCURVE",
"426 627 CURVE SMOOTH",
"426 679 OFFCURVE",
"370 711 OFFCURVE",
"297 711 CURVE SMOOTH",
"130 711 OFFCURVE",
"89 562 OFFCURVE",
"89 426 CURVE SMOOTH",
"89 384 LINE"
);
},
{
closed = 1;
nodes = (
"275 0 LINE",
"275 17 LINE",
"238 29 LINE",
"216 37 OFFCURVE",
"206 47 OFFCURVE",
"206 62 CURVE SMOOTH",
"207 409 LINE",
"312 409 LINE",
"322 442 LINE",
"207 442 LINE",
"207 522 LINE SMOOTH",
"207 597 OFFCURVE",
"209 684 OFFCURVE",
"293 684 CURVE SMOOTH",
"311 684 OFFCURVE",
"328 680 OFFCURVE",
"328 669 CURVE SMOOTH",
"328 664 OFFCURVE",
"323 658 OFFCURVE",
"319 652 CURVE",
"315 645 OFFCURVE",
"311 638 OFFCURVE",
"311 627 CURVE SMOOTH",
"311 587 OFFCURVE",
"334 567 OFFCURVE",
"368 567 CURVE SMOOTH",
"398 567 OFFCURVE",
"426 588 OFFCURVE",
"426 627 CURVE SMOOTH",
"426 679 OFFCURVE",
"370 711 OFFCURVE",
"297 711 CURVE SMOOTH",
"138 711 OFFCURVE",
"93 576 OFFCURVE",
"89 446 CURVE SMOOTH",
"89 442 LINE",
"25 442 LINE",
"25 409 LINE",
"89 409 LINE",
"89 69 LINE SMOOTH",
"89 48 OFFCURVE",
"82 37 OFFCURVE",
"62 29 CURVE SMOOTH",
"30 17 LINE",
"30 0 LINE"
);
}
);
};
layerId = "3BF888B6-F1E5-4C4E-A417-A1F2F5FF24CA";
paths = (
{
closed = 1;
nodes = (
"282 0 LINE",
"282 17 LINE",
"239 29 LINE SMOOTH",
"216 35 OFFCURVE",
"207 47 OFFCURVE",
"207 62 CURVE SMOOTH",
"207 409 LINE",
"312 409 LINE",
"322 442 LINE",
"207 442 LINE",
"207 484 LINE SMOOTH",
"207 630 OFFCURVE",
"234 684 OFFCURVE",
"292 684 CURVE SMOOTH",
"310 684 OFFCURVE",
"329 680 OFFCURVE",
"329 667 CURVE SMOOTH",
"329 660 OFFCURVE",
"325 656 OFFCURVE",
"321 650 CURVE SMOOTH",
"317 644 OFFCURVE",
"312 636 OFFCURVE",
"312 623 CURVE SMOOTH",
"312 587 OFFCURVE",
"338 567 OFFCURVE",
"372 567 CURVE SMOOTH",
"402 567 OFFCURVE",
"427 588 OFFCURVE",
"427 627 CURVE SMOOTH",
"427 679 OFFCURVE",
"374 711 OFFCURVE",
"299 711 CURVE SMOOTH",
"174 711 OFFCURVE",
"89 658 OFFCURVE",
"89 489 CURVE SMOOTH",
"89 442 LINE",
"25 442 LINE",
"25 409 LINE",
"89 409 LINE",
"89 69 LINE SMOOTH",
"89 48 OFFCURVE",
"82 37 OFFCURVE",
"62 29 CURVE SMOOTH",
"30 17 LINE",
"30 0 LINE"
);
}
);
width = 356;
}
);
leftKerningGroup = f;
rightKerningGroup = f;
unicode = 0066;
},
